<?xml version="1.0" encoding="utf-8" ?>
<svg baseProfile="full" height="300mm" version="1.1" viewBox="0,0,200,300" width="200mm" xmlns="http://www.w3.org/2000/svg" xmlns:ev="http://www.w3.org/2001/xml-events" xmlns:xlink="http://www.w3.org/1999/xlink"><defs /><rect fill="#222222" height="300" width="200" x="0" y="0" /><text fill="#FFFFFF" style="font-size:12px; font-family:Arial; font-weight:bold;" x="10" y="20">Over 5km Runs</text><text fill="#FFFFFF" style="font-size:4px; font-family:Arial" x="10" y="280">ATHLETE</text><text fill="#FFFFFF" style="font-size:9px; font-family:Arial" x="10" y="290">ufiv</text><text fill="#FFFFFF" style="font-size:4px; font-family:Arial" x="120" y="280">STATISTICS</text><text fill="#FFFFFF" style="font-size:3px; font-family:Arial" x="120" y="285">Number: 16</text><text fill="#FFFFFF" style="font-size:3px; font-family:Arial" x="120" y="290">Weekly: 1.3</text><text fill="#FFFFFF" style="font-size:3px; font-family:Arial" x="141" y="285">Total: 104.6 km</text><text fill="#FFFFFF" style="font-size:3px; font-family:Arial" x="141" y="290">Avg: 6.5 km</text><text fill="#FFFFFF" style="font-size:3px; font-family:Arial" x="167" y="285">Min: 5.3 km</text><text fill="#FFFFFF" style="font-size:3px; font-family:Arial" x="167" y="290">Max: 11.2 km</text><polyline fill="none" points="18.349397590267472,57.54507053751149 16.087075575022027,57.20875405467814 17.196056955028325,56.29589330632007 18.571193866315298,56.680256033694604 23.960843373439275,59.683074469154235 24.64841182914097,61.700953146559186 24.47097480832599,65.7366735812393 24.958926615538076,66.28917909559095 29.372672508237883,65.71265158138704 29.971522453357466,65.95287150106742 32.25602409627754,65.71265158138704 34.87322015338577,64.67970393947326 35.93784227815922,63.67077522270847 39.131708652712405,62.10933185770409 41.593647316563874,61.41268551762914 52.062431544298306,61.43670782961999 52.75,60.98028360315948 52.55038335151039,57.88138667852036 51.72973713022657,55.527166511892574 51.97371303383261,52.88465453183744 51.1530668126652,49.18510229646927 51.064348302199505,44.740780291263945 50.73165388824418,43.3714366122731 49.711391018587165,42.21830069596763 40.8173603505129,38.71082090440905 33.830777656054124,41.978063540678704 31.013964950689115,42.62670345947845 27.531763417297043,41.88196862975019 24.16046002181247,40.00811228528619 22.031215772149153,39.45556287479121 19.23658269434236,39.45556287479121 14.8671960568754,40.680779886839446 13.536418400821276,40.65675606750301 12.560514786397107,40.993089379684534 12.25,41.449541184905684 12.871029572794214,59.22664782349602 13.580777656054124,62.82999894180102 14.002190580475144,63.21435407816898 13.93565169768408,64.00708513677819" stroke="#4dd2ff" stroke-linecap="round" stroke-linejoin="round" stroke-width="0.5"><title>2022-05-08 6.0km</title></polyline><polyline fill="none" points="60.11273972596973,56.983001723652706 60.867260273895226,57.07914503000211 61.88808219181374,56.55035649955971 62.90890410961583,56.79071502722218 67.16972602752503,58.737612668890506 69.01164383557625,60.05957367600058 69.6552054794738,61.477671432628995 70.01027397264261,66.09245598010602 70.38753424666356,66.26070211798651 73.62753424665425,66.33280757948523 75.82452054799069,66.04438563931035 76.00205479457509,65.70789305819198 78.46534246578813,65.65982266154606 83.30315068503842,62.79962149739731 86.4987671233248,61.766097351530334 96.13000000000466,61.718026382499374 97.75,61.33345837891102 97.37273972609546,56.67053578514606 96.75136986305006,55.5168128417281 96.77356164390221,52.079656069458 96.21876712329686,49.339519505854696 96.15219178085681,45.301382165780524 95.68616438354366,43.522663181764074 94.26589041086845,42.20063612170634 87.63054794515483,39.82097410413553 85.3891780822305,38.667192420514766 78.62068493152037,41.88815622677794 76.97849315067288,42.34485751221655 73.38342465751339,42.080451581656234 70.16561643837485,40.325752325734356 66.48178082192317,39.29215799848316 64.15164383570664,39.36426933540497 58.071095890481956,41.143010671046795 57.538493150728755,40.95071477134479 57.6050684931688,40.710344739607535 57.25,43.25825819224701 57.82698630145751,50.70959062338807 57.56068493158091,56.11771070995019 57.89356164378114,56.43017717023031 57.693835616461,57.58389693018398 58.004520547925495,59.266397705243435" stroke="#4dd2ff" stroke-linecap="round" stroke-linejoin="round" stroke-width="0.5"><title>2022-04-30 5.7km</title></polyline><polyline fill="none" points="104.469178082305,56.4662356559129 105.2680821918184,57.06713182234671 107.06561643839814,56.562379115843214 112.87986301374622,59.158241978351725 114.49986301374156,61.39355202004663 114.27794520556927,61.65794253212516 114.6552054794738,62.859714925609296 114.49986301374156,64.4220125148131 115.03246575349476,66.41693564155139 118.6941095890943,66.44097078664345 122.13383561652154,65.98430273131817 124.30863013700582,65.23921139386948 125.37383561651222,64.25376543641323 127.72616438358091,62.955856528598815 131.65410958905704,61.58583604978048 139.8206849314738,61.80215544975363 142.26178082206752,61.633907039795304 142.75,61.1531968259078 142.19520547939464,57.06713182234671 141.6404109589057,55.86533839860931 141.75136986305006,53.654027097916696 141.35191780829336,50.12070555309765 140.9746575342724,49.42365126972436 140.8858904109802,44.5682669118396 140.48643835622352,43.5106489895843 139.57657534244936,42.645322720869444 130.45575342467055,38.55902921335655 123.35438356176019,41.97228961420478 121.93410958908498,42.35688012850005 118.5609589042142,42.09247419793974 113.76753424666822,39.78492256393656 111.74808219179977,39.304180614766665 110.01712328766007,39.304180614766665 107.17657534254249,39.881070869916584 105.6231506849872,40.79447838375927 102.25,41.082922338013304 102.7382191780489,53.846315623639384 102.49410958902445,55.889374309859704 102.71602739731316,58.50927817123011 103.3152054795064,59.99948946436052 103.20424657536205,60.74459259523428 103.8478082192596,63.4365641248296" stroke="#4dd2ff" stroke-linecap="round" stroke-linejoin="round" stroke-width="0.5"><title>2022-04-28 5.9km</title></polyline><polyline fill="none" points="149.99576271197293,56.75733961633523 150.01790595951024,56.18174086190993 150.54934390389826,56.613440021756105 151.5679332970176,56.34962393552996 154.66798797168303,58.22031526893261 156.68302351026796,58.62802864043624 158.7866320394678,60.114979024772765 159.40664297447074,61.31412768462906 159.76093493716326,61.3620935404615 159.3844997267006,64.8156168567948 159.56164570804685,65.8948354885797 160.77952433028258,66.18262652822887 165.03102788410615,66.18262652822887 168.9282394752372,65.41518319860916 172.64830508478917,63.01691130173276 177.14338436315302,61.38607646577293 186.6871241114568,61.60192271525739 187.284991798806,61.505991066253046 187.75,61.00234945185366 187.4178512848448,57.09310509316856 186.8199835974956,55.55817441261024 186.79784034984186,53.4716165792197 186.04496992891654,49.082607073447434 185.9563969381852,44.16588780740858 185.13709677418228,43.062613915564725 183.71992892294656,42.151210963726044 175.46049753960688,38.817373471771134 168.5296610170044,42.199179602845106 166.75820120284334,42.63089704143931 164.07886823406443,42.51097558735637 159.42878622200806,40.064568416797556 156.50587752880529,39.48894056602148 154.07012028433383,39.60886311769718 147.67072170588654,40.928008311399026 147.27214324777015,41.527618020860245 147.25,42.870739818987204 147.60429196292534,47.66755878715776 147.42714598146267,49.538299298641505 147.73715144896414,50.305779519840144 147.515718972194,54.4069717208622 148.26858939323574,60.210911077825585" stroke="#4dd2ff" stroke-linecap="round" stroke-linejoin="round" stroke-width="0.5"><title>2022-04-16 5.8km</title></polyline><polyline fill="none" points="14.458287895424291,121.32716625506873 16.04825518000871,121.61418084346224 17.06406761193648,121.23149467003532 18.49945474381093,121.63809871455305 23.313522355630994,123.93420625169529 24.241003271657974,125.39318293312681 24.30725190846715,130.415840127127 27.42093784082681,131.10943915048847 32.38958560535684,130.63109515275573 34.907033805851825,129.1003896924667 40.405670665204525,126.5412256148993 43.01145038171671,126.20638024597429 51.88876772089861,126.4455555441964 52.75,125.82369940768695 52.153762268368155,121.54242721982882 52.39667393674608,120.3226132261043 51.866684841923416,119.24630300962599 51.5133587786695,115.5629036538594 50.983369683730416,113.9842913193279 50.76254089421127,108.8417895733437 50.45338058879133,108.12422480582609 49.48173391504679,107.33490175555926 40.78107960743364,103.89056084951153 33.294983642408624,107.33490175555926 30.77753544168081,107.71760407680995 27.928844056790695,107.16746935018455 23.136859323945828,104.77556854937575 21.25981461291667,104.58421573479427 16.821155943442136,105.37354537841748 13.111232279334217,106.3303060462058 12.492911668610759,106.78476638958091 12.25,108.93746475753142 12.824154852889478,115.53898534155451 12.691657579154707,121.13582305717864 13.22164667409379,124.26905393027118 14.171210469095968,127.13916292690556 14.19329334795475,128.64596013972186" stroke="#4dd2ff" stroke-linecap="round" stroke-linejoin="round" stroke-width="0.5"><title>2022-04-09 5.9km</title></polyline><polyline fill="none" points="59.373429819825105,121.11782010982279 61.01024030591361,121.26156265864847 61.784407427650876,121.02199170915992 63.24426542886067,121.35739098975318 68.86250682687387,124.54366714999196 69.63667394872755,126.19668551645009 69.37124522123486,130.4130426888296 70.83110322232824,130.94008354708785 73.86141452763695,131.05986544294865 75.36551064997911,130.60469400737202 75.74153468047734,130.94008354708785 76.44934462045785,130.8682143887272 85.18637356639374,126.60394963953877 87.99549426545855,126.19668551645009 95.53809393779375,126.412295997201 97.3076187876286,126.24459896879853 97.75,125.78942089065094 96.02471327153035,113.90665519493632 96.00259421090595,109.3786338683276 95.36114145279862,107.98906988586532 94.32154560356867,107.03074648726033 85.69511196063831,103.94013455708046 83.77075368654914,104.46721770978183 78.48429819778539,107.03074648726033 75.71941561996937,107.46199236120447 73.46327143639792,107.29428569946322 69.28276897885371,105.09013307702844 67.26993446215056,104.49117601491162 65.67736209731083,104.44325940296403 62.248907700763084,104.82659210369457 58.26747678872198,105.90471293596784 57.58178590936586,106.43179294918082 57.25,107.27032759797294 57.7366193337366,115.67951433817507 57.626024030614644,120.18349201593082 57.9799290006049,121.38134806812741 57.913571818731725,122.93855443428038 59.26283451670315,128.90378466484253" stroke="#4dd2ff" stroke-linecap="round" stroke-linejoin="round" stroke-width="0.5"><title>2022-03-09 5.9km</title></polyline><polyline fill="none" points="104.64539978094399,121.98054313933244 107.2625958379358,121.57215814184747 110.94441401970107,122.91742446404533 113.49507119390182,124.50290989250061 114.2713581599528,125.41576169253676 114.51533406355884,126.66492323207785 114.51533406355884,130.9168415865861 116.15662650601007,131.301193095278 119.35049288056325,131.32521504972829 123.1875684557017,130.55651164168376 131.26095290249214,126.54481175058754 142.21768893755507,126.49676714569796 142.72782037244178,125.99229837374878 142.75,124.02246056502918 142.52820372395217,121.57215814184747 141.88499452348333,119.96263589005684 141.79627601313405,115.06195275273058 141.3526834611548,114.29321155539947 141.57447973708622,111.74674357826007 141.28614457824733,108.71978444320848 139.37869660463184,106.84593871526886 131.726725082146,103.60271909731091 128.4219605695689,104.61172416433692 124.16347207012586,106.86996244563488 121.65717415115796,107.51860250573372 119.41703176347073,107.25434189403313 113.31763417308684,104.27538948398433 109.99069003283512,104.059174151771 103.58077765605412,105.57267850905191 102.7379518073285,106.26936866313918 102.25,107.92700485393289 102.58269441407174,114.58148971371702 102.91538882802706,115.61448438485968 102.51615553128067,117.99276217870647 102.67141292442102,120.92354563905974 103.78039430454373,121.5000901487656 107.77272727282252,121.37997679211549 112.56352683459409,123.734190633666 113.9830230011139,124.81520158116473 114.2713581599528,125.41576169253676 114.55969331867527,127.26547998585738 114.3822562978603,130.55651164168376 114.98110624309629,130.892819602479 117.55394304497167,131.13303936520242 116.51150054764003,131.3972809027182 114.91456736042164,131.15706133184722 114.36007667030208,130.26824740323354 114.1826396494871,125.68000779612339 113.53943044913467,124.81520158116473 109.32530120480806,122.38892763268086 106.99644030665513,121.57215814184747 106.264512595837,121.71629408089211 105.3551478642039,121.37997679211549 103.02628696605098,121.59618080270593 102.71577217965387,122.50904062303016 103.86911281489301,127.28950223326683 105.02245345013216,130.34031348637654" stroke="#4dd2ff" stroke-linecap="round" stroke-linejoin="round" stroke-width="0.5"><title>2022-02-11 8.0km</title></polyline><polyline fill="none" points="149.40260273974854,121.88683652938926 149.69109589036088,121.57437106739962 151.1113698630361,121.76665754045825 152.46506849315483,121.47822778893169 158.70095890411176,124.65094123248127 159.54424657532945,126.52571215573698 159.5220547944773,130.87610121432226 164.24890410958324,130.9962768962141 166.53465753421187,130.5876793997886 169.19767123286147,129.79451811409672 170.6401369862724,128.59275496951886 174.0132876712596,126.91027923792717 176.38780821906403,126.1892155923997 187.2617808218347,126.23728655095329 187.75,125.44411484195734 187.59465753426775,121.1657619412581 186.9510958903702,119.74764400211279 186.57383561634924,115.51728998601902 186.08561643841676,114.00300239579519 186.08561643841676,109.02743724428001 185.48643835622352,107.89770913220127 184.19931506854482,106.98430911556352 175.7886301369872,104.00372310378589 168.62068493152037,107.32082520442782 166.6234246576205,107.75348824454704 164.78150684933644,107.7775250634877 163.62753424653783,107.41697259558714 158.21273972606286,104.77290916081984 155.3056164382724,104.41235341920401 152.30972602742258,104.89309432072332 151.24452054791618,105.51805644854903 149.42479452048428,104.79694619626389 148.9365753424354,104.91713134749443 147.25,106.71990337703028 147.67164383549243,115.18078223138582" stroke="#4dd2ff" stroke-linecap="round" stroke-linejoin="round" stroke-width="0.5"><title>2022-02-09 5.3km</title></polyline><polyline fill="none" points="19.066393442684785,187.138530464028 24.001639344263822,190.18272124050418 24.709836065536365,192.93924772550236 24.953278688481078,195.9833850133291 28.449999999953434,196.1032323637919 33.031147541012615,195.456056154595 38.07704918028321,192.62764153754688 42.3262295081513,191.40518365241587 52.2188524591038,191.5250326648238 52.75,190.75799823351554 52.24098360654898,186.10781383956783 51.709836065536365,184.88533181030652 51.46639344259165,181.12197635747725 50.95737704914063,179.39609198991093 51.090163934393786,176.63945240626344 50.71393442619592,173.78690546692815 48.78852459019981,171.94112666207366 40.64426229509991,168.8967676362372 33.40737704921048,172.30069477137295 31.349180327844806,172.70820482156705 28.16229508188553,172.3486371563049 24.422131147584878,170.31107965300907 22.297540983650833,169.6878242570092 20.150819672155194,169.61591009711265 15.547540983650833,170.31107965300907 12.648360655759461,171.26993180988939 12.25,174.6978054883948 12.604098360636272,176.47165620999294 12.71475409832783,186.6111874768394" stroke="#4dd2ff" stroke-linecap="round" stroke-linejoin="round" stroke-width="0.5"><title>2022-02-05 5.3km</title></polyline><polyline fill="none" points="59.118204283411615,186.0654279984592 59.91886326193344,186.3544916282408 61.83154859975912,186.08951664390042 65.2343492587097,187.84798303610296 66.23517298186198,187.94433708957513 69.05971993412822,189.94367738449364 69.74917627684772,191.72621158364927 69.68245469522662,195.77301042951876 70.39415156515315,196.03797767989454 72.97405271825846,195.9898018318927 73.61902800668031,196.3511205210234 74.33072487649042,195.94162597690593 76.88838550250512,195.58030684187543 78.7343492587097,194.8335793824226 81.46993410214782,193.07515001675347 86.36285008245613,191.38897611841094 97.01606260309927,191.53350564543507 97.75,190.88312227770803 97.26070840202738,186.16178256971762 96.66021416813601,185.00552586768754 96.92710049427114,183.77699870578363 96.63797364092898,180.50090402990463 96.01523887971416,179.10373616428114 96.01523887971416,174.28587080031866 95.52594728174154,172.93685595705756 94.72528830321971,172.26234647782985 85.62891268543899,168.6488794789766 83.91639209236018,169.1788571025827 78.33401976944879,171.9973602356331 75.13138385501225,172.50324287789408 73.28542009880766,172.21416717674583 69.52677100489382,170.09427100306493 67.5696046128869,169.44384559680475 64.38920922577381,169.44384559680475 59.40733113675378,170.551977005729 57.672570016467944,171.39511798872263 57.25,172.0214499027643 57.450164744630456,185.58365472246078 57.80601317959372,186.40266887535108 57.85049423400778,189.43782134004869 58.69563426694367,191.3167113312229 58.67339373973664,192.64156326136435 59.118204283411615,193.84596951602725" stroke="#4dd2ff" stroke-linecap="round" stroke-linejoin="round" stroke-width="0.5"><title>2022-01-20 5.9km</title></polyline><polyline fill="none" points="104.71059113298543,184.96128435397986 104.1564039408695,185.44147628857172 105.99630541866645,185.7776102279022 112.80172413785476,188.77879096847028 114.0431034482317,190.53146792185726 114.53078817739151,195.69340771855786 120.91502463060897,196.34164562620572 128.58497536939103,192.04404467373388 130.53571428568102,191.46782577451086 133.08497536939103,191.2037251101574 142.3066502462607,191.51584405446192 142.75,190.79556912308908 142.28448275860865,187.09813310974278 141.39778325124644,185.00930357875768 141.70812807884067,183.80882086546626 141.61945812799968,181.50388183706673 141.02093596057966,179.15090667057666 140.8879310344346,173.96469818949117 140.08990147779696,172.64412284840364 138.4938423645217,171.5396376028075 135.9445812808117,170.89135106600588 130.82389162562322,168.65835437379428 129.2056650245795,169.13856998941628 126.78940886701457,170.65124461860978 123.50862068973947,172.11589123486192 121.6687192118261,172.50005976483226 118.09975369449239,172.11589123486192 114.17610837426037,169.97894563802402 112.42487684718799,169.5707634470018 109.7869458127534,169.47472050524084 107.52586206886917,169.83488139288966 105.35344827582594,170.62723396424553 102.75985221669544,170.9393723345711 102.25,172.33198608789826 102.40517241379712,179.31897688066238 102.75985221669544,180.49546595910215 102.29433497530408,183.1365486420691 102.40517241379712,186.01770568959182" stroke="#4dd2ff" stroke-linecap="round" stroke-linejoin="round" stroke-width="0.5"><title>2022-01-18 5.6km</title></polyline><polyline fill="none" points="150.83445763622876,186.03937282104744 152.77968159737065,185.89733701996738 155.2713167836191,187.15198445494752 157.2602536426857,187.50707247498212 158.6809228277998,188.50131687356043 159.8393146249,190.3951073399221 159.48961144092027,191.95747619349277 159.92674042086583,195.1532073483104 160.66985968698282,195.36625497826026 164.38545601733495,195.5556305324717 168.29776038858108,194.67976767217624 169.19387479766738,193.9222627604904 169.84956826770213,193.96960686903913 170.548974635778,193.3067887238867 172.14449541282374,192.71498566993978 173.52145169989672,191.72075412116828 173.52145169989672,191.31832620379282 175.75080949801486,190.8685532377276 187.07245008088648,190.8685532377276 187.46586616290733,190.34776271230658 187.42215326498263,188.80905857289326 186.87574203999247,185.8499917392328 186.24190501892008,184.52432108609355 186.41675661085173,181.5178694500355 185.78291958977934,178.74812175007537 185.9140582837863,175.43386280332925 185.4987857528031,173.30324997042771 184.6026713437168,172.16691743131378 182.9197247705888,171.21997062233277 175.46667566115502,168.61585271096556 172.31934700487182,169.79954525007633 168.80045871564653,171.6697706996638 167.07379924459383,172.1432437946496 163.38005936320405,172.02487558539724 158.48421478678938,169.68117618968245 155.8614409066504,169.30239490728127 147.86198057211004,170.8885385892063 147.5122773880139,172.37998008419527 147.92754991911352,177.5171152179828 147.75269832706545,179.5530081228644 148.10240151104517,180.26320033078082 147.84012412303127,180.85502598871244 147.97126281703822,185.63693789069657 148.6269562871894,186.20508117738063 149.6104964922415,185.8499917392328 150.7033189422218,186.20508117738063 151.99284943332896,185.96835492821992 153.30423637339845,186.20508117738063 157.60995682678185,188.21724735476892 158.85577441984788,189.2588343801326 159.55518078780733,190.75019182771211 160.1015920129139,195.43727082401165 162.39651915803552,195.5082866542798 163.3582029141253,196.38414728900534 164.64773340523243,195.31891107253614 168.2759039395023,194.65609567033243 174.02415002696216,191.46035964312614 175.8382352940971,190.98691460472764 187.02873718284536,190.8922255145153 187.50957906094845,190.37143502695835 187.31287101993803,187.17565700161504 187.75,186.70220574105042 186.61346465186216,184.99777550960425 186.76645979494788,182.7488608737185 185.87034538586158,178.91383381281048 185.89220183482394,174.9367210546916 185.56435509992298,173.30324997042771 183.85955207771622,171.7407917077653 175.64152725308668,168.63952660388895 169.9588505126303,171.26731802814174 166.43996222340502,172.37998008419527 163.2926335671218,171.97752828962984 158.74649217480328,169.72852381900884 156.6919859686168,169.2787210625538 155.40245547762606,169.20769951795228 148.1461144090863,170.6281274695648 147.6215596330585,171.10160207780427 147.81826767406892,172.16691743131378 147.25,173.35059707355686 147.94940636807587,180.12116201300523 147.90569347003475,185.68428320239764" stroke="#4dd2ff" stroke-linecap="round" stroke-linejoin="round" stroke-width="0.5"><title>2022-01-15 11.2km</title></polyline><polyline fill="none" points="14.518533772672527,251.34244773734827 17.521004942362197,251.2942704447196 19.878500823746435,252.64323199325008 20.39003294892609,252.54687777883373 21.7911861614557,253.19726818302297 23.414744645822793,254.54622199345613 24.104200988425873,255.6061104251421 24.526771004893817,257.3645542176673 24.61573311360553,260.7850620208483 25.616556836874224,261.2668208501709 27.595963756204583,261.2909087733424 33.80107084021438,260.2310385023302 34.77965403627604,259.8938063425303 35.22446457995102,259.2916052045184 38.58278418460395,257.34046600945294 42.29695222398732,256.37693624859094 52.371911037829705,256.5214658911282 52.75,255.5097570712678 52.1272652389016,251.12564986548387 51.52677100501023,250.08983585532405 51.57125205930788,247.12690815413953 51.34884678747039,244.79027170789777 51.059719934128225,244.38075640870375 51.126441515632905,240.38193338442943 50.52594728162512,238.33432461763732 48.7911861614557,236.81667702150298 45.922158154891804,236.04580574165448 40.67339373973664,233.70909122665762 33.53418451396283,237.20211198955076 32.13303130143322,237.58754650966148 28.641268533770926,237.44300861709053 24.88261943985708,235.34720209651277 22.324958813842386,234.57632740098052 19.74505766062066,234.57632740098052 12.472405271837488,236.19034424310667 12.25,236.62395936955 12.338962108711712,244.5252912779397 12.739291597972624,245.65747890778584 12.338962108711712,247.97002035655896 12.761532125179656,251.39062502296292" stroke="#4dd2ff" stroke-linecap="round" stroke-linejoin="round" stroke-width="0.5"><title>2022-01-11 5.6km</title></polyline><polyline fill="none" points="62.49349945830181,259.8804077904206 62.866468038992025,259.9279313959414 60.03629469126463,252.27654202119447 60.05823401955422,251.80129454433336 60.43120260024443,251.63495776441414 63.261375948088244,251.65872016671347 66.68391115928534,253.48841996319243 67.1885157097131,253.4408954225073 68.65845070430078,254.43890932644717 69.88705308781937,256.48245210939785 70.43553629470989,260.87840205733664 74.47237269789912,260.8546403244254 74.95503791992087,260.4269288373471 78.81635969667695,260.1893111030222 82.34859154932201,258.0032198524859 85.92470205854625,256.5537382551993 97.24539544968866,256.52997620837414 97.75,255.8171139996266 97.57448537379969,253.3933708749828 96.80660888412967,250.30426048100344 96.3678223186871,245.02894300187472 95.9729144097073,244.102189256344 96.19230769237038,240.51396409992594 95.79739978339057,238.75548177410383 94.87594799569342,237.75742003324558 93.09886240528431,236.78311873035273 85.72724810405634,234.12159794266336 79.21126760577317,237.4009686736681 76.99539544968866,237.90000046836212 74.34073672804516,237.75742003324558 69.57990249199793,235.40483388278517 66.46451787650585,234.85827104220516 62.80065005412325,235.19096157560125 57.688786565558985,236.73559176333947 57.688786565558985,238.8505351144413 57.40357529791072,238.70795509355958 57.25,239.1594582797843 57.35969664133154,240.60901692931657 57.77654387871735,241.48825429248973 57.82042253529653,249.06860815823893 58.23726977244951,250.89832243684214 59.18066088843625,251.4686208999192 62.076652221148834,251.42109606595477 63.327193932957016,251.7537697587104 67.75893824489322,253.72604256280465" stroke="#4dd2ff" stroke-linecap="round" stroke-linejoin="round" stroke-width="0.5"><title>2022-01-08 6.4km</title></polyline><polyline fill="none" points="104.3513107590843,250.98605768402922 105.9881212451728,251.72872738481965 107.04983615502715,251.369371286768 107.82400327688083,251.5370708479022 111.80543418880552,253.23801872253534 113.81826870562509,254.53169151672046 114.63667394849472,256.25658068529447 114.99057891860139,258.84389753086725 114.79150737298187,259.85007082519587 115.30024576734286,260.90415384279913 119.14896231563762,261.07184855788364 123.1746313489275,260.37711275491165 124.52389404689893,259.8021578807384 126.44825232110452,258.149157036969 129.3016111414181,256.83154173759976 133.15032768982928,256.3284508716024 141.84311851439998,256.63988816479105 142.24126160575543,256.61593146037194 142.75,255.82535923851538 142.39609503000975,251.44124253769405 141.7988803932676,250.1236004496168 141.84311851439998,248.03931949153775 141.40073730202857,244.90089458564762 141.02471327141393,244.20612473032088 141.0689513925463,240.03747486849898 140.64868924079929,238.45624907067395 139.78604587656446,237.52188480898621 130.62875477876514,233.92815144214546 123.32946477329824,237.35417812282685 121.64841616596095,237.71354948868975 118.19784270890523,237.37813622609247 115.58779355534352,235.79689767956734 113.26529219001532,234.91044245107332 109.92531403596513,234.6469012480229 102.86933369736653,236.13231255015125 102.38271436374635,236.65939237194834 102.25,240.42080119316233 102.64814309112262,241.6186930865224 102.4711906061275,244.20612473032088 102.82509557611775,247.39247099938802 102.4490715455031,249.52467048814287 102.89145275799092,251.51311377296224 102.78085745486896,253.23801872253534 104.21859639545437,258.5324623179331" stroke="#4dd2ff" stroke-linecap="round" stroke-linejoin="round" stroke-width="0.5"><title>2022-01-02 5.9km</title></polyline><polyline fill="none" points="150.09094616642687,251.5195145648031 152.07300163130276,251.0186043473077 158.70187601959333,254.2387281320407 159.8470636216225,256.17078725167084 159.89110929856542,260.4165068779548 160.15538336057216,260.7981419094722 164.38376835233066,260.8696984285489 167.37887438829057,260.48806348009384 173.47920065256767,257.1487387708912 176.18800978793297,256.3377547903219 187.2434747145744,256.29004978796 187.6398858076427,255.64603157778038 187.75,253.97634885675507 186.7369494290324,250.0644875340804 186.71492659044452,247.9654207896383 185.78996737359557,244.24431495679892 186.07626427407376,241.8589685310435 185.92210440454073,239.64058080720133 185.48164763464592,238.47174683923367 183.01508972269949,236.6349993418262 175.6154159869766,233.8202235022618 169.93352365412284,236.80197681154823 166.82830342580564,237.56530130616738 163.56892332795542,237.25520094422973 159.97920065256767,235.27532249942305 156.69779771612957,234.39272223765147 150.97185970644932,234.60740900613018 150.0248776510125,235.13219829378068 148.19698205555324,234.79824157140683 147.6464110929519,235.39459262313903 147.25,237.44603197084507 147.66843393142335,244.60211542647448 147.99877650896087,245.27000859371037 147.77854812401347,250.5653992065345 149.32014681899454,251.4002502966032 152.99796084838454,251.5195145648031 158.70187601959333,254.2387281320407 159.7809951059753,256.003819628153 160.02324632951058,260.63117663771845 161.10236541600898,261.13207219849573 163.98735725937877,261.1797764977382 164.97838499199133,260.8935505980917 164.95636215340346,260.5119156774017 167.09257748781238,260.65502882463625 169.338907014695,260.0110191712156 174.40415986953303,256.88636181977927 178.5444535074057,256.3377547903219 187.00122349103913,256.4808697558765 187.75,255.956114577275 187.72797716152854,254.07175952655962 187.19942903751507,251.2571331175568 186.69290375197306,250.42228166380664 186.53874388255645,246.51037801531493 185.9441272430122,244.29202170865028 186.20840130501892,243.62412655269145 186.01019575854298,239.47360478076735 185.5477161500603,238.32862402667524 184.55668841768056,237.32676259224536 175.85766721039545,233.89178589871153 168.78833605221007,237.2313470581139 166.78425774886273,237.77998600064893 162.97430668852758,237.35061647143448 160.04526916798204,235.5138627035194 157.33646003261674,234.75053344052867" stroke="#4dd2ff" stroke-linecap="round" stroke-linejoin="round" stroke-width="0.5"><title>2021-12-31 10.1km</title></polyline></svg>