<?xml version="1.0" encoding="utf-8" ?>
<svg baseProfile="full" height="300mm" version="1.1" viewBox="0,0,200,300" width="200mm" xmlns="http://www.w3.org/2000/svg" xmlns:ev="http://www.w3.org/2001/xml-events" xmlns:xlink="http://www.w3.org/1999/xlink"><defs /><rect fill="#222222" height="300" width="200" x="0" y="0" /><text fill="#FFFFFF" style="font-size:12px; font-family:Arial; font-weight:bold;" x="10" y="20">Over 5km Runs</text><text fill="#FFFFFF" style="font-size:4px; font-family:Arial" x="10" y="280">ATHLETE</text><text fill="#FFFFFF" style="font-size:9px; font-family:Arial" x="10" y="290">ufiv</text><text fill="#FFFFFF" style="font-size:4px; font-family:Arial" x="120" y="280">STATISTICS</text><text fill="#FFFFFF" style="font-size:3px; font-family:Arial" x="120" y="285">Number: 6</text><text fill="#FFFFFF" style="font-size:3px; font-family:Arial" x="120" y="290">Weekly: 1.2</text><text fill="#FFFFFF" style="font-size:3px; font-family:Arial" x="141" y="285">Total: 44.8 km</text><text fill="#FFFFFF" style="font-size:3px; font-family:Arial" x="141" y="290">Avg: 7.5 km</text><text fill="#FFFFFF" style="font-size:3px; font-family:Arial" x="167" y="285">Min: 5.6 km</text><text fill="#FFFFFF" style="font-size:3px; font-family:Arial" x="167" y="290">Max: 11.2 km</text><polyline fill="none" points="18.37438423628919,74.37561662931694 17.38916256162338,75.22929117974127 20.660098522203043,75.82686262740754 32.75862068962306,81.16229505511001 34.96551724127494,84.27816519443877 35.83251231536269,93.45494705525925 47.1822660099715,94.60737000213703 60.8177339900285,86.96719053108245 64.28571428568102,85.94280137692112 68.8177339900285,85.47328908473719 85.21182265994139,86.02816720795818 86.0,84.74767844105372 85.17241379315965,78.17445886175847 83.59605911350809,74.46098414005246 84.14778325124644,72.32679264975013 83.99014778318815,68.22912326594815 82.92610837426037,64.04605630325386 82.68965517240576,54.82613011467038 81.27093596057966,52.47844061936485 78.43349753692746,50.514911293867044 73.90147783257999,49.36240189516684 64.79802955663763,45.39262999786297 61.921182265970856,46.24634664785117 57.62561576371081,48.93554598861374 51.79310344834812,51.539362195297144 48.522167487768456,52.22232847084524 42.17733990144916,51.539362195297144 35.20197044312954,47.740347800950985 32.088669950608164,47.01469057245413 27.39901477843523,46.843947564892005 23.37931034481153,47.484233587398194 19.517241379246116,48.89286038093269 14.906403940869495,49.44777303922456 14.0,51.92353082296904 14.275862069102004,64.3448477878701 14.906403940869495,66.43638392729918 14.078817734029144,71.1316420303774 14.275862069102004,76.2536990037188" stroke="#4dd2ff" stroke-linecap="round" stroke-linejoin="round" stroke-width="0.5"><title>2022-01-18 5.6km</title></polyline><polyline fill="none" points="120.37236913084053,76.29221834853524 123.8305450619664,76.03971025772626 128.26011872617528,78.27019458659925 131.7960064758081,78.9014621777751 134.32164058252238,80.66900777522824 136.38100377749652,84.03574638211285 135.75930922827683,86.81329101067968 136.53642741474323,92.49459084146656 137.8575283321552,92.8733421836223 144.46303291944787,93.21000983554404 151.41824069060385,91.65292030607816 153.0113329733722,90.30624490758055 154.17701025353745,90.39041221162188 155.42039935220964,89.21206884249114 158.25688073365018,88.15997452437296 160.70480302185751,86.39245177101111 160.70480302185751,85.67702436231775 164.66810577409342,84.87742797817918 184.79546681046486,84.87742797817918 185.4948731784243,83.95157815521816 185.41716135991737,81.21610412959126 184.44576362636872,75.95554086976335 183.31894225557335,73.59879304195056 183.6297895302996,68.25399013340939 182.50296815950423,63.32999422238208 182.73610361549072,57.43797831705888 181.99784133816138,53.650222169671906 180.40474905539304,51.63007543349522 177.41284403647296,49.94661443971563 164.1629789529834,45.317071486177156 158.56772800860927,47.421413777949056 152.31192660541274,50.74625902166008 149.24230976798572,51.587988968298305 142.67566109006293,51.377556596300565 133.97193739865907,47.21097989278496 129.30922827823088,46.537590946332784 115.08796546119265,49.35740193637321 114.46627091197297,52.00885348304291 115.20453318930231,61.141538165305974 114.89368591480888,64.76090332958847 115.51538046402857,66.02346725476673 115.04910955182277,67.07560175773688 115.28224500780925,75.576778472343 116.44792228820734,76.58681098205852 118.19643820822239,75.95554086976335 120.13923367485404,76.58681098205852 122.43173232581466,76.16596431686776 124.76308688591234,76.58681098205852 132.4177010252606,80.16399529739283 134.63248785748146,82.0157055646705 135.87587695615366,84.66700769372983 136.8472746894695,92.99959257603041 140.92714516981505,93.1258429409645 142.63680518069305,94.68292851379374 144.92930383142084,92.78917524009012 151.37938478123397,91.61083674724796 161.5984889366664,85.92952825446264 164.82352941157296,85.08784818623099 184.7177549917251,84.91951202583732 185.57258499716409,83.99366227016435 185.22288181306794,78.31227911400492 186.0,77.47058798413491 183.97949271439575,74.44048979488434 184.25148407975212,70.44241933108424 182.65839179698378,63.62459344501258 182.69724770635366,56.55417076393496 182.11440906627104,53.650222169671906 179.08364813798107,50.87251859161188 164.47382622747682,45.35915840693633 154.37128980015405,50.03078760561766 148.11548839719035,52.00885348304291 142.5202374525834,51.29338362606359 134.43820831063204,47.29515345604159 130.7857528331224,46.49550411122618 128.4932541823946,46.369243587512756 115.59309228276834,48.89444883482065 114.66055045858957,49.73618147167144 115.01025364245288,51.63007543349522 114.0,53.734394797473215 115.2433890986722,65.77095468979678 115.16567727993242,75.66094791537034" stroke="#4dd2ff" stroke-linecap="round" stroke-linejoin="round" stroke-width="0.5"><title>2022-01-15 11.2km</title></polyline><polyline fill="none" points="18.032948929350823,156.83101819973672 23.37067545298487,156.74536967952736 27.561779242241755,159.14352354354924 28.471169687109068,158.97222716239048 30.962108731502667,160.12847676983802 33.84843492601067,162.52661687723594 35.074135090690106,164.41086297802394 35.825370675418526,167.53698527585948 35.98352553555742,173.61788803711534 37.76276771002449,174.47434817813337 41.28171334438957,174.51717115257634 52.313014826970175,172.63295733754057 54.052718286868185,172.03343349782517 54.84349258663133,170.96285369695397 60.813838550355285,167.4941617946024 67.41680395393632,165.78121999755967 85.3278418451082,166.03816158423433 86.0,164.23956812673714 84.8929159801919,156.4455997608602 83.82537067565136,154.60415263171308 83.90444810548797,149.33672560739797 83.5090609556064,145.18270525848493 82.99505766062066,144.45467805990484 83.11367380572483,137.34565935010323 82.04612850071862,133.70546598691726 78.9621087317355,131.00742581603117 73.8616144976113,129.63698798516998 64.53047775966115,125.48282884742366 51.83855024725199,131.69264353701146 49.34761120262556,132.37786046165274 43.14003294892609,132.12090420821914 36.45799011550844,128.39502594940132 31.911037891171873,127.02458204620052 27.324546952266246,127.02458204620052 14.395387149881572,129.89394532109145 14.0,130.66481665696483 14.158154859906062,144.71162893855944 14.86985172983259,146.72440694714896 14.158154859906062,150.83559174498077 14.909390444867313,156.91666670754785" stroke="#4dd2ff" stroke-linecap="round" stroke-linejoin="round" stroke-width="0.5"><title>2022-01-11 5.6km</title></polyline><polyline fill="none" points="123.32177681475878,172.009613849601 123.9848320693709,172.09410025944817 118.95341278449632,158.49163025990129 118.99241603468545,157.6467458565894 119.65547128929757,157.35103602558956 124.68689057417214,157.39328029635362 130.7713976164814,160.64607993455138 131.66847237269394,160.56159186220611 134.2816901409533,162.3358388025663 136.4658721559681,165.96880375003093 137.4409534127917,173.78382587971282 144.6175514627248,173.7415827989753 145.4756229687482,172.98120682191802 152.34019501623698,172.55877529422287 158.61971830995753,168.67239084886387 164.97724810405634,166.09553467590013 185.1029252440203,166.05329103706754 186.0,164.78598044373211 185.6879739977885,160.47710377772455 184.32286023837514,154.98535196622834 183.54279523296282,145.60700978108798 182.84073672816157,143.9594475668273 183.23076923075132,137.5803806220647 182.52871072595008,134.45418982062256 180.89057421451434,132.67985783686163 177.73131094267592,130.94776663172524 164.62621885165572,126.21617412028718 153.04225352127105,132.04616653098492 149.10292524378747,132.93333416598034 144.38353196089156,132.67985783686163 135.91982665238902,128.49748245827504 130.38136511365883,127.52581518611987 123.86782231857069,128.1172650232911 114.78006500541233,130.86327424590127 114.78006500541233,134.6231735367619 114.27302275178954,134.36969794411561 114.0,135.1723702751624 114.19501625117846,137.74936342987348 114.93607800640166,139.3124520755373 115.01408450701274,152.78863672574516 115.75514626223594,156.04146210991894 117.4322860238608,157.05532604429754 122.58071505976841,156.97083745055716 124.80390032520518,157.56225734879263 132.68255687970668,161.068520111643" stroke="#4dd2ff" stroke-linecap="round" stroke-linejoin="round" stroke-width="0.5"><title>2022-01-08 6.4km</title></polyline><polyline fill="none" points="17.73566357162781,236.1974358826992 20.64554888033308,237.51773757307092 22.533042053459212,236.87888228759402 23.909339158795774,237.1770148407668 30.98743855790235,240.2009221733897 34.56581103219651,242.50078491860768 36.02075368631631,245.56725455168635 36.649918077513576,250.16692894377047 36.29601310752332,251.95568146707956 37.200436919694766,253.82960683165584 44.042599672218785,254.12773076957092 51.199344620341435,252.89264489762718 53.598033861257136,251.87050289910985 57.019115237519145,248.93183473241515 62.09175314032473,246.58940753352363 68.93391589308158,245.69502377172466 84.38776624784805,246.24869007075904 85.09557618806139,246.20610037399456 86.0,244.80063864629483 85.37083560880274,237.00665340037085 84.3091206990648,234.6641785770771 84.38776624784805,230.9587902071653 83.6013107590843,225.37936815223657 82.93282359372824,224.14422174281208 83.01146914251149,216.73328865517396 82.26433642813936,213.9222205700935 80.73074822500348,212.26112854928942 64.4511196068488,205.8722692304873 51.474604041548446,211.96298332948936 48.4860731838271,212.6018657576642 42.35172037128359,212.00557551305974 37.711632987251505,209.19448476372054 33.58274167100899,207.61856435751542 27.645002730656415,207.15004666318418 15.101037684129551,209.79077786690323 14.235936646582559,210.72780866123503 14.0,217.41475767677184 14.707809939747676,219.5443432649481 14.393227744149044,224.14422174281208 15.022392135346308,229.80883733229712 14.353904969757423,233.5994142011623 15.140360458754003,237.1344244852662 14.943746586563066,240.2009221733897 17.499726925278082,249.61326634301804" stroke="#4dd2ff" stroke-linecap="round" stroke-linejoin="round" stroke-width="0.5"><title>2022-01-02 5.9km</title></polyline><polyline fill="none" points="119.05057096248493,237.14580367074814 122.57422512234189,236.25529661745531 134.358890701551,241.97996112363762 136.3947797715664,245.4147328918625 136.47308319737203,252.96267889416777 136.94290375197306,253.64114117244026 144.46003262652084,253.76835276189377 149.7846655792091,253.0898906312941 160.62969004898332,247.15331337050884 165.44535073405132,245.7115640716802 185.09951060358435,245.62675517861499 185.8042414356023,244.48183391607017 186.0,241.5135090786789 184.1990212071687,234.55908894946333 184.15986949414946,230.82741473717033 182.51549755292945,224.2121154787601 183.0244698205497,219.97149961072137 182.75040783034638,216.0276992128347 181.96737357252277,213.94977215863764 177.5823817292694,210.68444327439647 164.42740619904362,205.68039733733167 154.32626427407376,210.9812921094126 148.8058727569878,212.33831343322527 143.01141924969852,211.78702390086255 136.62969004898332,208.26723999896785 130.7960848286748,206.69817286694888 120.61663947813213,207.0798382331559 118.93311582389288,208.01279696676647 115.68352365423925,207.41909612697782 114.70473083201796,208.47927577450173 114.0,212.12627905930276 114.74388254480436,224.84820520266658 115.33115823823027,226.03557083327905 114.93964110920206,235.4495985894173 117.68026101146825,236.93377830504323 124.2185970635619,237.14580367074814 134.358890701551,241.97996112363762 136.2773246327415,245.11790156117058 136.70799347478896,253.34431402263 138.62642740621231,254.23479501955444 143.75530179450288,254.31960266263923 145.51712887454778,253.81075661885552 145.47797716152854,253.13229453758686 149.27569331158884,253.3867179105 153.26916802604683,252.2418118599453 162.27406199020334,246.68686545739183 169.63458401313983,245.7115640716802 184.66884176176973,245.96599067712668 186.0,245.03309258181253 185.96084828698076,241.68312804721063 185.0212071777787,236.67934776455513 184.12071778136306,235.1951674023585 183.84665579115972,228.24067202719743 182.78955954313278,224.29692748203524 183.2593800977338,223.10955831591855 182.90701468195766,215.73085294358316 182.08482871134765,213.6953316029685 180.32300163130276,211.91424460842973 164.8580750406254,205.80761937546777 152.29037520405836,211.74461699221865 148.72756933118217,212.719975112268 141.9543230019044,211.9566515047627 136.74714518757537,208.69131147296866 131.93148450227454,207.3342816720251" stroke="#4dd2ff" stroke-linecap="round" stroke-linejoin="round" stroke-width="0.5"><title>2021-12-31 10.1km</title></polyline></svg>