<?xml version="1.0" encoding="utf-8" ?>
<svg baseProfile="full" height="300mm" version="1.1" viewBox="0,0,200,300" width="200mm" xmlns="http://www.w3.org/2000/svg" xmlns:ev="http://www.w3.org/2001/xml-events" xmlns:xlink="http://www.w3.org/1999/xlink"><defs /><rect fill="#222222" height="300" width="200" x="0" y="0" /><text fill="#FFFFFF" style="font-size:12px; font-family:Arial; font-weight:bold;" x="10" y="20">Over 5km Runs</text><text fill="#FFFFFF" style="font-size:4px; font-family:Arial" x="10" y="280">ATHLETE</text><text fill="#FFFFFF" style="font-size:9px; font-family:Arial" x="10" y="290">ufiv</text><text fill="#FFFFFF" style="font-size:4px; font-family:Arial" x="120" y="280">STATISTICS</text><text fill="#FFFFFF" style="font-size:3px; font-family:Arial" x="120" y="285">Number: 10</text><text fill="#FFFFFF" style="font-size:3px; font-family:Arial" x="120" y="290">Weekly: 1.4</text><text fill="#FFFFFF" style="font-size:3px; font-family:Arial" x="141" y="285">Total: 69.3 km</text><text fill="#FFFFFF" style="font-size:3px; font-family:Arial" x="141" y="290">Avg: 6.9 km</text><text fill="#FFFFFF" style="font-size:3px; font-family:Arial" x="167" y="285">Min: 5.3 km</text><text fill="#FFFFFF" style="font-size:3px; font-family:Arial" x="167" y="290">Max: 11.2 km</text><polyline fill="none" points="16.19386637455318,65.97405751908082 19.683461117208935,65.42954418910085 24.592552026268095,67.2232326187077 27.993428258458152,69.33721319001052 29.02847754652612,70.55434892338235 29.353778751334175,72.21989764273167 29.353778751334175,77.88912211541901 31.54216867464129,78.4015907937137 35.800657174084336,78.43362006629468 40.91675794089679,77.40868218889227 51.681270536617376,72.05974900076399 66.29025191674009,71.99568952756817 66.9704271631781,71.32306449834141 67.0,68.69661408668617 66.70427163189743,65.42954418910085 65.84665936464444,63.28351452003699 65.72836801747326,56.7492703369644 65.13691128138453,55.72428207384655 65.4326396494871,52.32899143768009 65.04819277103525,48.29304592424887 62.50492880609818,45.79458495366271 52.302300109528005,41.47029212972848 47.895947425975464,42.81563221910619 42.21796276012901,45.826616594189545 38.87623220146634,46.69147000761586 35.88937568466645,46.33912252535811 27.756845563999377,42.36718597862637 23.320920043741353,42.0788988689892 14.77437020803336,44.09690467870678 13.650602409616113,45.025824884156464 13.0,47.23600647188141 13.443592552095652,56.10865295163239 13.887185104074888,57.4859791797935 13.354874041629955,60.65701623825589 13.561883899150416,64.56472751873662 15.040525739314035,65.33345353166806 20.363636363646947,65.17330238947761 26.75136911275331,68.31225417819223 28.644030668074265,69.75360210821964 29.02847754652612,70.55434892338235 29.412924424861558,73.02063998111407 29.176341730519198,77.40868218889227 29.97480832412839,77.85709280328592 33.405257393140346,78.17738582025049 32.01533406355884,78.52970787027152 29.88608981377911,78.20941510912962 29.1467688936973,77.02432987096836 28.910186199238524,70.90667706145905 28.05257393210195,69.75360210821964 22.433734939666465,66.51857017687871 19.32858707557898,65.42954418910085 18.352683461038396,65.62172544116038 17.140197152271867,65.17330238947761 14.035049288067967,65.4615744035691 13.62102957291063,66.67872083067778 15.158817086485215,73.05266964432667 16.696604600176215,77.12041798181599" stroke="#4dd2ff" stroke-linecap="round" stroke-linejoin="round" stroke-width="0.5"><title>2022-02-11 8.0km</title></polyline><polyline fill="none" points="75.8701369863702,65.8491153724899 76.25479452055879,65.43249475650373 78.14849315071478,65.6888767205819 79.95342465757858,65.30430371855618 88.26794520555995,69.53458830993623 89.39232876710594,72.03428287428687 89.36273972608615,77.83480161908665 95.66520547948312,77.99503586161882 98.7128767123213,77.45023919970845 102.2635616438929,76.39269081878592 104.18684931506868,74.79033995931968 108.68438356171828,72.54703898387379 111.85041095886845,71.58562078984687 126.3490410958184,71.64971540123224 127.0,70.59215312259039 126.79287671239581,64.88768258833443 125.9347945204936,62.99685866944492 125.4317808218766,57.356386648025364 124.78082191781141,55.33733652767842 124.78082191781141,48.70324965901091 123.98191780829802,47.19694550955319 122.26575342472643,45.97907882073196 111.05150684935506,42.00496413838118 101.4942465753993,46.42776693921769 98.83123287686612,47.004650992690586 96.37534246582072,47.036700084630866 94.83671232883353,46.55596346076345 87.61698630149476,43.030545547720976 83.74082191777416,42.54980455891928 79.74630136985797,43.19079242760199 78.32602739729919,44.02407526469324 75.89972602738999,43.06259492831305 75.2487671233248,43.22284179663984 73.0,45.62653783604037 73.56219178077299,56.90770964184776" stroke="#4dd2ff" stroke-linecap="round" stroke-linejoin="round" stroke-width="0.5"><title>2022-02-09 5.3km</title></polyline><polyline fill="none" points="142.08852459024638,66.18470728534157 148.66885245894082,70.24362832063343 149.61311475397088,73.91899696728797 149.93770491797477,77.9778466844291 154.59999999997672,78.13764315171284 160.70819672127254,77.27474153944058 167.43606557382736,73.5035220500431 173.10163934424054,71.87357820317266 186.29180327872746,72.03337688639294 187.0,71.01066431135405 186.32131147535983,64.8104184527183 185.6131147540873,63.18044241372263 185.2885245900834,58.1626351432642 184.60983606544323,55.8614559865382 184.78688524581958,52.18593654167489 184.28524590155575,48.382540622522356 181.7180327869719,45.9215022160497 170.85901639354415,41.86235684828716 161.20983606553636,46.40092636179179 158.46557377045974,46.94427309540333 154.21639344259165,46.464849541691365 149.22950819670223,43.7481062040024 146.39672131161205,42.91709900932619 143.53442622942384,42.82121346279746 137.39672131161205,43.7481062040024 133.53114754101261,45.02657574650948 133.0,49.597073984507006 133.47213114763144,51.96220827996149 133.61967213114258,65.48158330243314" stroke="#4dd2ff" stroke-linecap="round" stroke-linejoin="round" stroke-width="0.5"><title>2022-02-05 5.3km</title></polyline><polyline fill="none" points="15.490939044510014,124.7539039979747 16.55848434928339,125.13932217101683 19.10873146634549,124.78602219186723 23.645799011574127,127.13064404815668 24.98023064248264,127.2591161194432 28.74629324558191,129.92490317934426 29.66556836909149,132.301615444856 29.576606260379776,137.69734723938745 30.525535420165397,138.05063690652605 33.96540362446103,137.9864024425624 34.82537067553494,138.46816069469787 35.77429983532056,137.9221679692273 39.18451400322374,137.44040912252967 41.64579901157413,136.44477250991622 45.29324546956923,134.10020002236706 51.81713344331365,131.85196815789095 66.02141680405475,132.04467419395223 67.0,131.17749637030647 66.34761120274197,124.88237675963319 65.54695222410373,123.34070115690702 65.90280065895058,121.70266494105454 65.5172981879441,117.33453870654921 64.68698517302983,115.47164821907063 64.68698517302983,109.04782773379702 64.03459637565538,107.24914127608645 62.96705107088201,106.34979530380224 50.83855024725199,101.53183930533123 48.55518945644144,102.23847613681573 41.112026359303854,105.99648031420656 36.84184514009394,106.67099050388788 34.380560131859966,106.28555623569991 29.369028006563894,103.45902800411568 26.759472817066126,102.5917941291118 22.518945634365082,102.5917941291118 15.876441515632905,104.06930267432472 13.563426688546315,105.19349065163988 13.0,106.02859987036209 13.266886326251552,124.1115396299574 13.741350906086154,125.20355850050692 13.800658978754655,129.25042845340795 14.9275123559637,131.7556151082972 14.897858319571242,133.5220843484858 15.490939044510014,135.1279593547224" stroke="#4dd2ff" stroke-linecap="round" stroke-linejoin="round" stroke-width="0.5"><title>2022-01-20 5.9km</title></polyline><polyline fill="none" points="76.2807881772751,123.28171247197315 75.54187192115933,123.9219683847914 77.99507389171049,124.37014697055565 87.0689655172173,128.3717212913034 88.72413793101441,130.70862389579997 89.37438423652202,137.5912102914299 97.88669950747862,138.45552750161733 108.11330049252138,132.72539289831184 110.71428571431898,131.95710103269084 114.11330049263779,131.6049668135238 126.40886699501425,132.02112540596863 127.0,131.06075883080484 126.37931034481153,126.1308441463334 125.19704433507286,123.34573810503935 125.61083743849304,121.74509448729805 125.49261083744932,118.671842449432 124.69458128081169,115.53454222745495 124.51724137924612,108.61959758598823 123.45320197043475,106.85883046453819 121.3251231526956,105.38618347040028 117.9261083744932,104.52180142136058 111.09852216753643,101.54447249838267 108.94088669947814,102.18475998588838 105.7192118227249,104.2016594914603 101.3448275863193,106.15452164647286 98.89162561588455,106.66674635311938 94.13300492602866,106.15452164647286 88.90147783246357,103.30526085072779 86.56650246307254,102.76101792935515 83.04926108382642,102.63296067365445 80.03448275860865,103.11317519051954 77.137931034551,104.16964528567041 73.67980295571033,104.58582977941842 73.0,106.44264811722678 73.2068965517683,115.75863584090257 73.67980295571033,117.32728794548893 73.05911330052186,120.8487315227685 73.2068965517683,124.6902742527891" stroke="#4dd2ff" stroke-linecap="round" stroke-linejoin="round" stroke-width="0.5"><title>2022-01-18 5.6km</title></polyline><polyline fill="none" points="137.7792768481886,124.71916376141598 140.372908796533,124.52978269330924 143.69508904474787,126.20264593997854 146.34700485691428,126.6760966333386 148.24123043695,128.001755831443 149.7857528331224,130.5268097865919 149.31948192114942,132.60996825803886 149.90232056111563,136.87094313112902 150.8931462492328,137.15500663773855 155.84727468970232,137.40750737668714 161.0636805180693,136.23969022958772 162.25849973014556,135.2296836806927 163.13275769015308,135.29280915873824 164.06529951433185,134.40905163186835 166.19266055035405,133.61998089330154 168.02860226656776,132.29433882827288 168.02860226656776,131.75776827175287 171.00107933068648,131.15807098365622 186.09660010784864,131.15807098365622 186.62115488387644,130.46368361642817 186.56287101993803,128.41207809722982 185.83432271995116,124.46665565232979 184.98920669185463,122.69909478147747 185.2223421477247,118.69049260008615 184.37722611962818,114.99749566681567 184.55207771167625,110.57848373780143 183.99838100373745,107.73766662727576 182.80356179154478,106.22255657514324 180.55963302741293,104.95996082978672 170.62223421479575,101.48780361464014 166.42579600645695,103.06606033348362 161.73394495411776,105.55969426626689 159.4317323260475,106.19099172623828 154.5067458176054,106.03316744722542 147.9789530490525,102.908234919596 144.48192120878957,102.40319320975686 133.8159740960691,104.51805145229446 133.34970318397973,106.50664011231856 133.90339989203494,113.35615362401586 133.67026443604846,116.07067749719135 134.13653534802143,117.0176004410896 133.78683216392528,117.80670131833176 133.96168375597335,124.1825838542718 134.8359417162137,124.94010823656572 136.1473286561668,124.46665565232979 137.60442525625695,124.94010823656572 139.323799244361,124.62447323766537 141.07231516449247,124.94010823656572 146.81327576900367,127.62299647307373 148.4743658930529,129.01177917353925 149.40690771711525,131.00025577031192 150.13545601721853,137.24969443204463 153.1953588774195,137.3443822057452 154.47760388546158,138.51219638535986 156.19697787368204,137.0918814300967 161.03453858592547,136.20812756047235 168.69886670261621,131.94714619085426 171.11764705879614,131.31588613969507 186.03831624379382,131.18963401939254 186.67943874793127,130.49524670265964 186.41716135980096,126.23420933552552 187.0,125.60294098811573 185.48461953585502,123.33036734617781 185.6886130598141,120.33181449832045 184.49379384773783,115.21844508379581 184.52293577976525,109.91562807298033 184.0858067998197,107.73766662727576 181.812736103544,105.65438894371619 170.85536967078224,101.51936880522408 163.27846735017374,105.0230907042278 158.58661629795097,106.50664011231856 154.39017808949575,105.97003771955497 148.32865623303223,102.9713650920603 145.58931462478358,102.37162808343419 143.86994063679595,102.27693269064184 134.19481921207625,104.17083662614459 133.49541284400038,104.80213610376813 133.75769023201428,106.22255657514324 133.0,107.80079609813401 133.93254182406235,116.82821601736941 133.87425796000753,124.24571093654959" stroke="#4dd2ff" stroke-linecap="round" stroke-linejoin="round" stroke-width="0.5"><title>2022-01-15 11.2km</title></polyline><polyline fill="none" points="16.024711696896702,185.123263649788 20.028006589855067,185.05902725964552 23.171334431739524,186.85764265764738 23.853377265273593,186.7291703718074 25.721581548568793,187.59635757736396 27.886326194391586,189.3949626579415 28.805601317901164,190.8081472335034 29.369028006563894,193.15273895690916 29.48764415155165,197.7134160278074 30.82207578246016,198.35576113360003 33.46128500823397,198.3878783644468 41.73476112028584,196.97471800312633 43.03953871503472,196.52507512338343 43.632619439973496,195.72214027270093 48.110378912766464,193.12062134596636 53.062602965394035,191.83591499814065 66.49588138388935,192.0286211881612 67.0,190.67967609505286 66.16968698520213,184.83419982067426 65.36902800679673,183.4531144737848 65.42833607911598,179.50254420551937 65.1317957167048,176.3870289438637 64.74629324558191,175.84100854492863 64.83525535429362,170.50924451259198 64.03459637553897,167.7790994901734 61.72158154868521,165.75556936202338 57.89621087315027,164.72774098886293 50.89785831968766,161.6121216355823 41.37891268543899,166.26948265277315 39.510708402027376,166.783395346225 34.85502471169457,166.5906781561498 29.843492586514913,163.79626946203643 26.433278418378904,162.7684365346504 22.993410214199685,162.7684365346504 13.296540362411179,164.9204589908477 13.0,165.49861249275273 13.118616144987755,176.03372170391958 13.652388797258027,177.54330521039083 13.118616144987755,180.62669380876468 13.682042833650485,185.18750003064633" stroke="#4dd2ff" stroke-linecap="round" stroke-linejoin="round" stroke-width="0.5"><title>2022-01-11 5.6km</title></polyline><polyline fill="none" points="79.99133261106908,196.50721038720803 80.48862405202817,196.57057519457885 76.71505958831403,186.36872269492596 76.74431202595588,185.73505939246388 77.24160346691497,185.51327701919945 81.01516793074552,185.54496022229432 85.57854821230285,187.98455995091354 86.25135427957866,187.9211938966764 88.21126760565676,189.25187910191016 89.84940411709249,191.97660281253047 90.580715059652,197.8378694097919 95.96316359716002,197.8061870992242 96.60671722656116,197.23590511645307 101.75514626223594,196.91908147066715 106.46478873246815,194.0042931366479 111.23293607798405,192.07165100693237 126.32719393295702,192.03996827782248 127.0,191.08948533280636 126.76598049839959,187.8578278333007 125.74214517872315,183.73901397467125 125.15709642483853,176.70525733582326 124.6305525462376,175.46958567513502 124.9230769231217,170.68528546654852 124.39653304452077,168.34064236548147 123.16793066088576,167.00989337766077 120.79848320712335,165.71082497379393 110.96966413874179,162.1621305902372 102.28169014095329,166.53462489822414 99.3271939328406,167.20000062449253 95.78764897072688,167.00989337766077 89.43986998929176,163.87311184371356 85.28602383530233,163.14436138959718 80.40086673886981,163.58794876746833 73.58504875411745,165.64745568443323 73.58504875411745,168.4673801525787 73.20476706384216,168.27727345807943 73.0,168.87927770637907 73.14626218844205,170.8120225724124 73.70205850491766,171.98433905665297 73.76056338031776,182.09147754430887 74.31635969656054,184.53109658244648 75.57421451783739,185.291494533245 79.43553629470989,185.2281280879106 81.10292524390388,185.67169301159447 87.01191765989643,188.30139008373953" stroke="#4dd2ff" stroke-linecap="round" stroke-linejoin="round" stroke-width="0.5"><title>2022-01-08 6.4km</title></polyline><polyline fill="none" points="135.80174767889548,184.64807691203896 137.98416166030802,185.63830317975953 139.39978154026903,185.15916171568097 140.43200436921325,185.382761130546 145.7405789186014,187.65069163005683 148.4243582742056,189.3755886889412 149.51556526485365,191.67544091373566 149.9874385582516,195.1251967078133 149.7220098307589,196.46676110028056 150.40032768982928,197.87220512374188 155.5319497543387,198.0957980771782 160.89950846531428,197.16948367320583 162.69852539594285,196.40287717434694 165.26433642825577,194.19887604928226 169.06881485541817,192.44205565014272 174.20043691981118,191.7712678287935 185.79082468606066,192.18651755305473 186.32168214104604,192.15457528049592 187.0,191.10047898470657 186.52812670671847,185.25499005027814 185.73184052447323,183.49813393282238 185.79082468606066,180.71909265537397 185.20098306948785,176.53452611417742 184.69961769529618,175.6081663070654 184.75860185688362,170.04996649135137 184.19825232122093,167.94166542755556 183.04806116886903,166.69584641198162 170.8383397051366,161.90420192285092 161.10595303121954,166.47223749707337 158.86455488798674,166.9513993182627 154.2637902785791,166.50418163478025 150.78372474049684,164.39586357277585 147.68705625343136,163.21392326810746 143.23375204810873,162.8625349973736 133.8257782632718,164.84308340019197 133.17695248511154,165.54585649594082 133.0,170.56106825754978 133.53085745498538,172.15825744869653 133.2949208082864,175.6081663070654 133.76679410168435,179.85662799919373 133.2654287274927,182.69956065085717 133.85527034418192,185.35081836394966 133.7078099399805,187.65069163005683 135.62479519401677,194.70994975723443" stroke="#4dd2ff" stroke-linecap="round" stroke-linejoin="round" stroke-width="0.5"><title>2022-01-02 5.9km</title></polyline><polyline fill="none" points="16.78792822198011,245.3593527530902 19.430668841814622,244.69147246310604 28.269168026163243,248.98497084275004 29.79608482879121,251.56104966890416 29.854812398087233,257.2220091706549 30.207177814096212,257.73085587934474 35.84502446989063,257.8262645714567 39.83849918434862,257.31741797347786 47.97226753667928,252.86498502790346 51.58401305053849,251.78367305378197 66.32463295268826,251.7200663839758 66.85318107681815,250.8613754370599 67.0,248.63513180901646 65.64926590537652,243.4193167121266 65.6199021206703,240.62056105289957 64.38662316475529,235.65908660908462 64.76835236547049,232.4786247080774 64.56280587275978,229.52077440964058 63.97553017945029,227.96232911900734 60.68678629701026,225.51333245582646 50.820554649224505,221.76029800303513 43.244698205497116,225.735969082074 39.10440456774086,226.75373507494805 34.758564437157474,226.34026792566874 29.972267536679283,223.70042999926955 25.59706362162251,222.52362965024076 17.962479608599097,222.80987867488875 16.699836867977865,223.5095977250894 14.262642740737647,223.06432209524792 13.528548124013469,223.85945683089085 13.0,226.5947092944989 13.557911908603273,236.13615390201448 13.998368678614497,237.02667812496657 13.704730832017958,244.0871989420848 15.760195758542977,245.20033372880425 20.663947797729634,245.3593527530902 28.269168026163243,248.98497084275004 29.70799347467255,251.33842617089977 30.030995106091723,257.50823551698704 31.46982055460103,258.1760962646804 35.31647634587716,258.239701996994 36.637846655910835,257.85806746414164 36.608482871204615,257.349220903212 39.45676998374984,257.54003843289684 42.45187601959333,256.6813588949735 49.20554649271071,252.51514909305843 54.725938009796664,251.78367305378197 66.0016313213855,251.97449300787412 67.0,251.27481943639577 66.97063621529378,248.76234603542252 66.26590538339224,245.00951082343818 65.59053833596408,243.8963755517907 65.38499184336979,238.6805040204199 64.59216965734959,235.7226956115628 64.94453507335857,234.83216873696074 64.68026101146825,229.2981397077092 64.06362153345253,227.77149870226276 62.74225122353528,226.43568345636595 51.143556280527264,221.85571453161538 41.717781402985565,226.30846274417127 39.04567699844483,227.03998133423738 33.9657422513701,226.4674886286084 30.060358890681528,224.01848360474105 26.448613376822323,223.00071125404793" stroke="#4dd2ff" stroke-linecap="round" stroke-linejoin="round" stroke-width="0.5"><title>2021-12-31 10.1km</title></polyline></svg>