<?xml version="1.0" encoding="utf-8" ?>
<svg baseProfile="full" height="300mm" version="1.1" viewBox="0,0,200,300" width="200mm" xmlns="http://www.w3.org/2000/svg" xmlns:ev="http://www.w3.org/2001/xml-events" xmlns:xlink="http://www.w3.org/1999/xlink"><defs /><rect fill="#222222" height="300" width="200" x="0" y="0" /><text fill="#FFFFFF" style="font-size:12px; font-family:Arial; font-weight:bold;" x="10" y="20">Over 5km Runs</text><text fill="#FFFFFF" style="font-size:4px; font-family:Arial" x="10" y="280">ATHLETE</text><text fill="#FFFFFF" style="font-size:9px; font-family:Arial" x="10" y="290">ufiv</text><text fill="#FFFFFF" style="font-size:4px; font-family:Arial" x="120" y="280">STATISTICS</text><text fill="#FFFFFF" style="font-size:3px; font-family:Arial" x="120" y="285">Number: 9</text><text fill="#FFFFFF" style="font-size:3px; font-family:Arial" x="120" y="290">Weekly: 1.3</text><text fill="#FFFFFF" style="font-size:3px; font-family:Arial" x="141" y="285">Total: 61.4 km</text><text fill="#FFFFFF" style="font-size:3px; font-family:Arial" x="141" y="290">Avg: 6.8 km</text><text fill="#FFFFFF" style="font-size:3px; font-family:Arial" x="167" y="285">Min: 5.3 km</text><text fill="#FFFFFF" style="font-size:3px; font-family:Arial" x="167" y="290">Max: 11.2 km</text><polyline fill="none" points="15.870136986370198,65.8491153724899 16.25479452055879,65.43249475650373 18.148493150714785,65.6888767205819 19.95342465757858,65.30430371855618 28.267945205559954,69.53458830993623 29.392328767105937,72.03428287428687 29.362739726086147,77.83480161908665 35.66520547948312,77.99503586161882 38.712876712321304,77.45023919970845 42.2635616438929,76.39269081878592 44.186849315068685,74.79033995931968 48.68438356171828,72.54703898387379 51.85041095886845,71.58562078984687 66.3490410958184,71.64971540123224 67.0,70.59215312259039 66.79287671239581,64.88768258833443 65.9347945204936,62.99685866944492 65.4317808218766,57.356386648025364 64.78082191781141,55.33733652767842 64.78082191781141,48.70324965901091 63.98191780829802,47.19694550955319 62.26575342472643,45.97907882073196 51.051506849355064,42.00496413838118 41.4942465753993,46.42776693921769 38.831232876866125,47.004650992690586 36.37534246582072,47.036700084630866 34.83671232883353,46.55596346076345 27.616986301494762,43.030545547720976 23.740821917774156,42.54980455891928 19.746301369857974,43.19079242760199 18.326027397299185,44.02407526469324 15.899726027389988,43.06259492831305 15.248767123324797,43.22284179663984 13.0,45.62653783604037 13.562191780772991,56.90770964184776" stroke="#4dd2ff" stroke-linecap="round" stroke-linejoin="round" stroke-width="0.5"><title>2022-02-09 5.3km</title></polyline><polyline fill="none" points="82.08852459024638,66.18470728534157 88.66885245894082,70.24362832063343 89.61311475397088,73.91899696728797 89.93770491797477,77.9778466844291 94.59999999997672,78.13764315171284 100.70819672127254,77.27474153944058 107.43606557382736,73.5035220500431 113.10163934424054,71.87357820317266 126.29180327872746,72.03337688639294 127.0,71.01066431135405 126.32131147535983,64.8104184527183 125.61311475408729,63.18044241372263 125.2885245900834,58.1626351432642 124.60983606544323,55.8614559865382 124.78688524581958,52.18593654167489 124.28524590155575,48.382540622522356 121.71803278697189,45.9215022160497 110.85901639354415,41.86235684828716 101.20983606553636,46.40092636179179 98.46557377045974,46.94427309540333 94.21639344259165,46.464849541691365 89.22950819670223,43.7481062040024 86.39672131161205,42.91709900932619 83.53442622942384,42.82121346279746 77.39672131161205,43.7481062040024 73.53114754101261,45.02657574650948 73.0,49.597073984507006 73.47213114763144,51.96220827996149 73.61967213114258,65.48158330243314" stroke="#4dd2ff" stroke-linecap="round" stroke-linejoin="round" stroke-width="0.5"><title>2022-02-05 5.3km</title></polyline><polyline fill="none" points="135.49093904451001,64.7539039979747 136.5584843492834,65.13932217101683 139.1087314663455,64.78602219186723 143.64579901157413,67.13064404815668 144.98023064248264,67.2591161194432 148.7462932455819,69.92490317934426 149.6655683690915,72.301615444856 149.57660626037978,77.69734723938745 150.5255354201654,78.05063690652605 153.96540362446103,77.9864024425624 154.82537067553494,78.46816069469787 155.77429983532056,77.9221679692273 159.18451400322374,77.44040912252967 161.64579901157413,76.44477250991622 165.29324546956923,74.10020002236706 171.81713344331365,71.85196815789095 186.02141680405475,72.04467419395223 187.0,71.17749637030647 186.34761120274197,64.88237675963319 185.54695222410373,63.340701156907016 185.90280065895058,61.702664941054536 185.5172981879441,57.33453870654921 184.68698517302983,55.47164821907063 184.68698517302983,49.04782773379702 184.03459637565538,47.24914127608645 182.967051070882,46.34979530380224 170.838550247252,41.53183930533123 168.55518945644144,42.238476136815734 161.11202635930385,45.996480314206565 156.84184514009394,46.67099050388788 154.38056013185997,46.285556235699914 149.3690280065639,43.45902800411568 146.75947281706613,42.591794129111804 142.51894563436508,42.591794129111804 135.8764415156329,44.06930267432472 133.56342668854631,45.19349065163988 133.0,46.028599870362086 133.26688632625155,64.1115396299574 133.74135090608615,65.20355850050692 133.80065897875465,69.25042845340795 134.9275123559637,71.7556151082972 134.89785831957124,73.5220843484858 135.49093904451001,75.1279593547224" stroke="#4dd2ff" stroke-linecap="round" stroke-linejoin="round" stroke-width="0.5"><title>2022-01-20 5.9km</title></polyline><polyline fill="none" points="16.2807881772751,153.28171247197315 15.541871921159327,153.9219683847914 17.99507389171049,154.37014697055565 27.068965517217293,158.3717212913034 28.72413793101441,160.70862389579997 29.37438423652202,167.5912102914299 37.886699507478625,168.45552750161733 48.113300492521375,162.72539289831184 50.714285714318976,161.95710103269084 54.11330049263779,161.6049668135238 66.40886699501425,162.02112540596863 67.0,161.06075883080484 66.37931034481153,156.1308441463334 65.19704433507286,153.34573810503935 65.61083743849304,151.74509448729805 65.49261083744932,148.671842449432 64.69458128081169,145.53454222745495 64.51724137924612,138.61959758598823 63.45320197043475,136.8588304645382 61.325123152695596,135.38618347040028 57.9261083744932,134.52180142136058 51.09852216753643,131.54447249838267 48.94088669947814,132.18475998588838 45.7192118227249,134.2016594914603 41.3448275863193,136.15452164647286 38.89162561588455,136.66674635311938 34.13300492602866,136.15452164647286 28.90147783246357,133.3052608507278 26.56650246307254,132.76101792935515 23.049261083826423,132.63296067365445 20.034482758608647,133.11317519051954 17.137931034551002,134.1696452856704 13.67980295571033,134.58582977941842 13.0,136.44264811722678 13.206896551768295,145.75863584090257 13.67980295571033,147.32728794548893 13.059113300521858,150.8487315227685 13.206896551768295,154.6902742527891" stroke="#4dd2ff" stroke-linecap="round" stroke-linejoin="round" stroke-width="0.5"><title>2022-01-18 5.6km</title></polyline><polyline fill="none" points="77.7792768481886,154.71916376141598 80.37290879653301,154.52978269330924 83.69508904474787,156.20264593997854 86.34700485691428,156.6760966333386 88.24123043694999,158.001755831443 89.78575283312239,160.5268097865919 89.31948192114942,162.60996825803886 89.90232056111563,166.87094313112902 90.89314624923281,167.15500663773855 95.84727468970232,167.40750737668714 101.0636805180693,166.23969022958772 102.25849973014556,165.2296836806927 103.13275769015308,165.29280915873824 104.06529951433185,164.40905163186835 106.19266055035405,163.61998089330154 108.02860226656776,162.29433882827288 108.02860226656776,161.75776827175287 111.00107933068648,161.15807098365622 126.09660010784864,161.15807098365622 126.62115488387644,160.46368361642817 126.56287101993803,158.41207809722982 125.83432271995116,154.4666556523298 124.98920669185463,152.69909478147747 125.2223421477247,148.69049260008615 124.37722611962818,144.99749566681567 124.55207771167625,140.57848373780143 123.99838100373745,137.73766662727576 122.80356179154478,136.22255657514324 120.55963302741293,134.95996082978672 110.62223421479575,131.48780361464014 106.42579600645695,133.06606033348362 101.73394495411776,135.5596942662669 99.4317323260475,136.19099172623828 94.5067458176054,136.03316744722542 87.9789530490525,132.908234919596 84.48192120878957,132.40319320975686 73.81597409606911,134.51805145229446 73.34970318397973,136.50664011231856 73.90339989203494,143.35615362401586 73.67026443604846,146.07067749719135 74.13653534802143,147.0176004410896 73.78683216392528,147.80670131833176 73.96168375597335,154.1825838542718 74.83594171621371,154.94010823656572 76.14732865616679,154.4666556523298 77.60442525625695,154.94010823656572 79.323799244361,154.62447323766537 81.07231516449247,154.94010823656572 86.81327576900367,157.62299647307373 88.47436589305289,159.01177917353925 89.40690771711525,161.00025577031192 90.13545601721853,167.24969443204463 93.1953588774195,167.3443822057452 94.47760388546158,168.51219638535986 96.19697787368204,167.0918814300967 101.03453858592547,166.20812756047235 108.69886670261621,161.94714619085426 111.11764705879614,161.31588613969507 126.03831624379382,161.18963401939254 126.67943874793127,160.49524670265964 126.41716135980096,156.23420933552552 127.0,155.60294098811573 125.48461953585502,153.3303673461778 125.68861305981409,150.33181449832045 124.49379384773783,145.2184450837958 124.52293577976525,139.91562807298033 124.0858067998197,137.73766662727576 121.81273610354401,135.65438894371619 110.85536967078224,131.51936880522408 103.27846735017374,135.0230907042278 98.58661629795097,136.50664011231856 94.39017808949575,135.97003771955497 88.32865623303223,132.9713650920603 85.58931462478358,132.3716280834342 83.86994063679595,132.27693269064184 74.19481921207625,134.1708366261446 73.49541284400038,134.80213610376813 73.75769023201428,136.22255657514324 73.0,137.80079609813401 73.93254182406235,146.8282160173694 73.87425796000753,154.24571093654959" stroke="#4dd2ff" stroke-linecap="round" stroke-linejoin="round" stroke-width="0.5"><title>2022-01-15 11.2km</title></polyline><polyline fill="none" points="136.0247116968967,155.123263649788 140.02800658985507,155.05902725964552 143.17133443173952,156.85764265764738 143.8533772652736,156.7291703718074 145.7215815485688,157.59635757736396 147.8863261943916,159.3949626579415 148.80560131790116,160.8081472335034 149.3690280065639,163.15273895690916 149.48764415155165,167.7134160278074 150.82207578246016,168.35576113360003 153.46128500823397,168.3878783644468 161.73476112028584,166.97471800312633 163.03953871503472,166.52507512338343 163.6326194399735,165.72214027270093 168.11037891276646,163.12062134596636 173.06260296539403,161.83591499814065 186.49588138388935,162.0286211881612 187.0,160.67967609505286 186.16968698520213,154.83419982067426 185.36902800679673,153.4531144737848 185.42833607911598,149.50254420551937 185.1317957167048,146.3870289438637 184.7462932455819,145.84100854492863 184.83525535429362,140.50924451259198 184.03459637553897,137.7790994901734 181.7215815486852,135.75556936202338 177.89621087315027,134.72774098886293 170.89785831968766,131.6121216355823 161.378912685439,136.26948265277315 159.51070840202738,136.783395346225 154.85502471169457,136.5906781561498 149.8434925865149,133.79626946203643 146.4332784183789,132.7684365346504 142.99341021419968,132.7684365346504 133.29654036241118,134.9204589908477 133.0,135.49861249275273 133.11861614498775,146.03372170391958 133.65238879725803,147.54330521039083 133.11861614498775,150.62669380876468 133.68204283365048,155.18750003064633" stroke="#4dd2ff" stroke-linecap="round" stroke-linejoin="round" stroke-width="0.5"><title>2022-01-11 5.6km</title></polyline><polyline fill="none" points="19.991332611069083,256.50721038720803 20.48862405202817,256.57057519457885 16.715059588314034,246.36872269492596 16.744312025955878,245.73505939246388 17.241603466914967,245.51327701919945 21.01516793074552,245.54496022229432 25.57854821230285,247.98455995091354 26.251354279578663,247.9211938966764 28.211267605656758,249.25187910191016 29.84940411709249,251.97660281253047 30.580715059651993,257.8378694097919 35.96316359716002,257.8061870992242 36.60671722656116,257.23590511645307 41.75514626223594,256.91908147066715 46.46478873246815,254.0042931366479 51.23293607798405,252.07165100693237 66.32719393295702,252.03996827782248 67.0,251.08948533280636 66.76598049839959,247.8578278333007 65.74214517872315,243.73901397467125 65.15709642483853,236.70525733582326 64.6305525462376,235.46958567513502 64.9230769231217,230.68528546654852 64.39653304452077,228.34064236548147 63.16793066088576,227.00989337766077 60.798483207123354,225.71082497379393 50.96966413874179,222.1621305902372 42.28169014095329,226.53462489822414 39.3271939328406,227.20000062449253 35.78764897072688,227.00989337766077 29.439869989291765,223.87311184371356 25.28602383530233,223.14436138959718 20.40086673886981,223.58794876746833 13.585048754117452,225.64745568443323 13.585048754117452,228.4673801525787 13.204767063842155,228.27727345807943 13.0,228.87927770637907 13.146262188442051,230.8120225724124 13.702058504917659,231.98433905665297 13.760563380317762,242.09147754430887 14.31635969656054,244.53109658244648 15.57421451783739,245.291494533245 19.43553629470989,245.2281280879106 21.102925243903883,245.67169301159447 27.011917659896426,248.30139008373953" stroke="#4dd2ff" stroke-linecap="round" stroke-linejoin="round" stroke-width="0.5"><title>2022-01-08 6.4km</title></polyline><polyline fill="none" points="75.80174767889548,244.64807691203896 77.98416166030802,245.63830317975953 79.39978154026903,245.15916171568097 80.43200436921325,245.382761130546 85.74057891860139,247.65069163005683 88.42435827420559,249.3755886889412 89.51556526485365,251.67544091373566 89.9874385582516,255.1251967078133 89.7220098307589,256.46676110028056 90.40032768982928,257.8722051237419 95.53194975433871,258.0957980771782 100.89950846531428,257.16948367320583 102.69852539594285,256.40287717434694 105.26433642825577,254.19887604928226 109.06881485541817,252.44205565014272 114.20043691981118,251.7712678287935 125.79082468606066,252.18651755305473 126.32168214104604,252.15457528049592 127.0,251.10047898470657 126.52812670671847,245.25499005027814 125.73184052447323,243.49813393282238 125.79082468606066,240.71909265537397 125.20098306948785,236.53452611417742 124.69961769529618,235.6081663070654 124.75860185688362,230.04996649135137 124.19825232122093,227.94166542755556 123.04806116886903,226.69584641198162 110.8383397051366,221.90420192285092 101.10595303121954,226.47223749707337 98.86455488798674,226.9513993182627 94.26379027857911,226.50418163478025 90.78372474049684,224.39586357277585 87.68705625343136,223.21392326810746 83.23375204810873,222.8625349973736 73.82577826327179,224.84308340019197 73.17695248511154,225.54585649594082 73.0,230.56106825754978 73.53085745498538,232.15825744869653 73.2949208082864,235.6081663070654 73.76679410168435,239.85662799919373 73.26542872749269,242.69956065085717 73.85527034418192,245.35081836394966 73.7078099399805,247.65069163005683 75.62479519401677,254.70994975723443" stroke="#4dd2ff" stroke-linecap="round" stroke-linejoin="round" stroke-width="0.5"><title>2022-01-02 5.9km</title></polyline><polyline fill="none" points="136.7879282219801,245.3593527530902 139.43066884181462,244.69147246310604 148.26916802616324,248.98497084275004 149.7960848287912,251.56104966890416 149.85481239808723,257.2220091706549 150.2071778140962,257.73085587934474 155.84502446989063,257.8262645714567 159.83849918434862,257.31741797347786 167.97226753667928,252.86498502790346 171.5840130505385,251.78367305378197 186.32463295268826,251.7200663839758 186.85318107681815,250.8613754370599 187.0,248.63513180901646 185.64926590537652,243.4193167121266 185.6199021206703,240.62056105289957 184.3866231647553,235.65908660908462 184.7683523654705,232.4786247080774 184.56280587275978,229.52077440964058 183.9755301794503,227.96232911900734 180.68678629701026,225.51333245582646 170.8205546492245,221.76029800303513 163.24469820549712,225.735969082074 159.10440456774086,226.75373507494805 154.75856443715747,226.34026792566874 149.97226753667928,223.70042999926955 145.5970636216225,222.52362965024076 137.9624796085991,222.80987867488875 136.69983686797787,223.5095977250894 134.26264274073765,223.06432209524792 133.52854812401347,223.85945683089085 133.0,226.5947092944989 133.55791190860327,236.13615390201448 133.9983686786145,237.02667812496657 133.70473083201796,244.0871989420848 135.76019575854298,245.20033372880425 140.66394779772963,245.3593527530902 148.26916802616324,248.98497084275004 149.70799347467255,251.33842617089977 150.03099510609172,257.50823551698704 151.46982055460103,258.1760962646804 155.31647634587716,258.239701996994 156.63784665591083,257.85806746414164 156.60848287120461,257.349220903212 159.45676998374984,257.54003843289684 162.45187601959333,256.6813588949735 169.2055464927107,252.51514909305843 174.72593800979666,251.78367305378197 186.0016313213855,251.97449300787412 187.0,251.27481943639577 186.97063621529378,248.76234603542252 186.26590538339224,245.00951082343818 185.59053833596408,243.8963755517907 185.3849918433698,238.6805040204199 184.5921696573496,235.7226956115628 184.94453507335857,234.83216873696074 184.68026101146825,229.2981397077092 184.06362153345253,227.77149870226276 182.74225122353528,226.43568345636595 171.14355628052726,221.85571453161538 161.71778140298557,226.30846274417127 159.04567699844483,227.03998133423738 153.9657422513701,226.4674886286084 150.06035889068153,224.01848360474105 146.44861337682232,223.00071125404793" stroke="#4dd2ff" stroke-linecap="round" stroke-linejoin="round" stroke-width="0.5"><title>2021-12-31 10.1km</title></polyline></svg>