<?xml version="1.0" encoding="utf-8" ?>
<svg baseProfile="full" height="300mm" version="1.1" viewBox="0,0,200,300" width="200mm" xmlns="http://www.w3.org/2000/svg" xmlns:ev="http://www.w3.org/2001/xml-events" xmlns:xlink="http://www.w3.org/1999/xlink"><defs /><rect fill="#222222" height="300" width="200" x="0" y="0" /><text fill="#FFFFFF" style="font-size:12px; font-family:Arial; font-weight:bold;" x="10" y="20">Over 5km Runs</text><text fill="#FFFFFF" style="font-size:4px; font-family:Arial" x="10" y="280">ATHLETE</text><text fill="#FFFFFF" style="font-size:9px; font-family:Arial" x="10" y="290">ufiv</text><text fill="#FFFFFF" style="font-size:4px; font-family:Arial" x="120" y="280">STATISTICS</text><text fill="#FFFFFF" style="font-size:3px; font-family:Arial" x="120" y="285">Number: 18</text><text fill="#FFFFFF" style="font-size:3px; font-family:Arial" x="120" y="290">Weekly: 1.3</text><text fill="#FFFFFF" style="font-size:3px; font-family:Arial" x="141" y="285">Total: 117.1 km</text><text fill="#FFFFFF" style="font-size:3px; font-family:Arial" x="141" y="290">Avg: 6.5 km</text><text fill="#FFFFFF" style="font-size:3px; font-family:Arial" x="167" y="285">Min: 5.3 km</text><text fill="#FFFFFF" style="font-size:3px; font-family:Arial" x="167" y="290">Max: 11.2 km</text><polyline fill="none" points="14.403438091045246,51.74634256094578 16.267737541696988,49.65750560222659 17.189172902377322,49.193317757570185 17.23203036095947,48.566663097881246 17.83203478192445,48.404196874500485 19.546333127305843,50.562669960345374 20.339196112123318,51.09648363661836 21.860635893652216,50.95722798089264 22.053494457504712,49.77355245806393 22.353496667928994,51.51425023964839 12.753425933537073,72.75 23.574934239150025,55.27412509653368 24.217796118580736,58.08239783535828 35.446450281189755,54.09046555959503 36.6464591230033,54.43860117252916 37.35360719054006,55.15808023759746 38.510758573771454,55.25091612810502 38.76790332561359,54.925990393559914 41.72506797139067,54.06725650525186 44.23222930158954,52.256945074594114 45.53938178997487,51.76955178374192 47.16796521807555,52.790755921334494 48.946549751563,53.022847315791296 50.96085030748509,52.88359249930363 51.45371108176187,52.21052669794881 51.26085251790937,50.30736745221657 50.617990638362244,48.42740634002257 51.11085141275544,47.38297872181283 52.24657406646293,46.50101496418938 51.153708871337585,42.81066652794834 51.00370776606724,39.0738551930699 50.467989533091895,37.42593072060845 47.982256932300515,35.545893831789726 45.71081162453629,34.91921241080854 39.967912167310715,32.25 34.653587296488695,35.08168548980029 32.510714364703745,35.63873541922658 26.98210220062174,35.42984180949861 24.517798329121433,33.85153012210503 22.139209374785423,33.10879251288134 17.917749699088745,33.57300372101599" stroke="#4dd2ff" stroke-linecap="round" stroke-linejoin="round" stroke-width="0.5"><title>2022-10-01 6.8km</title></polyline><polyline fill="none" points="59.11308871849906,56.40398677808116 61.863362541073,56.04364644642919 68.60596933192573,59.14256047227536 69.53751369111706,61.13642004184658 69.47097480832599,65.50845559162553 71.02354874042794,66.03693949154695 75.01588170859031,66.08498344063992 78.52026286965702,65.26823535800213 83.24452354875393,62.265467722550966 86.43838992342353,61.40066558911349 94.37869660463184,61.44871021131985 97.57256297918502,61.13642004184658 97.75,58.013502134301234 96.90717415115796,51.02286365753389 96.30832420592196,49.02894313170691 96.39704271627124,45.257277459371835 95.90909090905916,43.167227643571096 94.17907995614223,41.701782539865235 91.51752464391757,41.12521219457267 86.19441401970107,38.91501655936008 84.59748083248269,39.29939946995 79.58488499454688,41.67775879552937 75.14895947417244,42.5426124916994 73.39676889381371,42.23030447342899 69.60405257390812,40.16425938543398 67.51916757947765,39.563662461878266 64.72453450167086,39.53963856221526 62.262595837935805,40.06816395098576 61.37541073386092,39.68378193382523 59.97809419489931,40.50059318621061 57.848849945236,40.86095045035472 57.40525739325676,42.32639927967102 57.27217962755822,45.64165299918386 57.6492332968628,49.821708153613145 57.95974808325991,50.23010151434573 57.25,51.863669915124774 57.62705366930459,52.80056579908705 57.471796276047826,55.346987358963815 58.09282584884204,57.84534417983377" stroke="#4dd2ff" stroke-linecap="round" stroke-linejoin="round" stroke-width="0.5"><title>2022-09-11 5.7km</title></polyline><polyline fill="none" points="108.34939759026747,57.54507053751149 106.08707557502203,57.20875405467814 107.19605695502833,56.29589330632007 108.5711938663153,56.680256033694604 113.96084337343927,59.683074469154235 114.64841182914097,61.700953146559186 114.47097480832599,65.7366735812393 114.95892661553808,66.28917909559095 119.37267250823788,65.71265158138704 119.97152245335747,65.95287150106742 122.25602409627754,65.71265158138704 124.87322015338577,64.67970393947326 125.93784227815922,63.67077522270847 129.1317086527124,62.10933185770409 131.59364731656387,61.41268551762914 142.0624315442983,61.43670782961999 142.75,60.98028360315948 142.5503833515104,57.88138667852036 141.72973713022657,55.527166511892574 141.9737130338326,52.88465453183744 141.1530668126652,49.18510229646927 141.0643483021995,44.740780291263945 140.73165388824418,43.3714366122731 139.71139101858716,42.21830069596763 130.8173603505129,38.71082090440905 123.83077765605412,41.978063540678704 121.01396495068911,42.62670345947845 117.53176341729704,41.88196862975019 114.16046002181247,40.00811228528619 112.03121577214915,39.45556287479121 109.23658269434236,39.45556287479121 104.8671960568754,40.680779886839446 103.53641840082128,40.65675606750301 102.5605147863971,40.993089379684534 102.25,41.449541184905684 102.87102957279421,59.22664782349602 103.58077765605412,62.82999894180102 104.00219058047514,63.21435407816898 103.93565169768408,64.00708513677819" stroke="#4dd2ff" stroke-linecap="round" stroke-linejoin="round" stroke-width="0.5"><title>2022-05-08 6.0km</title></polyline><polyline fill="none" points="150.11273972596973,56.983001723652706 150.86726027389523,57.07914503000211 151.88808219181374,56.55035649955971 152.90890410961583,56.79071502722218 157.16972602752503,58.737612668890506 159.01164383557625,60.05957367600058 159.6552054794738,61.477671432628995 160.0102739726426,66.09245598010602 160.38753424666356,66.26070211798651 163.62753424665425,66.33280757948523 165.8245205479907,66.04438563931035 166.0020547945751,65.70789305819198 168.46534246578813,65.65982266154606 173.30315068503842,62.79962149739731 176.4987671233248,61.766097351530334 186.13000000000466,61.718026382499374 187.75,61.33345837891102 187.37273972609546,56.67053578514606 186.75136986305006,55.5168128417281 186.7735616439022,52.079656069458 186.21876712329686,49.339519505854696 186.1521917808568,45.301382165780524 185.68616438354366,43.522663181764074 184.26589041086845,42.20063612170634 177.63054794515483,39.82097410413553 175.3891780822305,38.667192420514766 168.62068493152037,41.88815622677794 166.97849315067288,42.34485751221655 163.3834246575134,42.080451581656234 160.16561643837485,40.325752325734356 156.48178082192317,39.29215799848316 154.15164383570664,39.36426933540497 148.07109589048196,41.143010671046795 147.53849315072875,40.95071477134479 147.6050684931688,40.710344739607535 147.25,43.25825819224701 147.8269863014575,50.70959062338807 147.5606849315809,56.11771070995019 147.89356164378114,56.43017717023031 147.693835616461,57.58389693018398 148.0045205479255,59.266397705243435" stroke="#4dd2ff" stroke-linecap="round" stroke-linejoin="round" stroke-width="0.5"><title>2022-04-30 5.7km</title></polyline><polyline fill="none" points="14.469178082305007,105.2162356559129 15.268082191818394,105.81713182234671 17.065616438398138,105.31237911584321 22.879863013746217,107.90824197835173 24.49986301374156,110.14355202004663 24.277945205569267,110.40794253212516 24.655205479473807,111.6097149256093 24.49986301374156,113.1720125148131 25.032465753494762,115.16693564155139 28.694109589094296,115.19097078664345 32.13383561652154,114.73430273131817 34.30863013700582,113.98921139386948 35.373835616512224,113.00376543641323 37.72616438358091,111.70585652859882 41.65410958905704,110.33583604978048 49.82068493147381,110.55215544975363 52.26178082206752,110.3839070397953 52.75,109.9031968259078 52.195205479394644,105.81713182234671 51.640410958905704,104.61533839860931 51.75136986305006,102.4040270979167 51.351917808293365,98.87070555309765 50.97465753427241,98.17365126972436 50.88589041098021,93.3182669118396 50.486438356223516,92.2606489895843 49.57657534244936,91.39532272086944 40.45575342467055,87.30902921335655 33.35438356176019,90.72228961420478 31.934109589084983,91.10688012850005 28.560958904214203,90.84247419793974 23.76753424666822,88.53492256393656 21.748082191799767,88.05418061476666 20.01712328766007,88.05418061476666 17.176575342542492,88.63107086991658 15.623150684987195,89.54447838375927 12.25,89.8329223380133 12.738219178048894,102.59631562363938 12.494109589024447,104.6393743098597 12.716027397313155,107.25927817123011 13.315205479506403,108.74948946436052 13.204246575362049,109.49459259523428 13.847808219259605,112.1865641248296" stroke="#4dd2ff" stroke-linecap="round" stroke-linejoin="round" stroke-width="0.5"><title>2022-04-28 5.9km</title></polyline><polyline fill="none" points="59.99576271197293,105.50733961633523 60.017905959510244,104.93174086190993 60.54934390389826,105.3634400217561 61.56793329701759,105.09962393552996 64.66798797168303,106.97031526893261 66.68302351026796,107.37802864043624 68.7866320394678,108.86497902477277 69.40664297447074,110.06412768462906 69.76093493716326,110.1120935404615 69.3844997267006,113.5656168567948 69.56164570804685,114.6448354885797 70.77952433028258,114.93262652822887 75.03102788410615,114.93262652822887 78.9282394752372,114.16518319860916 82.64830508478917,111.76691130173276 87.14338436315302,110.13607646577293 96.6871241114568,110.35192271525739 97.284991798806,110.25599106625305 97.75,109.75234945185366 97.4178512848448,105.84310509316856 96.8199835974956,104.30817441261024 96.79784034984186,102.2216165792197 96.04496992891654,97.83260707344743 95.95639693818521,92.91588780740858 95.13709677418228,91.81261391556473 93.71992892294656,90.90121096372604 85.46049753960688,87.56737347177113 78.5296610170044,90.9491796028451 76.75820120284334,91.38089704143931 74.07886823406443,91.26097558735637 69.42878622200806,88.81456841679756 66.50587752880529,88.23894056602148 64.07012028433383,88.35886311769718 57.670721705886535,89.67800831139903 57.272143247770146,90.27761802086025 57.25,91.6207398189872 57.604291962925345,96.41755878715776 57.42714598146267,98.2882992986415 57.73715144896414,99.05577951984014 57.51571897219401,103.1569717208622 58.26858939323574,108.96091107782559" stroke="#4dd2ff" stroke-linecap="round" stroke-linejoin="round" stroke-width="0.5"><title>2022-04-16 5.8km</title></polyline><polyline fill="none" points="104.45828789542429,105.07716625506873 106.04825518000871,105.36418084346224 107.06406761193648,104.98149467003532 108.49945474381093,105.38809871455305 113.313522355631,107.68420625169529 114.24100327165797,109.14318293312681 114.30725190846715,114.16584012712701 117.42093784082681,114.85943915048847 122.38958560535684,114.38109515275573 124.90703380585182,112.8503896924667 130.40567066520452,110.2912256148993 133.0114503817167,109.95638024597429 141.8887677208986,110.1955555441964 142.75,109.57369940768695 142.15376226836815,105.29242721982882 142.39667393674608,104.0726132261043 141.86668484192342,102.99630300962599 141.5133587786695,99.3129036538594 140.98336968373042,97.7342913193279 140.76254089421127,92.5917895733437 140.45338058879133,91.87422480582609 139.4817339150468,91.08490175555926 130.78107960743364,87.64056084951153 123.29498364240862,91.08490175555926 120.77753544168081,91.46760407680995 117.9288440567907,90.91746935018455 113.13685932394583,88.52556854937575 111.25981461291667,88.33421573479427 106.82115594344214,89.12354537841748 103.11123227933422,90.0803060462058 102.49291166861076,90.53476638958091 102.25,92.68746475753142 102.82415485288948,99.28898534155451 102.69165757915471,104.88582305717864 103.22164667409379,108.01905393027118 104.17121046909597,110.88916292690556 104.19329334795475,112.39596013972186" stroke="#4dd2ff" stroke-linecap="round" stroke-linejoin="round" stroke-width="0.5"><title>2022-04-09 5.9km</title></polyline><polyline fill="none" points="149.3734298198251,104.86782010982279 151.0102403059136,105.01156265864847 151.78440742765088,104.77199170915992 153.24426542886067,105.10739098975318 158.86250682687387,108.29366714999196 159.63667394872755,109.94668551645009 159.37124522123486,114.16304268882959 160.83110322232824,114.69008354708785 163.86141452763695,114.80986544294865 165.36551064997911,114.35469400737202 165.74153468047734,114.69008354708785 166.44934462045785,114.61821438872721 175.18637356639374,110.35394963953877 177.99549426545855,109.94668551645009 185.53809393779375,110.162295997201 187.3076187876286,109.99459896879853 187.75,109.53942089065094 186.02471327153035,97.65665519493632 186.00259421090595,93.1286338683276 185.36114145279862,91.73906988586532 184.32154560356867,90.78074648726033 175.69511196063831,87.69013455708046 173.77075368654914,88.21721770978183 168.4842981977854,90.78074648726033 165.71941561996937,91.21199236120447 163.46327143639792,91.04428569946322 159.2827689788537,88.84013307702844 157.26993446215056,88.24117601491162 155.67736209731083,88.19325940296403 152.24890770076308,88.57659210369457 148.26747678872198,89.65471293596784 147.58178590936586,90.18179294918082 147.25,91.02032759797294 147.7366193337366,99.42951433817507 147.62602403061464,103.93349201593082 147.9799290006049,105.13134806812741 147.91357181873173,106.68855443428038 149.26283451670315,112.65378466484253" stroke="#4dd2ff" stroke-linecap="round" stroke-linejoin="round" stroke-width="0.5"><title>2022-03-09 5.9km</title></polyline><polyline fill="none" points="14.64539978094399,154.48054313933244 17.262595837935805,154.07215814184747 20.94441401970107,155.41742446404533 23.495071193901822,157.0029098925006 24.271358159952797,157.91576169253676 24.51533406355884,159.16492323207785 24.51533406355884,163.4168415865861 26.15662650601007,163.801193095278 29.35049288056325,163.82521504972829 33.187568455701694,163.05651164168376 41.260952902492136,159.04481175058754 52.21768893755507,158.99676714569796 52.72782037244178,158.49229837374878 52.75,156.52246056502918 52.528203723952174,154.07215814184747 51.88499452348333,152.46263589005684 51.79627601313405,147.56195275273058 51.35268346115481,146.79321155539947 51.57447973708622,144.24674357826007 51.28614457824733,141.21978444320848 49.37869660463184,139.34593871526886 41.726725082146004,136.1027190973109 38.42196056956891,137.11172416433692 34.16347207012586,139.36996244563488 31.65717415115796,140.01860250573372 29.41703176347073,139.75434189403313 23.317634173086844,136.77538948398433 19.99069003283512,136.559174151771 13.580777656054124,138.0726785090519 12.7379518073285,138.76936866313918 12.25,140.42700485393289 12.582694414071739,147.08148971371702 12.915388828027062,148.11448438485968 12.516155531280674,150.49276217870647 12.67141292442102,153.42354563905974 13.780394304543734,154.0000901487656 17.77272727282252,153.87997679211549 22.563526834594086,156.234190633666 23.983023001113907,157.31520158116473 24.271358159952797,157.91576169253676 24.559693318675272,159.76547998585738 24.382256297860295,163.05651164168376 24.981106243096292,163.392819602479 27.553943044971675,163.63303936520242 26.511500547640026,163.8972809027182 24.914567360421643,163.65706133184722 24.360076670302078,162.76824740323354 24.1826396494871,158.1800077961234 23.53943044913467,157.31520158116473 19.325301204808056,154.88892763268086 16.99644030665513,154.07215814184747 16.264512595837004,154.2162940808921 15.3551478642039,153.87997679211549 13.026286966050975,154.09618080270593 12.715772179653868,155.00904062303016 13.869112814893015,159.78950223326683 15.022453450132161,162.84031348637654" stroke="#4dd2ff" stroke-linecap="round" stroke-linejoin="round" stroke-width="0.5"><title>2022-02-11 8.0km</title></polyline><polyline fill="none" points="59.402602739748545,154.38683652938926 59.691095890360884,154.07437106739962 61.11136986303609,154.26665754045825 62.46506849315483,153.9782277889317 68.70095890411176,157.15094123248127 69.54424657532945,159.02571215573698 69.5220547944773,163.37610121432226 74.24890410958324,163.4962768962141 76.53465753421187,163.0876793997886 79.19767123286147,162.29451811409672 80.64013698627241,161.09275496951886 84.0132876712596,159.41027923792717 86.38780821906403,158.6892155923997 97.26178082183469,158.73728655095329 97.75,157.94411484195734 97.59465753426775,153.6657619412581 96.9510958903702,152.2476440021128 96.57383561634924,148.01728998601902 96.08561643841676,146.5030023957952 96.08561643841676,141.52743724428 95.48643835622352,140.39770913220127 94.19931506854482,139.48430911556352 85.7886301369872,136.5037231037859 78.62068493152037,139.82082520442782 76.62342465762049,140.25348824454704 74.78150684933644,140.2775250634877 73.62753424653783,139.91697259558714 68.21273972606286,137.27290916081984 65.30561643827241,136.912353419204 62.309726027422585,137.39309432072332 61.24452054791618,138.01805644854903 59.424794520484284,137.2969461962639 58.93657534243539,137.41713134749443 57.25,139.21990337703028 57.67164383549243,147.68078223138582" stroke="#4dd2ff" stroke-linecap="round" stroke-linejoin="round" stroke-width="0.5"><title>2022-02-09 5.3km</title></polyline><polyline fill="none" points="109.06639344268478,154.638530464028 114.00163934426382,157.68272124050418 114.70983606553636,160.43924772550236 114.95327868848108,163.4833850133291 118.44999999995343,163.6032323637919 123.03114754101261,162.956056154595 128.0770491802832,160.12764153754688 132.3262295081513,158.90518365241587 142.2188524591038,159.0250326648238 142.75,158.25799823351554 142.24098360654898,153.60781383956783 141.70983606553636,152.38533181030652 141.46639344259165,148.62197635747725 140.95737704914063,146.89609198991093 141.0901639343938,144.13945240626344 140.71393442619592,141.28690546692815 138.7885245901998,139.44112666207366 130.6442622950999,136.3967676362372 123.40737704921048,139.80069477137295 121.3491803278448,140.20820482156705 118.16229508188553,139.8486371563049 114.42213114758488,137.81107965300907 112.29754098365083,137.1878242570092 110.1508196721552,137.11591009711265 105.54754098365083,137.81107965300907 102.64836065575946,138.76993180988939 102.25,142.1978054883948 102.60409836063627,143.97165620999294 102.71475409832783,154.1111874768394" stroke="#4dd2ff" stroke-linecap="round" stroke-linejoin="round" stroke-width="0.5"><title>2022-02-05 5.3km</title></polyline><polyline fill="none" points="149.11820428341161,153.5654279984592 149.91886326193344,153.8544916282408 151.83154859975912,153.58951664390042 155.2343492587097,155.34798303610296 156.23517298186198,155.44433708957513 159.05971993412822,157.44367738449364 159.74917627684772,159.22621158364927 159.68245469522662,163.27301042951876 160.39415156515315,163.53797767989454 162.97405271825846,163.4898018318927 163.6190280066803,163.8511205210234 164.33072487649042,163.44162597690593 166.88838550250512,163.08030684187543 168.7343492587097,162.3335793824226 171.46993410214782,160.57515001675347 176.36285008245613,158.88897611841094 187.01606260309927,159.03350564543507 187.75,158.38312227770803 187.26070840202738,153.66178256971762 186.660214168136,152.50552586768754 186.92710049427114,151.27699870578363 186.63797364092898,148.00090402990463 186.01523887971416,146.60373616428114 186.01523887971416,141.78587080031866 185.52594728174154,140.43685595705756 184.7252883032197,139.76234647782985 175.628912685439,136.1488794789766 173.91639209236018,136.6788571025827 168.3340197694488,139.4973602356331 165.13138385501225,140.00324287789408 163.28542009880766,139.71416717674583 159.52677100489382,137.59427100306493 157.5696046128869,136.94384559680475 154.3892092257738,136.94384559680475 149.40733113675378,138.051977005729 147.67257001646794,138.89511798872263 147.25,139.5214499027643 147.45016474463046,153.08365472246078 147.80601317959372,153.90266887535108 147.85049423400778,156.93782134004869 148.69563426694367,158.8167113312229 148.67339373973664,160.14156326136435 149.11820428341161,161.34596951602725" stroke="#4dd2ff" stroke-linecap="round" stroke-linejoin="round" stroke-width="0.5"><title>2022-01-20 5.9km</title></polyline><polyline fill="none" points="14.710591132985428,201.21128435397986 14.156403940869495,201.69147628857172 15.996305418666452,202.0276102279022 22.801724137854762,205.02879096847028 24.043103448231705,206.78146792185726 24.530788177391514,211.94340771855786 30.91502463060897,212.59164562620572 38.58497536939103,208.29404467373388 40.535714285681024,207.71782577451086 43.08497536939103,207.4537251101574 52.30665024626069,207.76584405446192 52.75,207.04556912308908 52.28448275860865,203.34813310974278 51.39778325124644,201.25930357875768 51.70812807884067,200.05882086546626 51.61945812799968,197.75388183706673 51.02093596057966,195.40090667057666 50.88793103443459,190.21469818949117 50.08990147779696,188.89412284840364 48.4938423645217,187.7896376028075 45.94458128081169,187.14135106600588 40.82389162562322,184.90835437379428 39.2056650245795,185.38856998941628 36.78940886701457,186.90124461860978 33.50862068973947,188.36589123486192 31.6687192118261,188.75005976483226 28.099753694492392,188.36589123486192 24.176108374260366,186.22894563802402 22.42487684718799,185.8207634470018 19.7869458127534,185.72472050524084 17.525862068869174,186.08488139288966 15.35344827582594,186.87723396424553 12.759852216695435,187.1893723345711 12.25,188.58198608789826 12.405172413797118,195.56897688066238 12.759852216695435,196.74546595910215 12.294334975304082,199.3865486420691 12.405172413797118,202.26770568959182" stroke="#4dd2ff" stroke-linecap="round" stroke-linejoin="round" stroke-width="0.5"><title>2022-01-18 5.6km</title></polyline><polyline fill="none" points="60.83445763622876,202.28937282104744 62.779681597370654,202.14733701996738 65.27131678361911,203.40198445494752 67.26025364268571,203.75707247498212 68.6809228277998,204.75131687356043 69.8393146249,206.6451073399221 69.48961144092027,208.20747619349277 69.92674042086583,211.4032073483104 70.66985968698282,211.61625497826026 74.38545601733495,211.8056305324717 78.29776038858108,210.92976767217624 79.19387479766738,210.1722627604904 79.84956826770213,210.21960686903913 80.548974635778,209.5567887238867 82.14449541282374,208.96498566993978 83.52145169989672,207.97075412116828 83.52145169989672,207.56832620379282 85.75080949801486,207.1185532377276 97.07245008088648,207.1185532377276 97.46586616290733,206.59776271230658 97.42215326498263,205.05905857289326 96.87574203999247,202.0999917392328 96.24190501892008,200.77432108609355 96.41675661085173,197.7678694500355 95.78291958977934,194.99812175007537 95.91405828378629,191.68386280332925 95.49878575280309,189.55324997042771 94.60267134371679,188.41691743131378 92.9197247705888,187.46997062233277 85.46667566115502,184.86585271096556 82.31934700487182,186.04954525007633 78.80045871564653,187.9197706996638 77.07379924459383,188.3932437946496 73.38005936320405,188.27487558539724 68.48421478678938,185.93117618968245 65.86144090665039,185.55239490728127 57.86198057211004,187.1385385892063 57.5122773880139,188.62998008419527 57.92754991911352,193.7671152179828 57.752698327065445,195.8030081228644 58.10240151104517,196.51320033078082 57.84012412303127,197.10502598871244 57.97126281703822,201.88693789069657 58.62695628718939,202.45508117738063 59.61049649224151,202.0999917392328 60.70331894222181,202.45508117738063 61.992849433328956,202.21835492821992 63.30423637339845,202.45508117738063 67.60995682678185,204.46724735476892 68.85577441984788,205.5088343801326 69.55518078780733,207.00019182771211 70.1015920129139,211.68727082401165 72.39651915803552,211.7582866542798 73.35820291412529,212.63414728900534 74.64773340523243,211.56891107253614 78.27590393950231,210.90609567033243 84.02415002696216,207.71035964312614 85.8382352940971,207.23691460472764 97.02873718284536,207.1422255145153 97.50957906094845,206.62143502695835 97.31287101993803,203.42565700161504 97.75,202.95220574105042 96.61346465186216,201.24777550960425 96.76645979494788,198.9988608737185 95.87034538586158,195.16383381281048 95.89220183482394,191.1867210546916 95.56435509992298,189.55324997042771 93.85955207771622,187.9907917077653 85.64152725308668,184.88952660388895 79.9588505126303,187.51731802814174 76.43996222340502,188.62998008419527 73.29263356712181,188.22752828962984 68.74649217480328,185.97852381900884 66.69198596861679,185.5287210625538 65.40245547762606,185.45769951795228 58.146114409086294,186.8781274695648 57.621559633058496,187.35160207780427 57.81826767406892,188.41691743131378 57.25,189.60059707355686 57.94940636807587,196.37116201300523 57.90569347003475,201.93428320239764" stroke="#4dd2ff" stroke-linecap="round" stroke-linejoin="round" stroke-width="0.5"><title>2022-01-15 11.2km</title></polyline><polyline fill="none" points="104.51853377267253,202.59244773734827 107.5210049423622,202.5442704447196 109.87850082374644,203.89323199325008 110.39003294892609,203.79687777883373 111.7911861614557,204.44726818302297 113.4147446458228,205.79622199345613 114.10420098842587,206.8561104251421 114.52677100489382,208.61455421766732 114.61573311360553,212.03506202084827 115.61655683687422,212.51682085017092 117.59596375620458,212.54090877334238 123.80107084021438,211.4810385023302 124.77965403627604,211.1438063425303 125.22446457995102,210.54160520451842 128.58278418460395,208.59046600945294 132.29695222398732,207.62693624859094 142.3719110378297,207.77146589112817 142.75,206.7597570712678 142.1272652389016,202.37564986548387 141.52677100501023,201.33983585532405 141.57125205930788,198.37690815413953 141.3488467874704,196.04027170789777 141.05971993412822,195.63075640870375 141.1264415156329,191.63193338442943 140.52594728162512,189.58432461763732 138.7911861614557,188.06667702150298 135.9221581548918,187.29580574165448 130.67339373973664,184.95909122665762 123.53418451396283,188.45211198955076 122.13303130143322,188.83754650966148 118.64126853377093,188.69300861709053 114.88261943985708,186.59720209651277 112.32495881384239,185.82632740098052 109.74505766062066,185.82632740098052 102.47240527183749,187.44034424310667 102.25,187.87395936955 102.33896210871171,195.7752912779397 102.73929159797262,196.90747890778584 102.33896210871171,199.22002035655896 102.76153212517966,202.64062502296292" stroke="#4dd2ff" stroke-linecap="round" stroke-linejoin="round" stroke-width="0.5"><title>2022-01-11 5.6km</title></polyline><polyline fill="none" points="152.4934994583018,211.13040779042058 152.86646803899202,211.1779313959414 150.03629469126463,203.52654202119447 150.05823401955422,203.05129454433336 150.43120260024443,202.88495776441414 153.26137594808824,202.90872016671347 156.68391115928534,204.73841996319243 157.1885157097131,204.6908954225073 158.65845070430078,205.68890932644717 159.88705308781937,207.73245210939785 160.4355362947099,212.12840205733664 164.47237269789912,212.10464032442542 164.95503791992087,211.67692883734708 168.81635969667695,211.4393111030222 172.348591549322,209.25321985248593 175.92470205854625,207.80373825519928 187.24539544968866,207.77997620837414 187.75,207.0671139996266 187.5744853737997,204.6433708749828 186.80660888412967,201.55426048100344 186.3678223186871,196.27894300187472 185.9729144097073,195.352189256344 186.19230769237038,191.76396409992594 185.79739978339057,190.00548177410383 184.87594799569342,189.00742003324558 183.0988624052843,188.03311873035273 175.72724810405634,185.37159794266336 169.21126760577317,188.6509686736681 166.99539544968866,189.15000046836212 164.34073672804516,189.00742003324558 159.57990249199793,186.65483388278517 156.46451787650585,186.10827104220516 152.80065005412325,186.44096157560125 147.68878656555898,187.98559176333947 147.68878656555898,190.1005351144413 147.40357529791072,189.95795509355958 147.25,190.4094582797843 147.35969664133154,191.85901692931657 147.77654387871735,192.73825429248973 147.82042253529653,200.31860815823893 148.2372697724495,202.14832243684214 149.18066088843625,202.7186208999192 152.07665222114883,202.67109606595477 153.32719393295702,203.0037697587104 157.75893824489322,204.97604256280465" stroke="#4dd2ff" stroke-linecap="round" stroke-linejoin="round" stroke-width="0.5"><title>2022-01-08 6.4km</title></polyline><polyline fill="none" points="14.3513107590843,250.98605768402922 15.988121245172806,251.72872738481965 17.04983615502715,251.369371286768 17.82400327688083,251.5370708479022 21.80543418880552,253.23801872253534 23.818268705625087,254.53169151672046 24.636673948494717,256.25658068529447 24.990578918601386,258.84389753086725 24.79150737298187,259.85007082519587 25.300245767342858,260.90415384279913 29.14896231563762,261.07184855788364 33.174631348927505,260.37711275491165 34.52389404689893,259.8021578807384 36.44825232110452,258.149157036969 39.30161114141811,256.83154173759976 43.15032768982928,256.3284508716024 51.843118514399976,256.63988816479105 52.241261605755426,256.61593146037194 52.75,255.82535923851538 52.39609503000975,251.44124253769405 51.79888039326761,250.1236004496168 51.843118514399976,248.03931949153775 51.400737302028574,244.90089458564762 51.02471327141393,244.20612473032088 51.068951392546296,240.03747486849898 50.648689240799285,238.45624907067395 49.78604587656446,237.52188480898621 40.62875477876514,233.92815144214546 33.32946477329824,237.35417812282685 31.648416165960953,237.71354948868975 28.197842708905227,237.37813622609247 25.587793555343524,235.79689767956734 23.265292190015316,234.91044245107332 19.92531403596513,234.6469012480229 12.869333697366528,236.13231255015125 12.382714363746345,236.65939237194834 12.25,240.42080119316233 12.64814309112262,241.6186930865224 12.471190606127493,244.20612473032088 12.825095576117747,247.39247099938802 12.449071545503102,249.52467048814287 12.891452757990919,251.51311377296224 12.780857454868965,253.23801872253534 14.21859639545437,258.5324623179331" stroke="#4dd2ff" stroke-linecap="round" stroke-linejoin="round" stroke-width="0.5"><title>2022-01-02 5.9km</title></polyline><polyline fill="none" points="60.090946166426875,251.5195145648031 62.07300163130276,251.0186043473077 68.70187601959333,254.2387281320407 69.84706362162251,256.17078725167084 69.89110929856542,260.4165068779548 70.15538336057216,260.7981419094722 74.38376835233066,260.8696984285489 77.37887438829057,260.48806348009384 83.47920065256767,257.1487387708912 86.18800978793297,256.3377547903219 97.2434747145744,256.29004978796 97.63988580764271,255.64603157778038 97.75,253.97634885675507 96.73694942903239,250.0644875340804 96.71492659044452,247.9654207896383 95.78996737359557,244.24431495679892 96.07626427407376,241.8589685310435 95.92210440454073,239.64058080720133 95.48164763464592,238.47174683923367 93.01508972269949,236.6349993418262 85.61541598697659,233.8202235022618 79.93352365412284,236.80197681154823 76.82830342580564,237.56530130616738 73.56892332795542,237.25520094422973 69.97920065256767,235.27532249942305 66.69779771612957,234.39272223765147 60.97185970644932,234.60740900613018 60.0248776510125,235.13219829378068 58.196982055553235,234.79824157140683 57.646411092951894,235.39459262313903 57.25,237.44603197084507 57.66843393142335,244.60211542647448 57.99877650896087,245.27000859371037 57.77854812401347,250.5653992065345 59.320146818994544,251.4002502966032 62.99796084838454,251.5195145648031 68.70187601959333,254.2387281320407 69.78099510597531,256.003819628153 70.02324632951058,260.63117663771845 71.10236541600898,261.13207219849573 73.98735725937877,261.1797764977382 74.97838499199133,260.8935505980917 74.95636215340346,260.5119156774017 77.09257748781238,260.65502882463625 79.338907014695,260.0110191712156 84.40415986953303,256.88636181977927 88.5444535074057,256.3377547903219 97.00122349103913,256.4808697558765 97.75,255.956114577275 97.72797716152854,254.07175952655962 97.19942903751507,251.2571331175568 96.69290375197306,250.42228166380664 96.53874388255645,246.51037801531493 95.94412724301219,244.29202170865028 96.20840130501892,243.62412655269145 96.01019575854298,239.47360478076735 95.5477161500603,238.32862402667524 94.55668841768056,237.32676259224536 85.85766721039545,233.89178589871153 78.78833605221007,237.2313470581139 76.78425774886273,237.77998600064893 72.97430668852758,237.35061647143448 70.04526916798204,235.5138627035194 67.33646003261674,234.75053344052867" stroke="#4dd2ff" stroke-linecap="round" stroke-linejoin="round" stroke-width="0.5"><title>2021-12-31 10.1km</title></polyline></svg>