<?xml version="1.0" encoding="utf-8" ?>
<svg baseProfile="full" height="300mm" version="1.1" viewBox="0,0,200,300" width="200mm" xmlns="http://www.w3.org/2000/svg" xmlns:ev="http://www.w3.org/2001/xml-events" xmlns:xlink="http://www.w3.org/1999/xlink"><defs /><rect fill="#222222" height="300" width="200" x="0" y="0" /><text fill="#FFFFFF" style="font-size:12px; font-family:Arial; font-weight:bold;" x="10" y="20">Over 5km Runs</text><text fill="#FFFFFF" style="font-size:4px; font-family:Arial" x="10" y="280">ATHLETE</text><text fill="#FFFFFF" style="font-size:9px; font-family:Arial" x="10" y="290">ufiv</text><text fill="#FFFFFF" style="font-size:4px; font-family:Arial" x="120" y="280">STATISTICS</text><text fill="#FFFFFF" style="font-size:3px; font-family:Arial" x="120" y="285">Number: 4</text><text fill="#FFFFFF" style="font-size:3px; font-family:Arial" x="120" y="290">Weekly: 1.0</text><text fill="#FFFFFF" style="font-size:3px; font-family:Arial" x="141" y="285">Total: 28.0 km</text><text fill="#FFFFFF" style="font-size:3px; font-family:Arial" x="141" y="290">Avg: 7.0 km</text><text fill="#FFFFFF" style="font-size:3px; font-family:Arial" x="167" y="285">Min: 5.6 km</text><text fill="#FFFFFF" style="font-size:3px; font-family:Arial" x="167" y="290">Max: 10.1 km</text><polyline fill="none" points="19.037067545345053,82.68489547469653 25.042009884724393,82.58854088943917 29.75700164749287,85.28646398650017 30.780065897852182,85.09375555766746 33.5823723229114,86.39453636604594 36.82948929164559,89.09244398691226 38.208401976851746,91.21222085028421 39.053542009787634,94.72910843533464 39.23146622721106,101.57012404169654 41.23311367374845,102.53364170034183 45.191927512409166,102.58181754668476 57.60214168042876,100.46207700466039 59.559308072552085,99.7876126850606 60.448929159902036,98.58321040903684 67.1655683692079,94.68093201890588 74.59390444797464,92.75387249718187 94.74382207565941,93.04293178225635 95.5,91.01951414253563 94.2545304778032,82.25129973096773 93.05354201002046,80.17967171064811 93.14250411861576,74.25381630827906 92.69769357494079,69.58054341579555 92.11943986825645,68.76151281740749 92.25288303126581,60.76386676885886 91.05189456325024,56.66864923527464 87.5823723229114,53.633354043005966 81.84431630978361,52.09161148330895 71.34678747947328,47.41818245331524 57.068369027925655,54.404223979101516 54.26606260286644,55.17509301932296 47.28253706754185,54.886017234181054 39.76523887971416,50.69440419302555 34.64991762768477,49.152654801961035 29.49011532124132,49.152654801961035 14.944810543674976,52.38068848621333 14.5,53.24791873909999 14.677924217423424,69.05058255587937 15.478583195945248,71.31495781557169 14.677924217423424,75.94004071311792 15.523064250359312,82.78125004592584" stroke="#4dd2ff" stroke-linecap="round" stroke-linejoin="round" stroke-width="0.5"><title>2022-01-11 5.6km</title></polyline><polyline fill="none" points="114.98699891660362,99.76081558084115 115.73293607798405,99.85586279188283 110.07258938252926,84.55308404238895 110.11646803910844,83.60258908866672 110.86240520048887,83.26991552882828 116.52275189617649,83.31744033342693 123.36782231857069,86.97683992638486 124.3770314194262,86.88179084501462 127.31690140860155,88.87781865289435 129.77410617563874,92.96490421879571 130.87107258941978,101.75680411467329 138.94474539579824,101.70928064885084 139.91007583984174,100.85385767469415 147.6327193933539,100.37862220604438 154.69718309864402,96.00643970497185 161.8494041170925,93.10747651039856 184.49079089937732,93.05995241674827 185.5,91.6342279992532 185.14897074759938,86.78674174996559 183.61321776825935,80.60852096200688 182.7356446373742,70.05788600374945 181.9458288194146,68.20437851268798 182.38461538474075,61.027928199851885 181.59479956678115,57.510963548207656 179.75189599138685,55.51484006649116 176.19772481056862,53.56623746070545 161.4544962081127,48.24319588532671 148.42253521154635,54.80193734733621 143.99079089937732,55.800000936724246 138.68147345609032,55.51484006649116 129.15980498399585,50.80966776557034 122.9290357530117,49.71654208441032 115.6013001082465,50.3819231512025 105.37757313111797,53.47118352667894 105.37757313111797,57.7010702288826 104.80715059582144,57.41591018711915 104.5,58.318916559568606 104.71939328266308,61.218033858633135 105.5530877574347,62.976508584979456 105.64084507059306,78.13721631647786 106.47453954489902,81.79664487368427 108.3613217768725,82.93724179983838 114.15330444229767,82.84219213190954 116.65438786591403,83.50753951742081 125.51787648978643,87.4520851256093" stroke="#4dd2ff" stroke-linecap="round" stroke-linejoin="round" stroke-width="0.5"><title>2022-01-08 6.4km</title></polyline><polyline fill="none" points="18.7026215181686,231.97211536805844 21.976242490345612,233.4574547696393 24.099672310054302,232.738742573536 25.64800655376166,233.07414169580443 33.61086837761104,236.4760374450707 37.636537411250174,239.0633830334409 39.273347896989435,242.51316137058893 39.98115783720277,247.6877950617345 39.58301474596374,249.70014165039174 40.600491534685716,251.80830768559827 48.29792463127524,252.14369711576728 56.34926269785501,250.7542255098233 59.04778809379786,249.60431576147676 62.89650464220904,246.29831407393795 68.60322228283621,243.66308347519953 76.30065537965856,242.6569017432048 93.68623702879995,243.2797763295821 94.48252321151085,243.23186292074388 95.5,241.65071847703075 94.7921900600195,232.8824850753881 93.59776078653522,230.24720089923358 93.68623702879995,226.0786389830755 92.80147460405715,219.80178917129524 92.04942654282786,218.41224946064176 92.13790278509259,210.07494973699795 91.29737848159857,206.9124981413479 89.57209175312892,205.04376961797243 71.25750955753028,197.85630288429093 56.65892954659648,204.7083562456537 53.296832331921905,205.4270989773795 46.395685417810455,204.75627245218493 41.17558711068705,201.59379535913467 36.53058438003063,199.82088490214664 29.85062807193026,199.29380249604583 15.738667394733056,202.2646251003025 14.76542872749269,203.31878474389669 14.5,210.84160238632467 15.29628618224524,213.2373861730448 14.942381212254986,218.41224946064176 15.650191152235493,224.78494199877605 14.898143091006204,229.04934097628575 15.782905515981838,233.02622754592448 15.56171490973793,236.4760374450707 18.43719279090874,247.0649246358662" stroke="#4dd2ff" stroke-linecap="round" stroke-linejoin="round" stroke-width="0.5"><title>2022-01-02 5.9km</title></polyline><polyline fill="none" points="110.18189233285375,233.0390291296062 114.14600326260552,232.0372086946154 127.40375203918666,238.4774562640814 129.69412724324502,242.3415745033417 129.78221859713085,250.83301375590963 130.31076672114432,251.59628381894436 138.76753670466132,251.73939685709774 144.75774877658114,250.97612696018768 156.95840130513534,244.29747754178243 162.37601957586594,242.67550958064385 184.4869494291488,242.58009957592003 185.27977161528543,241.29206315556075 185.5,237.95269771351013 183.47389885806479,230.1289750681608 183.42985318088904,225.9308415792766 181.57993474719115,218.48862991359783 182.15252854814753,213.717937062087 181.84420880908147,209.28116161440266 180.96329526929185,206.94349367846735 176.03017944539897,203.26999868365237 161.23083197395317,197.6404470045236 149.86704730824567,203.60395362309646 143.6566068516113,205.13060261233477 137.13784665591083,204.51040188845946 129.95840130513534,200.5506449988461 123.39559543225914,198.78544447530294 111.94371941289864,199.21481801226037 110.049755302025,200.26439658756135 106.39396411110647,199.59648314281367 105.29282218590379,200.78918524627807 104.5,204.89206394169014 105.3368678628467,219.20423085294897 105.99755301792175,220.54001718742074 105.55709624802694,231.130798413069 108.64029363798909,232.80050059320638 115.99592169676907,233.0390291296062 127.40375203918666,238.4774562640814 129.56199021195062,242.007639256306 130.04649265902117,251.2623532754369 132.20473083201796,252.26414439699147 137.97471451875754,252.3595529954764 139.95676998398267,251.78710119618336 139.91272430680692,251.0238313548034 144.18515497562476,251.3100576492725 148.67781402939,250.0220383424312 158.80831973906606,243.77272363955854 167.0889070148114,242.67550958064385 184.00244698207825,242.96173951175297 185.5,241.91222915455 185.45595432305709,238.14351905311923 184.39885807503015,232.5142662351136 183.38580750394613,230.8445633276133 183.0774877651129,223.02075603062985 181.88825448602438,218.58404341730056 182.41680261003785,217.2482531053829 182.02039151708595,208.9472095615347 181.0954323001206,206.6572480533505 179.11337683536112,204.65352518449072 161.7153344207909,197.78357179742306 147.57667210442014,204.4626941162278 143.56851549772546,205.55997200129787 135.94861337705515,204.70123294286896 130.09053833596408,201.02772540703882 124.67292006523348,199.50106688105734" stroke="#4dd2ff" stroke-linecap="round" stroke-linejoin="round" stroke-width="0.5"><title>2021-12-31 10.1km</title></polyline></svg>