<?xml version="1.0" encoding="utf-8" ?>
<svg baseProfile="full" height="300mm" version="1.1" viewBox="0,0,200,300" width="200mm" xmlns="http://www.w3.org/2000/svg" xmlns:ev="http://www.w3.org/2001/xml-events" xmlns:xlink="http://www.w3.org/1999/xlink"><defs /><rect fill="#222222" height="300" width="200" x="0" y="0" /><text fill="#FFFFFF" style="font-size:12px; font-family:Arial; font-weight:bold;" x="10" y="20">Over 5km Runs</text><text fill="#FFFFFF" style="font-size:4px; font-family:Arial" x="10" y="280">ATHLETE</text><text fill="#FFFFFF" style="font-size:9px; font-family:Arial" x="10" y="290">ufiv</text><text fill="#FFFFFF" style="font-size:4px; font-family:Arial" x="120" y="280">STATISTICS</text><text fill="#FFFFFF" style="font-size:3px; font-family:Arial" x="120" y="285">Number: 15</text><text fill="#FFFFFF" style="font-size:3px; font-family:Arial" x="120" y="290">Weekly: 1.4</text><text fill="#FFFFFF" style="font-size:3px; font-family:Arial" x="141" y="285">Total: 98.6 km</text><text fill="#FFFFFF" style="font-size:3px; font-family:Arial" x="141" y="290">Avg: 6.6 km</text><text fill="#FFFFFF" style="font-size:3px; font-family:Arial" x="167" y="285">Min: 5.3 km</text><text fill="#FFFFFF" style="font-size:3px; font-family:Arial" x="167" y="290">Max: 11.2 km</text><polyline fill="none" points="15.453589041018859,58.78186850523343 16.258410958806053,58.88442136536469 17.347287671174854,58.32038026623195 18.436164383543655,58.576762695709476 22.981041095918044,60.65345351348515 24.945753424661234,62.06354525440838 25.632219178136438,63.57618286146317 26.010958904167637,68.4986197121325 26.413369863061234,68.67808225919725 29.869369863066822,68.75499475144898 32.21282191784121,68.44734468194656 32.402191780740395,68.08841926205787 35.02969863009639,68.0371441723255 40.190027397242375,64.98626293055713 43.59868493140675,63.88383717497345 53.87199999997392,63.83256147467182 55.59999999997672,63.422355604183394 55.19758904108312,58.44857150418102 54.534794520470314,57.217933697858825 54.55846575344913,53.55163314077072 53.966684931423515,50.62882080627605 53.89567123283632,46.321474310185295 53.39857534249313,44.42417406057939 51.88361643825192,43.01401186318253 44.80591780808754,40.47570571108372 42.41512328770477,39.24500524858013 35.19539726036601,42.6806999752298 33.4437260273844,43.16784801305039 29.608986301347613,42.885815020417795 26.176657534204423,41.01413581412635 22.247232876718044,39.91163519839756 19.761753424652852,39.98855395778082 13.275835616514087,41.88587804912822 12.707726027350873,41.68076242276584 12.778739726054482,41.42436772226938 12.400000000023283,44.14214207173791 13.015452054794878,52.090229998284485 12.731397260329686,57.858891423937166 13.086465753382072,58.192188981571235 12.873424657504074,59.42282339220401 13.204821917810477,61.21749088561046" stroke="#4dd2ff" stroke-linecap="round" stroke-linejoin="round" stroke-width="0.5"><title>2022-04-30 5.7km</title></polyline><polyline fill="none" points="80.76712328766007,58.23065136632067 81.61928767128848,58.871607277164 83.53665753419045,58.33320439027739 89.73852054786403,61.10212477692403 91.46652054798324,63.486455488047795 91.22980821912643,63.76847203428042 91.63221917802002,65.05036258735345 91.46652054798324,66.71681334916502 92.03463013691362,68.84473135101143 95.9403835615376,68.87036883909605 99.6094246575376,68.38325624677236 101.92920547933318,67.58849215347436 103.06542465754319,66.53734979886212 105.57457534247078,65.15291363053257 109.76438356155995,63.69155845310888 118.47539726016112,63.92229914641939 121.07923287677113,63.74283417579136 121.59999999997672,63.230076614330756 121.0082191779511,58.871607277164 120.41643835615832,57.58969429184799 120.53479452058673,55.23096223780885 120.10871232871432,51.4620859233255 119.70630136982072,50.71856135438429 119.61161643825471,45.5394847059797 119.18553424661513,44.41135892222519 118.21501369855832,43.48834423563676 108.48613698617555,39.12963116093306 100.9113424657844,42.770442255190574 99.3963835616596,43.180672137095826 95.79835616436321,42.89863914446323 90.68536986294203,40.43725073488895 88.53128767118324,39.924459322443 86.68493150675204,39.924459322443 83.65501369861886,40.539808927918784 81.99802739731967,41.51411027603899 78.40000000002328,41.821783827239415 78.92076712322887,55.43606999857002 78.66038356162608,57.615332597197266 78.89709589048289,60.40989671598072 79.53621917800047,61.99945542868227 79.41786301368847,62.79423210161622 80.10432876716368,65.66566839982988" stroke="#4dd2ff" stroke-linecap="round" stroke-linejoin="round" stroke-width="0.5"><title>2022-04-28 5.9km</title></polyline><polyline fill="none" points="147.3288135593757,58.5411622574029 147.35243302350864,57.92719025266706 147.91930016409606,58.38766935651074 149.0057955167722,58.10626553121256 152.31252050306648,60.10166962016956 154.4618917441694,60.53656388312811 156.7057408420369,62.122644293063786 157.36708583927248,63.40173619691632 157.74499726621434,63.45289977645734 157.34346637502313,67.13665798053262 157.53242208855227,68.28782452113228 158.83149261889048,68.59480163009721 163.36642974300776,68.59480163009721 167.52345544018317,67.7761954118323 171.49152542371303,65.21803872179589 176.28627665387467,63.478481563477544 186.46626571880188,63.70871756289853 187.10399125202093,63.60639047063887 187.59999999997672,63.06917274862644 187.2457080371678,58.899312099354574 186.60798250394873,57.262052706762915 186.5843630398158,55.036391017813 185.78130125743337,50.35478087831871 185.6868234006688,45.11028032787726 184.81290322577115,43.933454843237996 183.30125751765445,42.96129169460619 174.49119737546425,39.40519836987369 167.0983050847426,43.01245824302896 165.20874794968404,43.47295684416895 162.35079278296325,43.34504062650376 157.3907053034054,40.735539644549135 154.27293603064027,40.121536603721324 151.67479496996384,40.24945399220451 144.84876981959678,41.65654219881981 144.42361946427263,42.296125888911774 144.40000000002328,43.72878914020839 144.77791142708156,48.84539603960002 144.58895571355242,50.840852585213725 144.919628212112,51.65949815447675 144.683433570317,56.03410316890222 145.48649535269942,62.22497181632207" stroke="#4dd2ff" stroke-linecap="round" stroke-linejoin="round" stroke-width="0.5"><title>2022-04-16 5.8km</title></polyline><polyline fill="none" points="14.755507088382728,106.08231067206361 16.451472191954963,106.38845956634032 17.53500545269344,105.98026098133414 19.066085060010664,106.4139719621744 24.201090512564406,108.86315333514358 25.190403489745222,110.41939512864337 25.261068702326156,115.7768961355905 28.582333696773276,116.51673509384273 33.88222464558203,116.00650149624562 36.56750272621866,114.37374900528812 42.432715376256965,111.64397398920846 45.21221374045126,111.28680559570785 54.68135223549325,111.54192591379979 55.59999999997672,110.87861270151916 54.96401308616623,106.31192236780771 55.22311886586249,105.01078744116239 54.65779716463294,103.86272321027354 54.28091603051871,99.9337638974539 53.71559432928916,98.24991074061836 53.480043620453216,92.76457554489025 53.15027262805961,91.99917312621255 52.11384950927459,91.15722853926127 42.833151581231505,87.48326490615727 34.84798255178612,91.15722853926127 32.16270447114948,91.5654443485837 29.124100327142514,90.97863397351466 24.0126499455655,88.42727311933413 22.01046892045997,88.22316345042782 17.275899672997184,89.06511507029063 13.318647764623165,90.08565978260594 12.659105779835954,90.57041748220217 12.400000000023283,92.866629074706 13.012431842973456,99.90825103098177 12.871101417695172,105.87821126097697 13.436423118924722,109.22032419228344 14.44929116696585,112.28177378867986 14.472846237826161,113.88902414904442" stroke="#4dd2ff" stroke-linecap="round" stroke-linejoin="round" stroke-width="0.5"><title>2022-04-09 5.9km</title></polyline><polyline fill="none" points="80.66499180777464,105.85900811711326 82.41092299297452,106.01233350255643 83.23670125612989,105.7567911564256 84.79388312413357,106.11455038902932 90.78667394863442,109.51324495996232 91.6124522119062,111.27646455087233 91.3293282360537,115.7739122013736 92.88651010382455,116.33608911687043 96.11884216277394,116.46385647245916 97.72321135993116,115.97834027450881 98.12430365919136,116.33608911687043 98.87930092844181,116.25942868128186 108.1987984708976,111.71087961550802 111.19519388314802,111.27646455087233 119.24063353356905,111.50644906365778 121.12812670669518,111.32757223336375 121.59999999997672,110.84204894999857 119.75969415623695,98.16709887457546 119.73610049160197,93.33720945953974 119.05188421637286,91.85500787824276 117.94298197713215,90.83279625306022 108.74145275808405,87.53614352751174 106.6888039323967,88.09836555708898 101.04991807765327,90.83279625306022 98.10070999455638,91.29279185194173 95.69415619876236,91.1139047460747 91.23495357739739,88.7628086154873 89.08793009293731,88.12392108255881 87.3891862371238,88.07281002981472 83.7321682140464,88.48169824393699 79.48530857462902,89.63169379835017 78.75390496989712,90.19391247912426 78.40000000002328,91.08834943780676 78.91906062269118,100.05814862737316 78.80109229928348,104.86239148364984 79.17859093390871,106.14010460599093 79.10780994000379,107.80112472988549 80.54702348448336,114.16403697582427" stroke="#4dd2ff" stroke-linecap="round" stroke-linejoin="round" stroke-width="0.5"><title>2022-03-09 5.9km</title></polyline><polyline fill="none" points="146.95509309961926,106.77924601527047 149.74676889379043,106.34363535128068 153.67404162103776,107.77858609496616 156.3947426067898,109.46977055200841 157.2227820372209,110.44347913868842 157.4830230011139,111.7759181142028 157.4830230011139,116.3112976923585 159.23373493971303,116.7212726349535 162.64052573929075,116.7468960530532 166.73340635269415,115.92694575112546 175.34501642931718,111.64779920061119 187.03220153343864,111.59655162206036 187.5763417306589,111.05845159868477 187.59999999997672,108.95729126935476 187.36341730563436,106.34363535128068 186.67732749180868,104.62681161603541 186.58269441407174,99.39941626955988 186.1095290251542,98.57942565908888 186.34611171961296,95.86319315014407 186.03855421685148,92.63443673940492 184.0039430449251,90.63566796292434 175.84184008766897,87.17623370379442 172.31675794080365,88.25250577527913 167.77437020814978,90.66129327536328 165.1009857612662,91.35317600608687 162.71150054770987,91.07129802030977 156.20547645131592,87.89374878289527 152.65673603501637,87.663119095203 145.8194961665431,89.2775237429596 144.9204819278093,90.02065990734263 144.40000000002328,91.78880517749349 144.75487404165324,98.8869223613001 145.1097480832832,99.98878334384062 144.68389923335053,102.52561299060471 144.84950711939018,105.6517820149893 146.03242059145123,106.26676282534027 150.2909090910107,106.13864191158791 155.40109529031906,108.64980334255961 156.91522453457583,109.80288168656989 157.2227820372209,110.44347913868842 157.53033953998238,112.41651198492036 157.34107338439208,115.92694575112546 157.97984665934928,116.28567424265202 160.72420591453556,116.54190865618875 159.61226725089364,116.82376629620558 157.90887185116298,116.56753208729788 157.31741511507425,115.61946389678633 157.12814895948395,110.72534164917306 156.44205914565828,109.80288168656989 151.94698795175646,107.21485614150879 149.46286966046318,106.34363535128068 148.68214676890057,106.4973803529283 147.71215772186406,106.13864191158791 145.2280394305708,106.36925952287856 144.89682365837507,107.34297666457132 146.1270536693046,112.4421357154788 147.3572836801177,115.69633438545861" stroke="#4dd2ff" stroke-linecap="round" stroke-linejoin="round" stroke-width="0.5"><title>2022-02-11 8.0km</title></polyline><polyline fill="none" points="14.696109589072876,154.6792922980094 15.00383561651688,154.34599580519716 16.518794520641677,154.55110137647716 17.962739726062864,154.24344297483913 24.614356164471246,157.6276706479548 25.513863013708033,159.62742629944114 25.490191780845635,164.26784129525186 30.532164383563213,164.3960286892834 32.97030136990361,163.96019135977258 35.8108493151376,163.11415265503456 37.34947945200838,161.83227196746157 40.94750684942119,160.0376311870932 43.48032876709476,159.2684966318775 55.079232876654714,159.31977232100326 55.59999999997672,158.47372249807813 55.43430136993993,153.91014607064426 54.74783561646473,152.3974869355734 54.34542465757113,147.8851093184203 53.82465753436554,146.2698692221602 53.82465753436554,140.96259972720873 53.185534246615134,139.7575564076542 51.81260273978114,138.7832630565681 42.841205479577184,135.60397131068748 35.19539726024959,139.1422135513858 33.06498630146962,139.60372079416993 31.100273972726427,139.62936006771633 29.869369863066822,139.2447707686224 24.093589041149244,136.42443643818842 20.992657534312457,136.0398436471296 17.797041095909663,136.55263394207577 16.660821917816065,137.21926021174295 14.719780821935274,136.45007594264462 14.199013698729686,136.57827343730605 12.400000000023283,138.50123026882648 12.849753424641676,147.52616771348403" stroke="#4dd2ff" stroke-linecap="round" stroke-linejoin="round" stroke-width="0.5"><title>2022-02-09 5.3km</title></polyline><polyline fill="none" points="85.67081967217382,154.9477658282558 90.93508196715266,158.19490265651257 91.69049180322327,161.1351975738362 91.95016393437982,164.38227734752581 95.67999999993481,164.51011452137027 100.56655737699475,163.81979323155247 105.94885245896876,160.8028176400112 110.48131147539243,159.49886256252648 121.03344262298197,159.62670150911435 121.59999999997672,158.80853144905996 121.05704918026458,153.84833476215135 120.49049180326983,152.5443539309781 120.23081967199687,148.53010811461718 119.68786885240115,146.68916478921892 119.82950819667894,143.74874923331663 119.4281967212446,140.70603249801206 117.37442622950766,138.73720177283394 108.68721311481204,135.48988547862973 100.96786885242909,139.1207410894276 98.77245901629794,139.55541847631685 95.37311475398019,139.1718796333589 91.38360655738506,136.99848496320192 89.11737704917323,136.33367920745513 86.82754098356236,136.2569707702496 81.9173770492198,136.99848496320192 78.82491803274024,138.02126059719012 78.40000000002328,141.67765918758232 78.77770491805859,143.56976662395755 78.89573770482093,154.3852666419407" stroke="#4dd2ff" stroke-linecap="round" stroke-linejoin="round" stroke-width="0.5"><title>2022-02-05 5.3km</title></polyline><polyline fill="none" points="146.3927512356313,153.8031231983623 147.24678747949656,154.11145773678436 149.28698517312296,153.8288177534996 152.9166392092593,155.70451523852535 153.98418451403268,155.8072928955371 156.9970345965121,157.9399225434754 157.7324546952732,159.84129235587898 157.66128500830382,164.15787779149832 158.42042833624873,164.44050952521502 161.17232289956883,164.38912195403827 161.86029654042795,164.77452855574666 162.61943986825645,164.33773437538184 165.34761120262556,163.95232729800045 167.31663920928258,163.1558180079155 170.23459637572523,161.28016001786455 175.45370675460435,159.48157452631858 186.81713344331365,159.63573935514432 187.60000000009313,158.94199709623354 187.07808896224014,153.90590140770655 186.4375617793994,152.67256092553725 186.72224052727688,151.362131952832 186.413838550332,147.8676309652219 185.74958813842386,146.37731857525068 185.74958813842386,141.23826218702015 185.22767710057087,139.79931302086334 184.37364085682202,139.07983624303597 174.67084019782487,135.22547144425334 172.84415156510659,135.79078090944677 166.88962108746637,138.79718425136525 163.47347611212172,139.33679240310448 161.5044481054647,139.02844498853665 157.49522240529768,136.76722240328672 155.40757825376932,136.07343530326034 152.01515650749207,136.07343530326034 146.70115321257617,137.25544213945977 144.8507413509069,138.15479252129444 144.40000000002328,138.8228798962955 144.6135090610478,153.28923170396592 144.99308072484564,154.16284680037643 145.04052718298044,157.40034276270308 145.94200988474768,159.4044920866436 145.91828665568028,160.81766747878282 146.3927512356313,162.10236748377793" stroke="#4dd2ff" stroke-linecap="round" stroke-linejoin="round" stroke-width="0.5"><title>2022-01-20 5.9km</title></polyline><polyline fill="none" points="15.024630541913211,200.62536997758434 14.433497537043877,201.1375747078273 16.396059113321826,201.49611757643288 23.655172413797118,204.697377033066 24.97931034490466,206.5668991166458 25.49950738926418,212.0729682331439 32.30935960600618,212.76442200128804 40.49064039404038,208.1803143186553 42.571428571478464,207.56568082614103 45.29064039408695,207.28397345083067 55.12709359603468,207.61690032476326 55.59999999997672,206.84860706463223 55.103448275942355,202.90467531705508 54.15763546805829,200.676590484014 54.48866995086428,199.39607558984426 54.394088670029305,196.93747395955143 53.75566502462607,194.4276337819756 53.613793103490025,188.89567806877312 52.762561576324515,187.4870643716422 51.060098522226326,186.30894677632023 48.34088669961784,185.61744113708846 42.87881773407571,183.23557799871196 41.15270935965236,183.74780798872234 38.57536945817992,185.3613275931857 35.075862069032155,186.92361731716665 33.113300492754206,187.33339708248968 29.30640394089278,186.92361731716665 25.121182266040705,184.6442086805764 23.253201970481314,184.20881434346666 20.439408867037855,184.10636853892356 18.0275862069102,184.49054015241563 15.710344827617519,185.3357162285538 12.943842364591546,185.66866382354056 12.400000000023283,187.15411849378143 12.565517241484486,194.60690867272206 12.943842364591546,195.86183035638533 12.44729064044077,198.67898521822644 12.565517241484486,201.75221940223128" stroke="#4dd2ff" stroke-linecap="round" stroke-linejoin="round" stroke-width="0.5"><title>2022-01-18 5.6km</title></polyline><polyline fill="none" points="82.22342147864401,201.77533100912115 84.29832703724969,201.62382615465322 86.95607123582158,202.96211675196537 89.07760388555471,203.3408773066767 90.59298434958328,204.40140466514276 91.82860226649791,206.42144782928517 91.45558553701267,208.0879746064311 91.92185644886922,211.49675450488576 92.7145169993164,211.72400531018502 96.67781975178514,211.92600590133225 100.8509444143856,210.991752183676 101.80679978406988,210.18374694455997 102.50620615214575,210.2342473269964 103.25223961146548,209.52724130550632 104.95412844023667,208.89598471464706 106.42288181325421,207.83547106262995 106.42288181325421,207.40621461739647 108.80086346459575,206.92645678692497 120.87728008627892,206.92645678692497 121.29692390712444,206.37094689314836 121.25029681588057,204.7296624777664 120.66745817591436,201.573324521858 119.99136535346042,200.15927582519362 120.17787371820305,196.95239408005727 119.5017808957491,193.99799653343507 119.64166216936428,190.46278699024697 119.19870480301324,188.19013330183225 118.24284943321254,186.97804526009713 116.44770642195363,185.96796866384102 108.49778737185989,183.19024289172376 105.14063680521213,184.45284826678107 101.38715596334077,186.4477554130135 99.545385860838,186.95279338100227 95.60539665410761,186.82653395779198 90.38316243921872,184.3265879356768 87.58553696703166,183.9225545678055 79.05277927685529,185.61444116182975 78.67976254713722,187.20531208984903 79.12271991360467,192.68492289920687 78.93621154886205,194.85654199775308 79.3092282784637,195.61408035288332 79.02946573111694,196.2453610546654 79.16934700473212,201.34606708341744 79.8687533729244,201.95208658924093 80.91786292498,201.573324521858 82.08354020502884,201.95208658924093 83.45903939555865,201.69957859013812 84.85785213159397,201.95208658924093 89.45062061515637,204.09839717845898 90.77949271444231,205.20942333881976 91.52552617364563,206.80020461624372 92.10836481372826,211.79975554562407 94.5562871019356,211.87550576459034 95.58208310836926,212.80975710827624 96.95758229889907,211.67350514407735 100.82763086876366,210.96650204836624 106.95909336209297,207.55771695269505 108.89411764708348,207.0527089117386 120.83065299503505,206.95170721551403 121.3435509983683,206.39619736210443 121.13372908788733,202.98736746842042 121.59999999997672,202.48235279048095 120.38769562868401,200.66429387696553 120.55089044792112,198.26545159865054 119.59503507823683,194.1747560670192 119.61834862385876,189.9325024583668 119.26864543987904,188.19013330183225 117.45018888276536,186.5235111549846 108.68429573660251,183.2154950441618 102.622773880139,186.01847256338806 98.86929303826764,187.20531208984903 95.51214247161988,186.7760301756498 90.66292498644907,184.37709207364242 88.47145169985015,183.8973024667357 87.09595250943676,183.82154615252512 79.35585536970757,185.33666930091567 78.79633027524687,185.84170888303197 79.00615218561143,186.97804526009713 78.40000000002328,188.2406368785014 79.1460334592266,195.46257281387807 79.09940636798274,201.3965687492455" stroke="#4dd2ff" stroke-linecap="round" stroke-linejoin="round" stroke-width="0.5"><title>2022-01-15 11.2km</title></polyline><polyline fill="none" points="146.81976935756393,202.09861091984203 150.02240527188405,202.04722180770477 152.53706754534505,203.48611412613536 153.08270181226544,203.3833362974401 154.57726523885503,204.07708606187953 156.30906095553655,205.51597012634738 157.04448105441406,206.64651778680854 157.49522240529768,208.52219116553897 157.59011532133445,212.1707328222401 158.6576606259914,212.68460890685674 160.76902800658718,212.71030269155744 167.38780889625195,211.57977440248942 168.43163097207434,211.22006009868346 168.90609555202536,210.57771221816074 172.48830313025974,208.49649707676144 176.45008237240836,207.46873199852416 187.19670510711148,207.62289695051732 187.59999999997672,206.543740876019 186.935749588185,201.86735985652194 186.29522240546066,200.76249157902203 186.34266886336263,197.60203536442714 186.10543657338712,195.10962315509096 185.79703459644224,194.67280683593708 185.86820428341161,190.40739561006194 185.22767710045446,188.22327959214454 183.37726523901802,186.60445548960706 180.31696869863663,185.78219279108453 174.71828665584326,183.28969730844256 167.10313014837448,187.01558612220106 165.60856672166847,187.42671627696836 161.88401976937894,187.2725425249082 157.87479406932835,185.03701556962915 155.1466227347264,184.2147492277145 152.3947281714063,184.2147492277145 144.6372322899988,185.93636719265487 144.40000000002328,186.39888999419054 144.49489291594364,194.8269773631182 144.92191103787627,196.03464416830684 144.49489291594364,198.50135504698846 144.94563426694367,202.1500000244996" stroke="#4dd2ff" stroke-linecap="round" stroke-linejoin="round" stroke-width="0.5"><title>2022-01-11 5.6km</title></polyline><polyline fill="none" points="17.99306608887855,259.2057683097664 18.390899241552688,259.25646015565144 15.372047670651227,251.0949781559466 15.395449620787986,250.5880475139711 15.79328277357854,250.41062161535956 18.812134344596416,250.43596817782964 22.462838569888845,252.38764796074247 23.001083423616365,252.33695511732367 24.569014084525406,253.4015032815223 25.879523293697275,255.5812822500302 26.46457204769831,260.2702955278219 30.770530877634883,260.2449496793852 31.285373781225644,259.788724093145 35.4041170097189,259.5352651765279 39.171830985927954,257.2034345093125 42.98634886241052,255.65732080553425 55.06175514636561,255.63197462225799 55.59999999997672,254.8715882662509 55.412784398766235,252.2862622666289 54.59371614304837,248.99121117973118 54.12567713984754,243.3642058686528 53.70444203692023,242.3756685401022 53.93846153852064,238.54822837322718 53.51722643559333,236.67251389237936 52.534344528685324,235.6079147021228 50.638786565628834,234.56865997903515 42.77573131094687,231.72970447217813 35.82535211276263,235.22769991858513 33.46175514627248,235.76000049957656 30.630119176581502,235.6079147021228 25.551895991433412,233.09848947497085 22.22881906828843,232.51548911168356 18.320693391142413,232.87035901396303 12.868039003224112,234.51796454755822 12.868039003224112,236.77390412206296 12.563813651097007,236.62181876646355 12.400000000023283,237.10342216509162 12.51700975082349,238.64961805791245 12.961646803887561,239.58747124532238 13.008450704277493,247.6731820354471 13.453087757341564,249.62487726594554 14.459371614269912,250.23319562658435 17.54842903581448,250.18250247032847 18.882340195123106,250.5373544092581 23.609534127870575,252.64111206697999" stroke="#4dd2ff" stroke-linecap="round" stroke-linejoin="round" stroke-width="0.5"><title>2022-01-08 6.4km</title></polyline><polyline fill="none" points="80.64139814313967,249.7184615295846 82.38732932822313,250.51064254378434 83.51982523221523,250.12732937253895 84.3456034953706,250.30620890442515 88.59246313490439,252.12055330400472 90.73948661936447,253.50047095114132 91.61245221178979,255.34035273097106 91.98995084653143,258.10015736622154 91.77760786458384,259.1734088801895 92.32026215188671,260.2977640989702 96.42555980337784,260.4766384617251 100.719606772298,259.73558693853556 102.15882031677756,259.1223017394368 104.21146914258134,257.35910083941417 107.25505188421812,255.95364452007925 111.36034953582566,255.41701426298823 120.63265974877868,255.74921404241468 121.05734571279027,255.72366022437927 121.59999999997672,254.88038318773033 121.22250136535149,250.2039920401876 120.58547241950873,248.79850714621716 120.63265974877868,246.5752741242759 120.16078645549715,243.22762089132448 119.75969415623695,242.48653304562322 119.80688148550689,238.039973193052 119.35860185697675,236.353332342027 118.43844893504865,235.35667712954455 108.67067176417913,231.5233615382458 100.88476242485922,235.1777899976296 99.0916439103894,235.5611194545636 95.41103222290985,235.20334530778928 92.62697979237419,233.51669085820322 90.14964500267524,232.5711386144685 86.58700163848698,232.29002799786394 79.06062261061743,233.87446672012447 78.54156198806595,234.4366851967061 78.40000000002328,238.44885460601654 78.82468596391845,239.72660595894558 78.63593664660584,242.48653304562322 79.01343528134748,245.88530239934335 78.61234298197087,248.15964852066827 79.08421627536882,250.28065469113062 78.96624795196112,252.12055330400472 80.49983615521342,257.76795980575844" stroke="#4dd2ff" stroke-linecap="round" stroke-linejoin="round" stroke-width="0.5"><title>2022-01-02 5.9km</title></polyline><polyline fill="none" points="147.43034257763065,250.28748220243142 149.5445350734517,249.75317797044409 156.6153344209306,253.18797667417675 157.83686786307953,255.2488397351117 157.88384991849307,259.77760733649484 158.16574225132354,260.1846847034467 162.6760195759125,260.26101165713044 165.87079934752546,259.85393437874154 172.37781402934343,256.2919880222762 175.26721044047736,255.4269384430081 187.05970636219718,255.3760531071457 187.48254486138467,254.689100349613 187.60000000009313,252.90810544718988 186.51941272430122,248.735453369678 186.49592169653624,246.49644884228474 185.50929853180423,242.5272692872386 185.81468189239968,239.98289976641536 185.65024469827767,237.61661952768918 185.18042414356023,236.36986329517094 182.5494290376082,234.41066596462042 174.6564437194029,231.40823840239318 168.59575856442098,234.58877526564174 165.28352365421597,235.40298805991188 161.80685154977255,235.07221434050007 157.97781402932014,232.9603439993807 154.47765089722816,232.0189037201635 148.36998368694913,232.2479029398819 147.35986949433573,232.80767818004824 145.41011419252027,232.4514576761576 144.82283849921077,233.08756546469522 144.40000000002328,235.27576743558166 144.84632952685934,242.90892312157666 145.19869494298473,243.62134249994415 144.9637846655678,249.2697591536271 146.60815660690423,250.16026698303176 150.5311582381837,250.28748220243142 156.6153344209306,253.18797667417675 157.7663947797846,255.07074093670235 158.0247960848501,260.0065884135547 159.1758564437041,260.540877011721 162.253181076725,260.5917615975777 163.31027732475195,260.28645397129003 163.28678629698697,259.87937672255794 165.56541598704644,260.03203074628254 167.96150081569795,259.3450871159439 173.36443719419185,256.0121192744118 177.78075040783733,255.4269384430081 186.80130505713169,255.5795944062702 187.60000000009313,255.01985554906423 187.57650897221174,253.00987682832056 187.01272430666722,250.00760865872144 186.47243066888768,249.1171004413918 186.30799347476568,244.944403216301 185.67373572592624,242.5781564892095 185.9556280586403,241.86573498955113 185.74420880910475,237.43851176614407 185.25089722673874,236.21719896176364 184.19380097882822,235.14854676503455 174.91484502446838,231.48457162527484 167.37422512238845,235.0467701953021 165.23654159880243,235.6319850673608 161.17259380116593,235.17399090284016 158.04828711261507,233.21478688376374 155.15889070148114,232.40056900322088" stroke="#4dd2ff" stroke-linecap="round" stroke-linejoin="round" stroke-width="0.5"><title>2021-12-31 10.1km</title></polyline></svg>