<?xml version="1.0" encoding="utf-8" ?>
<svg baseProfile="full" height="300mm" version="1.1" viewBox="0,0,200,300" width="200mm" xmlns="http://www.w3.org/2000/svg" xmlns:ev="http://www.w3.org/2001/xml-events" xmlns:xlink="http://www.w3.org/1999/xlink"><defs /><rect fill="#222222" height="300" width="200" x="0" y="0" /><text fill="#FFFFFF" style="font-size:12px; font-family:Arial; font-weight:bold;" x="10" y="20">Over 5km Runs</text><text fill="#FFFFFF" style="font-size:4px; font-family:Arial" x="10" y="280">ATHLETE</text><text fill="#FFFFFF" style="font-size:9px; font-family:Arial" x="10" y="290">ufiv</text><text fill="#FFFFFF" style="font-size:4px; font-family:Arial" x="120" y="280">STATISTICS</text><text fill="#FFFFFF" style="font-size:3px; font-family:Arial" x="120" y="285">Number: 19</text><text fill="#FFFFFF" style="font-size:3px; font-family:Arial" x="120" y="290">Weekly: 1.3</text><text fill="#FFFFFF" style="font-size:3px; font-family:Arial" x="141" y="285">Total: 122.6 km</text><text fill="#FFFFFF" style="font-size:3px; font-family:Arial" x="141" y="290">Avg: 6.5 km</text><text fill="#FFFFFF" style="font-size:3px; font-family:Arial" x="167" y="285">Min: 5.3 km</text><text fill="#FFFFFF" style="font-size:3px; font-family:Arial" x="167" y="290">Max: 11.2 km</text><polyline fill="none" points="17.134791470947675,40.05082328016579 22.98746104777092,35.23069608662627 27.10774042987032,33.01646850822726 29.011808932293206,32.25 31.883518804621417,37.10425611953542 32.648267629381735,39.09702544899483 33.00723136338638,39.386571649767575 35.58240597724216,43.98519627684436 36.955832437903155,46.55697839606728 37.17433210212039,47.44261836406076 37.86104533239268,48.08981458157359 41.122933176578954,54.4765188046149 42.46514539956115,56.55428721490898 43.33914405631367,58.802342747410876 44.33799966413062,60.04557586624287 45.35246239078697,61.88486697085318 47.865208529052325,67.06204953617998 47.365780725260265,67.28343953740841 42.60560946940677,67.45373938909324 39.17204331763787,67.28343953740841 37.9702951645595,67.57294920805725 37.439653122855816,67.47076936709345 35.9725839489256,68.01572797885456 30.494485225062817,68.67989449015295 26.42102719959803,69.68465546066 24.8915295501356,70.31475749332458 21.926176964538172,70.8086200067919 21.770105775794946,71.18327359936666 22.160283747594804,71.94960853713565 21.052178307727445,72.29020099934132 20.88050000014482,72.75" stroke="#4dd2ff" stroke-linecap="round" stroke-linejoin="round" stroke-width="0.5"><title>2022-10-03 5.5km</title></polyline><polyline fill="none" points="59.403438091045246,51.74634256094578 61.26773754169699,49.65750560222659 62.18917290237732,49.193317757570185 62.23203036095947,48.566663097881246 62.83203478192445,48.404196874500485 64.54633312730584,50.562669960345374 65.33919611212332,51.09648363661836 66.86063589365222,50.95722798089264 67.05349445750471,49.77355245806393 67.353496667929,51.51425023964839 57.75342593353707,72.75 68.57493423915002,55.27412509653368 69.21779611858074,58.08239783535828 80.44645028118975,54.09046555959503 81.6464591230033,54.43860117252916 82.35360719054006,55.15808023759746 83.51075857377145,55.25091612810502 83.76790332561359,54.925990393559914 86.72506797139067,54.06725650525186 89.23222930158954,52.256945074594114 90.53938178997487,51.76955178374192 92.16796521807555,52.790755921334494 93.946549751563,53.022847315791296 95.96085030748509,52.88359249930363 96.45371108176187,52.21052669794881 96.26085251790937,50.30736745221657 95.61799063836224,48.42740634002257 96.11085141275544,47.38297872181283 97.24657406646293,46.50101496418938 96.15370887133759,42.81066652794834 96.00370776606724,39.0738551930699 95.4679895330919,37.42593072060845 92.98225693230052,35.545893831789726 90.71081162453629,34.91921241080854 84.96791216731071,32.25 79.6535872964887,35.08168548980029 77.51071436470374,35.63873541922658 71.98210220062174,35.42984180949861 69.51779832912143,33.85153012210503 67.13920937478542,33.10879251288134 62.917749699088745,33.57300372101599" stroke="#4dd2ff" stroke-linecap="round" stroke-linejoin="round" stroke-width="0.5"><title>2022-10-01 6.8km</title></polyline><polyline fill="none" points="104.11308871849906,56.40398677808116 106.863362541073,56.04364644642919 113.60596933192573,59.14256047227536 114.53751369111706,61.13642004184658 114.47097480832599,65.50845559162553 116.02354874042794,66.03693949154695 120.01588170859031,66.08498344063992 123.52026286965702,65.26823535800213 128.24452354875393,62.265467722550966 131.43838992342353,61.40066558911349 139.37869660463184,61.44871021131985 142.57256297918502,61.13642004184658 142.75,58.013502134301234 141.90717415115796,51.02286365753389 141.30832420592196,49.02894313170691 141.39704271627124,45.257277459371835 140.90909090905916,43.167227643571096 139.17907995614223,41.701782539865235 136.51752464391757,41.12521219457267 131.19441401970107,38.91501655936008 129.5974808324827,39.29939946995 124.58488499454688,41.67775879552937 120.14895947417244,42.5426124916994 118.39676889381371,42.23030447342899 114.60405257390812,40.16425938543398 112.51916757947765,39.563662461878266 109.72453450167086,39.53963856221526 107.2625958379358,40.06816395098576 106.37541073386092,39.68378193382523 104.97809419489931,40.50059318621061 102.848849945236,40.86095045035472 102.40525739325676,42.32639927967102 102.27217962755822,45.64165299918386 102.6492332968628,49.821708153613145 102.95974808325991,50.23010151434573 102.25,51.863669915124774 102.62705366930459,52.80056579908705 102.47179627604783,55.346987358963815 103.09282584884204,57.84534417983377" stroke="#4dd2ff" stroke-linecap="round" stroke-linejoin="round" stroke-width="0.5"><title>2022-09-11 5.7km</title></polyline><polyline fill="none" points="153.34939759026747,57.54507053751149 151.08707557502203,57.20875405467814 152.19605695502833,56.29589330632007 153.5711938663153,56.680256033694604 158.96084337343927,59.683074469154235 159.64841182914097,61.700953146559186 159.470974808326,65.7366735812393 159.95892661553808,66.28917909559095 164.37267250823788,65.71265158138704 164.97152245335747,65.95287150106742 167.25602409627754,65.71265158138704 169.87322015338577,64.67970393947326 170.93784227815922,63.67077522270847 174.1317086527124,62.10933185770409 176.59364731656387,61.41268551762914 187.0624315442983,61.43670782961999 187.75,60.98028360315948 187.5503833515104,57.88138667852036 186.72973713022657,55.527166511892574 186.9737130338326,52.88465453183744 186.1530668126652,49.18510229646927 186.0643483021995,44.740780291263945 185.73165388824418,43.3714366122731 184.71139101858716,42.21830069596763 175.8173603505129,38.71082090440905 168.83077765605412,41.978063540678704 166.01396495068911,42.62670345947845 162.53176341729704,41.88196862975019 159.16046002181247,40.00811228528619 157.03121577214915,39.45556287479121 154.23658269434236,39.45556287479121 149.8671960568754,40.680779886839446 148.53641840082128,40.65675606750301 147.5605147863971,40.993089379684534 147.25,41.449541184905684 147.8710295727942,59.22664782349602 148.58077765605412,62.82999894180102 149.00219058047514,63.21435407816898 148.93565169768408,64.00708513677819" stroke="#4dd2ff" stroke-linecap="round" stroke-linejoin="round" stroke-width="0.5"><title>2022-05-08 6.0km</title></polyline><polyline fill="none" points="15.112739725969732,105.7330017236527 15.867260273895226,105.82914503000211 16.888082191813737,105.30035649955971 17.908904109615833,105.54071502722218 22.16972602752503,107.4876126688905 24.01164383557625,108.80957367600058 24.655205479473807,110.227671432629 25.010273972642608,114.84245598010602 25.387534246663563,115.01070211798651 28.62753424665425,115.08280757948523 30.824520547990687,114.79438563931035 31.002054794575088,114.45789305819198 33.465342465788126,114.40982266154606 38.30315068503842,111.54962149739731 41.4987671233248,110.51609735153033 51.13000000000466,110.46802638249937 52.75,110.08345837891102 52.37273972609546,105.42053578514606 51.75136986305006,104.2668128417281 51.77356164390221,100.829656069458 51.21876712329686,98.0895195058547 51.15219178085681,94.05138216578052 50.686164383543655,92.27266318176407 49.26589041086845,90.95063612170634 42.63054794515483,88.57097410413553 40.3891780822305,87.41719242051477 33.62068493152037,90.63815622677794 31.978493150672875,91.09485751221655 28.383424657513388,90.83045158165623 25.165616438374855,89.07575232573436 21.481780821923167,88.04215799848316 19.151643835706636,88.11426933540497 13.071095890481956,89.8930106710468 12.538493150728755,89.70071477134479 12.605068493168801,89.46034473960754 12.25,92.00825819224701 12.82698630145751,99.45959062338807 12.560684931580909,104.86771070995019 12.89356164378114,105.18017717023031 12.693835616461001,106.33389693018398 13.004520547925495,108.01639770524343" stroke="#4dd2ff" stroke-linecap="round" stroke-linejoin="round" stroke-width="0.5"><title>2022-04-30 5.7km</title></polyline><polyline fill="none" points="59.46917808230501,105.2162356559129 60.268082191818394,105.81713182234671 62.06561643839814,105.31237911584321 67.87986301374622,107.90824197835173 69.49986301374156,110.14355202004663 69.27794520556927,110.40794253212516 69.6552054794738,111.6097149256093 69.49986301374156,113.1720125148131 70.03246575349476,115.16693564155139 73.6941095890943,115.19097078664345 77.13383561652154,114.73430273131817 79.30863013700582,113.98921139386948 80.37383561651222,113.00376543641323 82.72616438358091,111.70585652859882 86.65410958905704,110.33583604978048 94.8206849314738,110.55215544975363 97.26178082206752,110.3839070397953 97.75,109.9031968259078 97.19520547939464,105.81713182234671 96.6404109589057,104.61533839860931 96.75136986305006,102.4040270979167 96.35191780829336,98.87070555309765 95.97465753427241,98.17365126972436 95.88589041098021,93.3182669118396 95.48643835622352,92.2606489895843 94.57657534244936,91.39532272086944 85.45575342467055,87.30902921335655 78.35438356176019,90.72228961420478 76.93410958908498,91.10688012850005 73.5609589042142,90.84247419793974 68.76753424666822,88.53492256393656 66.74808219179977,88.05418061476666 65.01712328766007,88.05418061476666 62.17657534254249,88.63107086991658 60.623150684987195,89.54447838375927 57.25,89.8329223380133 57.738219178048894,102.59631562363938 57.49410958902445,104.6393743098597 57.716027397313155,107.25927817123011 58.3152054795064,108.74948946436052 58.20424657536205,109.49459259523428 58.847808219259605,112.1865641248296" stroke="#4dd2ff" stroke-linecap="round" stroke-linejoin="round" stroke-width="0.5"><title>2022-04-28 5.9km</title></polyline><polyline fill="none" points="104.99576271197293,105.50733961633523 105.01790595951024,104.93174086190993 105.54934390389826,105.3634400217561 106.56793329701759,105.09962393552996 109.66798797168303,106.97031526893261 111.68302351026796,107.37802864043624 113.7866320394678,108.86497902477277 114.40664297447074,110.06412768462906 114.76093493716326,110.1120935404615 114.3844997267006,113.5656168567948 114.56164570804685,114.6448354885797 115.77952433028258,114.93262652822887 120.03102788410615,114.93262652822887 123.9282394752372,114.16518319860916 127.64830508478917,111.76691130173276 132.14338436315302,110.13607646577293 141.6871241114568,110.35192271525739 142.284991798806,110.25599106625305 142.75,109.75234945185366 142.4178512848448,105.84310509316856 141.8199835974956,104.30817441261024 141.79784034984186,102.2216165792197 141.04496992891654,97.83260707344743 140.9563969381852,92.91588780740858 140.13709677418228,91.81261391556473 138.71992892294656,90.90121096372604 130.46049753960688,87.56737347177113 123.5296610170044,90.9491796028451 121.75820120284334,91.38089704143931 119.07886823406443,91.26097558735637 114.42878622200806,88.81456841679756 111.50587752880529,88.23894056602148 109.07012028433383,88.35886311769718 102.67072170588654,89.67800831139903 102.27214324777015,90.27761802086025 102.25,91.6207398189872 102.60429196292534,96.41755878715776 102.42714598146267,98.2882992986415 102.73715144896414,99.05577951984014 102.51571897219401,103.1569717208622 103.26858939323574,108.96091107782559" stroke="#4dd2ff" stroke-linecap="round" stroke-linejoin="round" stroke-width="0.5"><title>2022-04-16 5.8km</title></polyline><polyline fill="none" points="149.4582878954243,105.07716625506873 151.0482551800087,105.36418084346224 152.06406761193648,104.98149467003532 153.49945474381093,105.38809871455305 158.313522355631,107.68420625169529 159.24100327165797,109.14318293312681 159.30725190846715,114.16584012712701 162.4209378408268,114.85943915048847 167.38958560535684,114.38109515275573 169.90703380585182,112.8503896924667 175.40567066520452,110.2912256148993 178.0114503817167,109.95638024597429 186.8887677208986,110.1955555441964 187.75,109.57369940768695 187.15376226836815,105.29242721982882 187.39667393674608,104.0726132261043 186.86668484192342,102.99630300962599 186.5133587786695,99.3129036538594 185.98336968373042,97.7342913193279 185.76254089421127,92.5917895733437 185.45338058879133,91.87422480582609 184.4817339150468,91.08490175555926 175.78107960743364,87.64056084951153 168.29498364240862,91.08490175555926 165.7775354416808,91.46760407680995 162.9288440567907,90.91746935018455 158.13685932394583,88.52556854937575 156.25981461291667,88.33421573479427 151.82115594344214,89.12354537841748 148.11123227933422,90.0803060462058 147.49291166861076,90.53476638958091 147.25,92.68746475753142 147.82415485288948,99.28898534155451 147.6916575791547,104.88582305717864 148.2216466740938,108.01905393027118 149.17121046909597,110.88916292690556 149.19329334795475,112.39596013972186" stroke="#4dd2ff" stroke-linecap="round" stroke-linejoin="round" stroke-width="0.5"><title>2022-04-09 5.9km</title></polyline><polyline fill="none" points="14.373429819825105,153.6178201098228 16.010240305913612,153.76156265864847 16.784407427650876,153.52199170915992 18.244265428860672,153.85739098975318 23.86250682687387,157.04366714999196 24.636673948727548,158.6966855164501 24.371245221234858,162.9130426888296 25.831103222328238,163.44008354708785 28.861414527636953,163.55986544294865 30.365510649979115,163.10469400737202 30.741534680477343,163.44008354708785 31.44934462045785,163.3682143887272 40.18637356639374,159.10394963953877 42.99549426545855,158.6966855164501 50.53809393779375,158.912295997201 52.3076187876286,158.74459896879853 52.75,158.28942089065094 51.024713271530345,146.40665519493632 51.002594210905954,141.8786338683276 50.36114145279862,140.48906988586532 49.321545603568666,139.53074648726033 40.695111960638314,136.44013455708046 38.77075368654914,136.96721770978183 33.48429819778539,139.53074648726033 30.719415619969368,139.96199236120447 28.463271436397918,139.79428569946322 24.28276897885371,137.59013307702844 22.26993446215056,136.99117601491162 20.677362097310834,136.94325940296403 17.248907700763084,137.32659210369457 13.267476788721979,138.40471293596784 12.581785909365863,138.93179294918082 12.25,139.77032759797294 12.736619333736598,148.17951433817507 12.626024030614644,152.68349201593082 12.979929000604898,153.8813480681274 12.913571818731725,155.43855443428038 14.262834516703151,161.40378466484253" stroke="#4dd2ff" stroke-linecap="round" stroke-linejoin="round" stroke-width="0.5"><title>2022-03-09 5.9km</title></polyline><polyline fill="none" points="59.64539978094399,154.48054313933244 62.262595837935805,154.07215814184747 65.94441401970107,155.41742446404533 68.49507119390182,157.0029098925006 69.2713581599528,157.91576169253676 69.51533406355884,159.16492323207785 69.51533406355884,163.4168415865861 71.15662650601007,163.801193095278 74.35049288056325,163.82521504972829 78.1875684557017,163.05651164168376 86.26095290249214,159.04481175058754 97.21768893755507,158.99676714569796 97.72782037244178,158.49229837374878 97.75,156.52246056502918 97.52820372395217,154.07215814184747 96.88499452348333,152.46263589005684 96.79627601313405,147.56195275273058 96.35268346115481,146.79321155539947 96.57447973708622,144.24674357826007 96.28614457824733,141.21978444320848 94.37869660463184,139.34593871526886 86.726725082146,136.1027190973109 83.42196056956891,137.11172416433692 79.16347207012586,139.36996244563488 76.65717415115796,140.01860250573372 74.41703176347073,139.75434189403313 68.31763417308684,136.77538948398433 64.99069003283512,136.559174151771 58.580777656054124,138.0726785090519 57.7379518073285,138.76936866313918 57.25,140.42700485393289 57.58269441407174,147.08148971371702 57.91538882802706,148.11448438485968 57.516155531280674,150.49276217870647 57.67141292442102,153.42354563905974 58.780394304543734,154.0000901487656 62.77272727282252,153.87997679211549 67.56352683459409,156.234190633666 68.9830230011139,157.31520158116473 69.2713581599528,157.91576169253676 69.55969331867527,159.76547998585738 69.3822562978603,163.05651164168376 69.98110624309629,163.392819602479 72.55394304497167,163.63303936520242 71.51150054764003,163.8972809027182 69.91456736042164,163.65706133184722 69.36007667030208,162.76824740323354 69.1826396494871,158.1800077961234 68.53943044913467,157.31520158116473 64.32530120480806,154.88892763268086 61.99644030665513,154.07215814184747 61.264512595837004,154.2162940808921 60.3551478642039,153.87997679211549 58.026286966050975,154.09618080270593 57.71577217965387,155.00904062303016 58.869112814893015,159.78950223326683 60.02245345013216,162.84031348637654" stroke="#4dd2ff" stroke-linecap="round" stroke-linejoin="round" stroke-width="0.5"><title>2022-02-11 8.0km</title></polyline><polyline fill="none" points="104.40260273974854,154.38683652938926 104.69109589036088,154.07437106739962 106.11136986303609,154.26665754045825 107.46506849315483,153.9782277889317 113.70095890411176,157.15094123248127 114.54424657532945,159.02571215573698 114.5220547944773,163.37610121432226 119.24890410958324,163.4962768962141 121.53465753421187,163.0876793997886 124.19767123286147,162.29451811409672 125.64013698627241,161.09275496951886 129.0132876712596,159.41027923792717 131.38780821906403,158.6892155923997 142.2617808218347,158.73728655095329 142.75,157.94411484195734 142.59465753426775,153.6657619412581 141.9510958903702,152.2476440021128 141.57383561634924,148.01728998601902 141.08561643841676,146.5030023957952 141.08561643841676,141.52743724428 140.48643835622352,140.39770913220127 139.19931506854482,139.48430911556352 130.7886301369872,136.5037231037859 123.62068493152037,139.82082520442782 121.62342465762049,140.25348824454704 119.78150684933644,140.2775250634877 118.62753424653783,139.91697259558714 113.21273972606286,137.27290916081984 110.30561643827241,136.912353419204 107.30972602742258,137.39309432072332 106.24452054791618,138.01805644854903 104.42479452048428,137.2969461962639 103.93657534243539,137.41713134749443 102.25,139.21990337703028 102.67164383549243,147.68078223138582" stroke="#4dd2ff" stroke-linecap="round" stroke-linejoin="round" stroke-width="0.5"><title>2022-02-09 5.3km</title></polyline><polyline fill="none" points="154.06639344268478,154.638530464028 159.00163934426382,157.68272124050418 159.70983606553636,160.43924772550236 159.95327868848108,163.4833850133291 163.44999999995343,163.6032323637919 168.03114754101261,162.956056154595 173.0770491802832,160.12764153754688 177.3262295081513,158.90518365241587 187.2188524591038,159.0250326648238 187.75,158.25799823351554 187.24098360654898,153.60781383956783 186.70983606553636,152.38533181030652 186.46639344259165,148.62197635747725 185.95737704914063,146.89609198991093 186.0901639343938,144.13945240626344 185.71393442619592,141.28690546692815 183.7885245901998,139.44112666207366 175.6442622950999,136.3967676362372 168.40737704921048,139.80069477137295 166.3491803278448,140.20820482156705 163.16229508188553,139.8486371563049 159.42213114758488,137.81107965300907 157.29754098365083,137.1878242570092 155.1508196721552,137.11591009711265 150.54754098365083,137.81107965300907 147.64836065575946,138.76993180988939 147.25,142.1978054883948 147.60409836063627,143.97165620999294 147.71475409832783,154.1111874768394" stroke="#4dd2ff" stroke-linecap="round" stroke-linejoin="round" stroke-width="0.5"><title>2022-02-05 5.3km</title></polyline><polyline fill="none" points="14.118204283411615,202.3154279984592 14.918863261933438,202.6044916282408 16.831548599759117,202.33951664390042 20.2343492587097,204.09798303610296 21.23517298186198,204.19433708957513 24.059719934128225,206.19367738449364 24.74917627684772,207.97621158364927 24.682454695226625,212.02301042951876 25.39415156515315,212.28797767989454 27.974052718258463,212.2398018318927 28.61902800668031,212.6011205210234 29.33072487649042,212.19162597690593 31.888385502505116,211.83030684187543 33.7343492587097,211.0835793824226 36.46993410214782,209.32515001675347 41.362850082456134,207.63897611841094 52.01606260309927,207.78350564543507 52.75,207.13312227770803 52.260708402027376,202.41178256971762 51.66021416813601,201.25552586768754 51.927100494271144,200.02699870578363 51.637973640928976,196.75090402990463 51.01523887971416,195.35373616428114 51.01523887971416,190.53587080031866 50.52594728174154,189.18685595705756 49.72528830321971,188.51234647782985 40.62891268543899,184.8988794789766 38.916392092360184,185.4288571025827 33.33401976944879,188.2473602356331 30.131383855012245,188.75324287789408 28.285420098807663,188.46416717674583 24.526771004893817,186.34427100306493 22.569604612886906,185.69384559680475 19.38920922577381,185.69384559680475 14.407331136753783,186.801977005729 12.672570016467944,187.64511798872263 12.25,188.2714499027643 12.450164744630456,201.83365472246078 12.80601317959372,202.65266887535108 12.850494234007783,205.68782134004869 13.69563426694367,207.5667113312229 13.673393739736639,208.89156326136435 14.118204283411615,210.09596951602725" stroke="#4dd2ff" stroke-linecap="round" stroke-linejoin="round" stroke-width="0.5"><title>2022-01-20 5.9km</title></polyline><polyline fill="none" points="59.71059113298543,201.21128435397986 59.156403940869495,201.69147628857172 60.99630541866645,202.0276102279022 67.80172413785476,205.02879096847028 69.0431034482317,206.78146792185726 69.53078817739151,211.94340771855786 75.91502463060897,212.59164562620572 83.58497536939103,208.29404467373388 85.53571428568102,207.71782577451086 88.08497536939103,207.4537251101574 97.30665024626069,207.76584405446192 97.75,207.04556912308908 97.28448275860865,203.34813310974278 96.39778325124644,201.25930357875768 96.70812807884067,200.05882086546626 96.61945812799968,197.75388183706673 96.02093596057966,195.40090667057666 95.88793103443459,190.21469818949117 95.08990147779696,188.89412284840364 93.4938423645217,187.7896376028075 90.94458128081169,187.14135106600588 85.82389162562322,184.90835437379428 84.2056650245795,185.38856998941628 81.78940886701457,186.90124461860978 78.50862068973947,188.36589123486192 76.6687192118261,188.75005976483226 73.09975369449239,188.36589123486192 69.17610837426037,186.22894563802402 67.42487684718799,185.8207634470018 64.7869458127534,185.72472050524084 62.52586206886917,186.08488139288966 60.35344827582594,186.87723396424553 57.759852216695435,187.1893723345711 57.25,188.58198608789826 57.40517241379712,195.56897688066238 57.759852216695435,196.74546595910215 57.29433497530408,199.3865486420691 57.40517241379712,202.26770568959182" stroke="#4dd2ff" stroke-linecap="round" stroke-linejoin="round" stroke-width="0.5"><title>2022-01-18 5.6km</title></polyline><polyline fill="none" points="105.83445763622876,202.28937282104744 107.77968159737065,202.14733701996738 110.27131678361911,203.40198445494752 112.26025364268571,203.75707247498212 113.6809228277998,204.75131687356043 114.8393146249,206.6451073399221 114.48961144092027,208.20747619349277 114.92674042086583,211.4032073483104 115.66985968698282,211.61625497826026 119.38545601733495,211.8056305324717 123.29776038858108,210.92976767217624 124.19387479766738,210.1722627604904 124.84956826770213,210.21960686903913 125.548974635778,209.5567887238867 127.14449541282374,208.96498566993978 128.52145169989672,207.97075412116828 128.52145169989672,207.56832620379282 130.75080949801486,207.1185532377276 142.07245008088648,207.1185532377276 142.46586616290733,206.59776271230658 142.42215326498263,205.05905857289326 141.87574203999247,202.0999917392328 141.24190501892008,200.77432108609355 141.41675661085173,197.7678694500355 140.78291958977934,194.99812175007537 140.9140582837863,191.68386280332925 140.4987857528031,189.55324997042771 139.6026713437168,188.41691743131378 137.9197247705888,187.46997062233277 130.46667566115502,184.86585271096556 127.31934700487182,186.04954525007633 123.80045871564653,187.9197706996638 122.07379924459383,188.3932437946496 118.38005936320405,188.27487558539724 113.48421478678938,185.93117618968245 110.86144090665039,185.55239490728127 102.86198057211004,187.1385385892063 102.5122773880139,188.62998008419527 102.92754991911352,193.7671152179828 102.75269832706545,195.8030081228644 103.10240151104517,196.51320033078082 102.84012412303127,197.10502598871244 102.97126281703822,201.88693789069657 103.62695628718939,202.45508117738063 104.61049649224151,202.0999917392328 105.70331894222181,202.45508117738063 106.99284943332896,202.21835492821992 108.30423637339845,202.45508117738063 112.60995682678185,204.46724735476892 113.85577441984788,205.5088343801326 114.55518078780733,207.00019182771211 115.1015920129139,211.68727082401165 117.39651915803552,211.7582866542798 118.35820291412529,212.63414728900534 119.64773340523243,211.56891107253614 123.27590393950231,210.90609567033243 129.02415002696216,207.71035964312614 130.8382352940971,207.23691460472764 142.02873718284536,207.1422255145153 142.50957906094845,206.62143502695835 142.31287101993803,203.42565700161504 142.75,202.95220574105042 141.61346465186216,201.24777550960425 141.76645979494788,198.9988608737185 140.87034538586158,195.16383381281048 140.89220183482394,191.1867210546916 140.56435509992298,189.55324997042771 138.85955207771622,187.9907917077653 130.64152725308668,184.88952660388895 124.9588505126303,187.51731802814174 121.43996222340502,188.62998008419527 118.29263356712181,188.22752828962984 113.74649217480328,185.97852381900884 111.69198596861679,185.5287210625538 110.40245547762606,185.45769951795228 103.1461144090863,186.8781274695648 102.6215596330585,187.35160207780427 102.81826767406892,188.41691743131378 102.25,189.60059707355686 102.94940636807587,196.37116201300523 102.90569347003475,201.93428320239764" stroke="#4dd2ff" stroke-linecap="round" stroke-linejoin="round" stroke-width="0.5"><title>2022-01-15 11.2km</title></polyline><polyline fill="none" points="149.51853377267253,202.59244773734827 152.5210049423622,202.5442704447196 154.87850082374644,203.89323199325008 155.3900329489261,203.79687777883373 156.7911861614557,204.44726818302297 158.4147446458228,205.79622199345613 159.10420098842587,206.8561104251421 159.52677100489382,208.61455421766732 159.61573311360553,212.03506202084827 160.61655683687422,212.51682085017092 162.59596375620458,212.54090877334238 168.80107084021438,211.4810385023302 169.77965403627604,211.1438063425303 170.22446457995102,210.54160520451842 173.58278418460395,208.59046600945294 177.29695222398732,207.62693624859094 187.3719110378297,207.77146589112817 187.75,206.7597570712678 187.1272652389016,202.37564986548387 186.52677100501023,201.33983585532405 186.57125205930788,198.37690815413953 186.3488467874704,196.04027170789777 186.05971993412822,195.63075640870375 186.1264415156329,191.63193338442943 185.52594728162512,189.58432461763732 183.7911861614557,188.06667702150298 180.9221581548918,187.29580574165448 175.67339373973664,184.95909122665762 168.53418451396283,188.45211198955076 167.13303130143322,188.83754650966148 163.64126853377093,188.69300861709053 159.88261943985708,186.59720209651277 157.3249588138424,185.82632740098052 154.74505766062066,185.82632740098052 147.4724052718375,187.44034424310667 147.25,187.87395936955 147.3389621087117,195.7752912779397 147.73929159797262,196.90747890778584 147.3389621087117,199.22002035655896 147.76153212517966,202.64062502296292" stroke="#4dd2ff" stroke-linecap="round" stroke-linejoin="round" stroke-width="0.5"><title>2022-01-11 5.6km</title></polyline><polyline fill="none" points="17.493499458301812,259.8804077904206 17.866468038992025,259.9279313959414 15.03629469126463,252.27654202119447 15.05823401955422,251.80129454433336 15.431202600244433,251.63495776441414 18.261375948088244,251.65872016671347 21.683911159285344,253.48841996319243 22.1885157097131,253.4408954225073 23.658450704300776,254.43890932644717 24.887053087819368,256.48245210939785 25.43553629470989,260.87840205733664 29.472372697899118,260.8546403244254 29.95503791992087,260.4269288373471 33.816359696676955,260.1893111030222 37.34859154932201,258.0032198524859 40.924702058546245,256.5537382551993 52.24539544968866,256.52997620837414 52.75,255.8171139996266 52.57448537379969,253.3933708749828 51.80660888412967,250.30426048100344 51.367822318687104,245.02894300187472 50.9729144097073,244.102189256344 51.19230769237038,240.51396409992594 50.797399783390574,238.75548177410383 49.87594799569342,237.75742003324558 48.09886240528431,236.78311873035273 40.72724810405634,234.12159794266336 34.21126760577317,237.4009686736681 31.995395449688658,237.90000046836212 29.340736728045158,237.75742003324558 24.579902491997927,235.40483388278517 21.46451787650585,234.85827104220516 17.800650054123253,235.19096157560125 12.688786565558985,236.73559176333947 12.688786565558985,238.8505351144413 12.40357529791072,238.70795509355958 12.25,239.1594582797843 12.359696641331539,240.60901692931657 12.776543878717348,241.48825429248973 12.82042253529653,249.06860815823893 13.237269772449508,250.89832243684214 14.18066088843625,251.4686208999192 17.076652221148834,251.42109606595477 18.327193932957016,251.7537697587104 22.758938244893216,253.72604256280465" stroke="#4dd2ff" stroke-linecap="round" stroke-linejoin="round" stroke-width="0.5"><title>2022-01-08 6.4km</title></polyline><polyline fill="none" points="59.3513107590843,250.98605768402922 60.988121245172806,251.72872738481965 62.04983615502715,251.369371286768 62.82400327688083,251.5370708479022 66.80543418880552,253.23801872253534 68.81826870562509,254.53169151672046 69.63667394849472,256.25658068529447 69.99057891860139,258.84389753086725 69.79150737298187,259.85007082519587 70.30024576734286,260.90415384279913 74.14896231563762,261.07184855788364 78.1746313489275,260.37711275491165 79.52389404689893,259.8021578807384 81.44825232110452,258.149157036969 84.3016111414181,256.83154173759976 88.15032768982928,256.3284508716024 96.84311851439998,256.63988816479105 97.24126160575543,256.61593146037194 97.75,255.82535923851538 97.39609503000975,251.44124253769405 96.79888039326761,250.1236004496168 96.84311851439998,248.03931949153775 96.40073730202857,244.90089458564762 96.02471327141393,244.20612473032088 96.0689513925463,240.03747486849898 95.64868924079929,238.45624907067395 94.78604587656446,237.52188480898621 85.62875477876514,233.92815144214546 78.32946477329824,237.35417812282685 76.64841616596095,237.71354948868975 73.19784270890523,237.37813622609247 70.58779355534352,235.79689767956734 68.26529219001532,234.91044245107332 64.92531403596513,234.6469012480229 57.86933369736653,236.13231255015125 57.382714363746345,236.65939237194834 57.25,240.42080119316233 57.64814309112262,241.6186930865224 57.47119060612749,244.20612473032088 57.82509557611775,247.39247099938802 57.4490715455031,249.52467048814287 57.89145275799092,251.51311377296224 57.780857454868965,253.23801872253534 59.21859639545437,258.5324623179331" stroke="#4dd2ff" stroke-linecap="round" stroke-linejoin="round" stroke-width="0.5"><title>2022-01-02 5.9km</title></polyline><polyline fill="none" points="105.09094616642687,251.5195145648031 107.07300163130276,251.0186043473077 113.70187601959333,254.2387281320407 114.84706362162251,256.17078725167084 114.89110929856542,260.4165068779548 115.15538336057216,260.7981419094722 119.38376835233066,260.8696984285489 122.37887438829057,260.48806348009384 128.47920065256767,257.1487387708912 131.18800978793297,256.3377547903219 142.2434747145744,256.29004978796 142.6398858076427,255.64603157778038 142.75,253.97634885675507 141.7369494290324,250.0644875340804 141.71492659044452,247.9654207896383 140.78996737359557,244.24431495679892 141.07626427407376,241.8589685310435 140.92210440454073,239.64058080720133 140.48164763464592,238.47174683923367 138.01508972269949,236.6349993418262 130.6154159869766,233.8202235022618 124.93352365412284,236.80197681154823 121.82830342580564,237.56530130616738 118.56892332795542,237.25520094422973 114.97920065256767,235.27532249942305 111.69779771612957,234.39272223765147 105.97185970644932,234.60740900613018 105.0248776510125,235.13219829378068 103.19698205555324,234.79824157140683 102.6464110929519,235.39459262313903 102.25,237.44603197084507 102.66843393142335,244.60211542647448 102.99877650896087,245.27000859371037 102.77854812401347,250.5653992065345 104.32014681899454,251.4002502966032 107.99796084838454,251.5195145648031 113.70187601959333,254.2387281320407 114.78099510597531,256.003819628153 115.02324632951058,260.63117663771845 116.10236541600898,261.13207219849573 118.98735725937877,261.1797764977382 119.97838499199133,260.8935505980917 119.95636215340346,260.5119156774017 122.09257748781238,260.65502882463625 124.338907014695,260.0110191712156 129.40415986953303,256.88636181977927 133.5444535074057,256.3377547903219 142.00122349103913,256.4808697558765 142.75,255.956114577275 142.72797716152854,254.07175952655962 142.19942903751507,251.2571331175568 141.69290375197306,250.42228166380664 141.53874388255645,246.51037801531493 140.9441272430122,244.29202170865028 141.20840130501892,243.62412655269145 141.01019575854298,239.47360478076735 140.5477161500603,238.32862402667524 139.55668841768056,237.32676259224536 130.85766721039545,233.89178589871153 123.78833605221007,237.2313470581139 121.78425774886273,237.77998600064893 117.97430668852758,237.35061647143448 115.04526916798204,235.5138627035194 112.33646003261674,234.75053344052867" stroke="#4dd2ff" stroke-linecap="round" stroke-linejoin="round" stroke-width="0.5"><title>2021-12-31 10.1km</title></polyline></svg>