<?xml version="1.0" encoding="utf-8" ?>
<svg baseProfile="full" height="300mm" version="1.1" viewBox="0,0,200,300" width="200mm" xmlns="http://www.w3.org/2000/svg" xmlns:ev="http://www.w3.org/2001/xml-events" xmlns:xlink="http://www.w3.org/1999/xlink"><defs /><rect fill="#222222" height="300" width="200" x="0" y="0" /><text fill="#FFFFFF" style="font-size:12px; font-family:Arial; font-weight:bold;" x="10" y="20">Over 5km Runs</text><text fill="#FFFFFF" style="font-size:4px; font-family:Arial" x="10" y="280">ATHLETE</text><text fill="#FFFFFF" style="font-size:9px; font-family:Arial" x="10" y="290">ufiv</text><text fill="#FFFFFF" style="font-size:4px; font-family:Arial" x="120" y="280">STATISTICS</text><text fill="#FFFFFF" style="font-size:3px; font-family:Arial" x="120" y="285">Number: 14</text><text fill="#FFFFFF" style="font-size:3px; font-family:Arial" x="120" y="290">Weekly: 1.3</text><text fill="#FFFFFF" style="font-size:3px; font-family:Arial" x="141" y="285">Total: 92.9 km</text><text fill="#FFFFFF" style="font-size:3px; font-family:Arial" x="141" y="290">Avg: 6.6 km</text><text fill="#FFFFFF" style="font-size:3px; font-family:Arial" x="167" y="285">Min: 5.3 km</text><text fill="#FFFFFF" style="font-size:3px; font-family:Arial" x="167" y="290">Max: 11.2 km</text><polyline fill="none" points="14.76712328766007,58.23065136632067 15.619287671288475,58.871607277164 17.536657534190454,58.33320439027739 23.738520547864027,61.10212477692403 25.466520547983237,63.486455488047795 25.229808219126426,63.76847203428042 25.632219178020023,65.05036258735345 25.466520547983237,66.71681334916502 26.03463013691362,68.84473135101143 29.9403835615376,68.87036883909605 33.6094246575376,68.38325624677236 35.92920547933318,67.58849215347436 37.06542465754319,66.53734979886212 39.57457534247078,65.15291363053257 43.76438356155995,63.69155845310888 52.47539726016112,63.92229914641939 55.07923287677113,63.74283417579136 55.59999999997672,63.230076614330756 55.008219177951105,58.871607277164 54.416438356158324,57.58969429184799 54.53479452058673,55.23096223780885 54.10871232871432,51.4620859233255 53.70630136982072,50.71856135438429 53.611616438254714,45.5394847059797 53.185534246615134,44.41135892222519 52.21501369855832,43.48834423563676 42.48613698617555,39.12963116093306 34.9113424657844,42.770442255190574 33.396383561659604,43.180672137095826 29.798356164363213,42.89863914446323 24.685369862942025,40.43725073488895 22.531287671183236,39.924459322443 20.684931506752037,39.924459322443 17.65501369861886,40.539808927918784 15.998027397319674,41.51411027603899 12.400000000023283,41.821783827239415 12.92076712322887,55.43606999857002 12.660383561626077,57.615332597197266 12.897095890482888,60.40989671598072 13.536219178000465,61.99945542868227 13.417863013688475,62.79423210161622 14.104328767163679,65.66566839982988" stroke="#4dd2ff" stroke-linecap="round" stroke-linejoin="round" stroke-width="0.5"><title>2022-04-28 5.9km</title></polyline><polyline fill="none" points="81.3288135593757,58.5411622574029 81.35243302350864,57.92719025266706 81.91930016409606,58.38766935651074 83.0057955167722,58.10626553121256 86.31252050306648,60.10166962016956 88.4618917441694,60.53656388312811 90.7057408420369,62.122644293063786 91.36708583927248,63.40173619691632 91.74499726621434,63.45289977645734 91.34346637502313,67.13665798053262 91.53242208855227,68.28782452113228 92.83149261889048,68.59480163009721 97.36642974300776,68.59480163009721 101.52345544018317,67.7761954118323 105.49152542371303,65.21803872179589 110.28627665387467,63.478481563477544 120.46626571880188,63.70871756289853 121.10399125202093,63.60639047063887 121.59999999997672,63.06917274862644 121.24570803716779,58.899312099354574 120.60798250394873,57.262052706762915 120.5843630398158,55.036391017813 119.78130125743337,50.35478087831871 119.6868234006688,45.11028032787726 118.81290322577115,43.933454843237996 117.30125751765445,42.96129169460619 108.49119737546425,39.40519836987369 101.0983050847426,43.01245824302896 99.20874794968404,43.47295684416895 96.35079278296325,43.34504062650376 91.39070530340541,40.735539644549135 88.27293603064027,40.121536603721324 85.67479496996384,40.24945399220451 78.84876981959678,41.65654219881981 78.42361946427263,42.296125888911774 78.40000000002328,43.72878914020839 78.77791142708156,48.84539603960002 78.58895571355242,50.840852585213725 78.919628212112,51.65949815447675 78.68343357031699,56.03410316890222 79.48649535269942,62.22497181632207" stroke="#4dd2ff" stroke-linecap="round" stroke-linejoin="round" stroke-width="0.5"><title>2022-04-16 5.8km</title></polyline><polyline fill="none" points="146.75550708838273,58.08231067206361 148.45147219195496,58.388459566340316 149.53500545269344,57.98026098133414 151.06608506001066,58.4139719621744 156.2010905125644,60.86315333514358 157.19040348974522,62.41939512864337 157.26106870232616,67.7768961355905 160.58233369677328,68.51673509384273 165.88222464558203,68.00650149624562 168.56750272621866,66.37374900528812 174.43271537625697,63.64397398920846 177.21221374045126,63.28680559570785 186.68135223549325,63.54192591379979 187.59999999997672,62.87861270151916 186.96401308616623,58.31192236780771 187.2231188658625,57.01078744116239 186.65779716463294,55.86272321027354 186.2809160305187,51.9337638974539 185.71559432928916,50.24991074061836 185.48004362045322,44.76457554489025 185.1502726280596,43.999173126212554 184.1138495092746,43.15722853926127 174.8331515812315,39.483264906157274 166.84798255178612,43.15722853926127 164.16270447114948,43.565444348583696 161.12410032714251,42.97863397351466 156.0126499455655,40.42727311933413 154.01046892045997,40.22316345042782 149.27589967299718,41.06511507029063 145.31864776462317,42.085659782605944 144.65910577983595,42.570417482202174 144.40000000002328,44.866629074706 145.01243184297346,51.90825103098177 144.87110141769517,57.87821126097697 145.43642311892472,61.22032419228344 146.44929116696585,64.28177378867986 146.47284623782616,65.88902414904442" stroke="#4dd2ff" stroke-linecap="round" stroke-linejoin="round" stroke-width="0.5"><title>2022-04-09 5.9km</title></polyline><polyline fill="none" points="14.66499180777464,105.85900811711326 16.41092299297452,106.01233350255643 17.23670125612989,105.7567911564256 18.793883124133572,106.11455038902932 24.786673948634416,109.51324495996232 25.612452211906202,111.27646455087233 25.329328236053698,115.7739122013736 26.88651010382455,116.33608911687043 30.118842162773944,116.46385647245916 31.723211359931156,115.97834027450881 32.124303659191355,116.33608911687043 32.87930092844181,116.25942868128186 42.1987984708976,111.71087961550802 45.19519388314802,111.27646455087233 53.24063353356905,111.50644906365778 55.128126706695184,111.32757223336375 55.59999999997672,110.84204894999857 53.75969415623695,98.16709887457546 53.736100491601974,93.33720945953974 53.051884216372855,91.85500787824276 51.94298197713215,90.83279625306022 42.74145275808405,87.53614352751174 40.688803932396695,88.09836555708898 35.049918077653274,90.83279625306022 32.10070999455638,91.29279185194173 29.694156198762357,91.1139047460747 25.23495357739739,88.7628086154873 23.087930092937313,88.12392108255881 21.389186237123795,88.07281002981472 17.732168214046396,88.48169824393699 13.485308574629016,89.63169379835017 12.753904969897121,90.19391247912426 12.400000000023283,91.08834943780676 12.919060622691177,100.05814862737316 12.801092299283482,104.86239148364984 13.178590933908708,106.14010460599093 13.10780994000379,107.80112472988549 14.547023484483361,114.16403697582427" stroke="#4dd2ff" stroke-linecap="round" stroke-linejoin="round" stroke-width="0.5"><title>2022-03-09 5.9km</title></polyline><polyline fill="none" points="80.95509309961926,106.77924601527047 83.74676889379043,106.34363535128068 87.67404162103776,107.77858609496616 90.3947426067898,109.46977055200841 91.2227820372209,110.44347913868842 91.4830230011139,111.7759181142028 91.4830230011139,116.3112976923585 93.23373493971303,116.7212726349535 96.64052573929075,116.7468960530532 100.73340635269415,115.92694575112546 109.34501642931718,111.64779920061119 121.03220153343864,111.59655162206036 121.5763417306589,111.05845159868477 121.59999999997672,108.95729126935476 121.36341730563436,106.34363535128068 120.67732749180868,104.62681161603541 120.58269441407174,99.39941626955988 120.10952902515419,98.57942565908888 120.34611171961296,95.86319315014407 120.03855421685148,92.63443673940492 118.00394304492511,90.63566796292434 109.84184008766897,87.17623370379442 106.31675794080365,88.25250577527913 101.77437020814978,90.66129327536328 99.1009857612662,91.35317600608687 96.71150054770987,91.07129802030977 90.20547645131592,87.89374878289527 86.65673603501637,87.663119095203 79.8194961665431,89.2775237429596 78.9204819278093,90.02065990734263 78.40000000002328,91.78880517749349 78.75487404165324,98.8869223613001 79.1097480832832,99.98878334384062 78.68389923335053,102.52561299060471 78.84950711939018,105.6517820149893 80.03242059145123,106.26676282534027 84.29090909101069,106.13864191158791 89.40109529031906,108.64980334255961 90.91522453457583,109.80288168656989 91.2227820372209,110.44347913868842 91.53033953998238,112.41651198492036 91.34107338439208,115.92694575112546 91.97984665934928,116.28567424265202 94.72420591453556,116.54190865618875 93.61226725089364,116.82376629620558 91.90887185116298,116.56753208729788 91.31741511507425,115.61946389678633 91.12814895948395,110.72534164917306 90.44205914565828,109.80288168656989 85.94698795175646,107.21485614150879 83.46286966046318,106.34363535128068 82.68214676890057,106.4973803529283 81.71215772186406,106.13864191158791 79.22803943057079,106.36925952287856 78.89682365837507,107.34297666457132 80.12705366930459,112.4421357154788 81.35728368011769,115.69633438545861" stroke="#4dd2ff" stroke-linecap="round" stroke-linejoin="round" stroke-width="0.5"><title>2022-02-11 8.0km</title></polyline><polyline fill="none" points="146.69610958907288,106.67929229800939 147.00383561651688,106.34599580519716 148.51879452064168,106.55110137647716 149.96273972606286,106.24344297483913 156.61435616447125,109.6276706479548 157.51386301370803,111.62742629944114 157.49019178084563,116.26784129525186 162.5321643835632,116.39602868928341 164.9703013699036,115.96019135977258 167.8108493151376,115.11415265503456 169.34947945200838,113.83227196746157 172.9475068494212,112.03763118709321 175.48032876709476,111.2684966318775 187.07923287665471,111.31977232100326 187.59999999997672,110.47372249807813 187.43430136993993,105.91014607064426 186.74783561646473,104.3974869355734 186.34542465757113,99.88510931842029 185.82465753436554,98.2698692221602 185.82465753436554,92.96259972720873 185.18553424661513,91.75755640765419 183.81260273978114,90.7832630565681 174.84120547957718,87.60397131068748 167.1953972602496,91.1422135513858 165.06498630146962,91.60372079416993 163.10027397272643,91.62936006771633 161.86936986306682,91.2447707686224 156.09358904114924,88.42443643818842 152.99265753431246,88.0398436471296 149.79704109590966,88.55263394207577 148.66082191781607,89.21926021174295 146.71978082193527,88.45007594264462 146.1990136987297,88.57827343730605 144.40000000002328,90.50123026882648 144.84975342464168,99.52616771348403" stroke="#4dd2ff" stroke-linecap="round" stroke-linejoin="round" stroke-width="0.5"><title>2022-02-09 5.3km</title></polyline><polyline fill="none" points="19.67081967217382,154.9477658282558 24.935081967152655,158.19490265651257 25.690491803223267,161.1351975738362 25.950163934379816,164.38227734752581 29.679999999934807,164.51011452137027 34.56655737699475,163.81979323155247 39.94885245896876,160.8028176400112 44.48131147539243,159.49886256252648 55.033442622981966,159.62670150911435 55.59999999997672,158.80853144905996 55.057049180264585,153.84833476215135 54.49049180326983,152.5443539309781 54.23081967199687,148.53010811461718 53.68786885240115,146.68916478921892 53.829508196678944,143.74874923331663 53.4281967212446,140.70603249801206 51.37442622950766,138.73720177283394 42.68721311481204,135.48988547862973 34.96786885242909,139.1207410894276 32.772459016297944,139.55541847631685 29.37311475398019,139.1718796333589 25.383606557385065,136.99848496320192 23.11737704917323,136.33367920745513 20.827540983562358,136.2569707702496 15.917377049219795,136.99848496320192 12.824918032740243,138.02126059719012 12.400000000023283,141.67765918758232 12.777704918058589,143.56976662395755 12.895737704820931,154.3852666419407" stroke="#4dd2ff" stroke-linecap="round" stroke-linejoin="round" stroke-width="0.5"><title>2022-02-05 5.3km</title></polyline><polyline fill="none" points="80.3927512356313,153.8031231983623 81.24678747949656,154.11145773678436 83.28698517312296,153.8288177534996 86.9166392092593,155.70451523852535 87.98418451403268,155.8072928955371 90.9970345965121,157.9399225434754 91.73245469527319,159.84129235587898 91.66128500830382,164.15787779149832 92.42042833624873,164.44050952521502 95.17232289956883,164.38912195403827 95.86029654042795,164.77452855574666 96.61943986825645,164.33773437538184 99.34761120262556,163.95232729800045 101.31663920928258,163.1558180079155 104.23459637572523,161.28016001786455 109.45370675460435,159.48157452631858 120.81713344331365,159.63573935514432 121.60000000009313,158.94199709623354 121.07808896224014,153.90590140770655 120.4375617793994,152.67256092553725 120.72224052727688,151.362131952832 120.413838550332,147.8676309652219 119.74958813842386,146.37731857525068 119.74958813842386,141.23826218702015 119.22767710057087,139.79931302086334 118.37364085682202,139.07983624303597 108.67084019782487,135.22547144425334 106.84415156510659,135.79078090944677 100.88962108746637,138.79718425136525 97.47347611212172,139.33679240310448 95.50444810546469,139.02844498853665 91.49522240529768,136.76722240328672 89.40757825376932,136.07343530326034 86.01515650749207,136.07343530326034 80.70115321257617,137.25544213945977 78.8507413509069,138.15479252129444 78.40000000002328,138.8228798962955 78.61350906104781,153.28923170396592 78.99308072484564,154.16284680037643 79.04052718298044,157.40034276270308 79.94200988474768,159.4044920866436 79.91828665568028,160.81766747878282 80.3927512356313,162.10236748377793" stroke="#4dd2ff" stroke-linecap="round" stroke-linejoin="round" stroke-width="0.5"><title>2022-01-20 5.9km</title></polyline><polyline fill="none" points="147.0246305419132,152.62536997758434 146.43349753704388,153.1375747078273 148.39605911332183,153.49611757643288 155.65517241379712,156.697377033066 156.97931034490466,158.5668991166458 157.49950738926418,164.0729682331439 164.30935960600618,164.76442200128804 172.49064039404038,160.1803143186553 174.57142857147846,159.56568082614103 177.29064039408695,159.28397345083067 187.12709359603468,159.61690032476326 187.59999999997672,158.84860706463223 187.10344827594236,154.90467531705508 186.1576354680583,152.676590484014 186.48866995086428,151.39607558984426 186.3940886700293,148.93747395955143 185.75566502462607,146.4276337819756 185.61379310349002,140.89567806877312 184.76256157632452,139.4870643716422 183.06009852222633,138.30894677632023 180.34088669961784,137.61744113708846 174.8788177340757,135.23557799871196 173.15270935965236,135.74780798872234 170.57536945817992,137.3613275931857 167.07586206903215,138.92361731716665 165.1133004927542,139.33339708248968 161.30640394089278,138.92361731716665 157.1211822660407,136.6442086805764 155.2532019704813,136.20881434346666 152.43940886703786,136.10636853892356 150.0275862069102,136.49054015241563 147.71034482761752,137.3357162285538 144.94384236459155,137.66866382354056 144.40000000002328,139.15411849378143 144.56551724148449,146.60690867272206 144.94384236459155,147.86183035638533 144.44729064044077,150.67898521822644 144.56551724148449,153.75221940223128" stroke="#4dd2ff" stroke-linecap="round" stroke-linejoin="round" stroke-width="0.5"><title>2022-01-18 5.6km</title></polyline><polyline fill="none" points="16.223421478644013,201.77533100912115 18.298327037249692,201.62382615465322 20.956071235821582,202.96211675196537 23.07760388555471,203.3408773066767 24.592984349583276,204.40140466514276 25.82860226649791,206.42144782928517 25.455585537012666,208.0879746064311 25.92185644886922,211.49675450488576 26.714516999316402,211.72400531018502 30.677819751785137,211.92600590133225 34.850944414385594,210.991752183676 35.80679978406988,210.18374694455997 36.50620615214575,210.2342473269964 37.252239611465484,209.52724130550632 38.95412844023667,208.89598471464706 40.42288181325421,207.83547106262995 40.42288181325421,207.40621461739647 42.80086346459575,206.92645678692497 54.877280086278915,206.92645678692497 55.29692390712444,206.37094689314836 55.250296815880574,204.7296624777664 54.66745817591436,201.573324521858 53.991365353460424,200.15927582519362 54.177873718203045,196.95239408005727 53.50178089574911,193.99799653343507 53.64166216936428,190.46278699024697 53.19870480301324,188.19013330183225 52.24284943321254,186.97804526009713 50.447706421953626,185.96796866384102 42.497787371859886,183.19024289172376 39.140636805212125,184.45284826678107 35.387155963340774,186.4477554130135 33.545385860837996,186.95279338100227 29.605396654107608,186.82653395779198 24.383162439218722,184.3265879356768 21.585536967031658,183.9225545678055 13.05277927685529,185.61444116182975 12.679762547137216,187.20531208984903 13.12271991360467,192.68492289920687 12.936211548862047,194.85654199775308 13.309228278463706,195.61408035288332 13.029465731116943,196.2453610546654 13.169347004732117,201.34606708341744 13.868753372924402,201.95208658924093 14.91786292498,201.573324521858 16.08354020502884,201.95208658924093 17.459039395558648,201.69957859013812 18.857852131593972,201.95208658924093 23.450620615156367,204.09839717845898 24.779492714442313,205.20942333881976 25.52552617364563,206.80020461624372 26.108364813728258,211.79975554562407 28.556287101935595,211.87550576459034 29.58208310836926,212.80975710827624 30.95758229889907,211.67350514407735 34.82763086876366,210.96650204836624 40.95909336209297,207.55771695269505 42.894117647083476,207.0527089117386 54.83065299503505,206.95170721551403 55.3435509983683,206.39619736210443 55.13372908788733,202.98736746842042 55.59999999997672,202.48235279048095 54.387695628684014,200.66429387696553 54.55089044792112,198.26545159865054 53.59503507823683,194.1747560670192 53.618348623858765,189.9325024583668 53.26864543987904,188.19013330183225 51.45018888276536,186.5235111549846 42.68429573660251,183.2154950441618 36.62277388013899,186.01847256338806 32.86929303826764,187.20531208984903 29.51214247161988,186.7760301756498 24.66292498644907,184.37709207364242 22.47145169985015,183.8973024667357 21.095952509436756,183.82154615252512 13.35585536970757,185.33666930091567 12.796330275246873,185.84170888303197 13.006152185611427,186.97804526009713 12.400000000023283,188.2406368785014 13.1460334592266,195.46257281387807 13.099406367982738,201.3965687492455" stroke="#4dd2ff" stroke-linecap="round" stroke-linejoin="round" stroke-width="0.5"><title>2022-01-15 11.2km</title></polyline><polyline fill="none" points="80.81976935756393,202.09861091984203 84.02240527188405,202.04722180770477 86.53706754534505,203.48611412613536 87.08270181226544,203.3833362974401 88.57726523885503,204.07708606187953 90.30906095553655,205.51597012634738 91.04448105441406,206.64651778680854 91.49522240529768,208.52219116553897 91.59011532133445,212.1707328222401 92.65766062599141,212.68460890685674 94.76902800658718,212.71030269155744 101.38780889625195,211.57977440248942 102.43163097207434,211.22006009868346 102.90609555202536,210.57771221816074 106.48830313025974,208.49649707676144 110.45008237240836,207.46873199852416 121.19670510711148,207.62289695051732 121.59999999997672,206.543740876019 120.93574958818499,201.86735985652194 120.29522240546066,200.76249157902203 120.34266886336263,197.60203536442714 120.10543657338712,195.10962315509096 119.79703459644224,194.67280683593708 119.86820428341161,190.40739561006194 119.22767710045446,188.22327959214454 117.37726523901802,186.60445548960706 114.31696869863663,185.78219279108453 108.71828665584326,183.28969730844256 101.10313014837448,187.01558612220106 99.60856672166847,187.42671627696836 95.88401976937894,187.2725425249082 91.87479406932835,185.03701556962915 89.1466227347264,184.2147492277145 86.39472817140631,184.2147492277145 78.63723228999879,185.93636719265487 78.40000000002328,186.39888999419054 78.49489291594364,194.8269773631182 78.92191103787627,196.03464416830684 78.49489291594364,198.50135504698846 78.94563426694367,202.1500000244996" stroke="#4dd2ff" stroke-linecap="round" stroke-linejoin="round" stroke-width="0.5"><title>2022-01-11 5.6km</title></polyline><polyline fill="none" points="149.99306608887855,211.20576830976643 150.3908992415527,211.25646015565144 147.37204767065123,203.0949781559466 147.39544962078799,202.5880475139711 147.79328277357854,202.41062161535956 150.81213434459642,202.43596817782964 154.46283856988885,204.38764796074247 155.00108342361636,204.33695511732367 156.5690140845254,205.4015032815223 157.87952329369728,207.5812822500302 158.4645720476983,212.27029552782187 162.77053087763488,212.24494967938517 163.28537378122564,211.788724093145 167.4041170097189,211.5352651765279 171.17183098592795,209.2034345093125 174.98634886241052,207.65732080553425 187.0617551463656,207.63197462225799 187.59999999997672,206.8715882662509 187.41278439876623,204.2862622666289 186.59371614304837,200.99121117973118 186.12567713984754,195.3642058686528 185.70444203692023,194.3756685401022 185.93846153852064,190.54822837322718 185.51722643559333,188.67251389237936 184.53434452868532,187.6079147021228 182.63878656562883,186.56865997903515 174.77573131094687,183.72970447217813 167.82535211276263,187.22769991858513 165.46175514627248,187.76000049957656 162.6301191765815,187.6079147021228 157.5518959914334,185.09848947497085 154.22881906828843,184.51548911168356 150.3206933911424,184.87035901396303 144.8680390032241,186.51796454755822 144.8680390032241,188.77390412206296 144.563813651097,188.62181876646355 144.40000000002328,189.10342216509162 144.5170097508235,190.64961805791245 144.96164680388756,191.58747124532238 145.0084507042775,199.6731820354471 145.45308775734156,201.62487726594554 146.4593716142699,202.23319562658435 149.54842903581448,202.18250247032847 150.8823401951231,202.5373544092581 155.60953412787057,204.64111206697999" stroke="#4dd2ff" stroke-linecap="round" stroke-linejoin="round" stroke-width="0.5"><title>2022-01-08 6.4km</title></polyline><polyline fill="none" points="14.641398143139668,249.7184615295846 16.38732932822313,250.51064254378434 17.519825232215226,250.12732937253895 18.345603495370597,250.30620890442515 22.592463134904392,252.12055330400472 24.73948661936447,253.50047095114132 25.612452211789787,255.34035273097106 25.98995084653143,258.10015736622154 25.777607864583842,259.1734088801895 26.32026215188671,260.2977640989702 30.425559803377837,260.4766384617251 34.71960677229799,259.73558693853556 36.158820316777565,259.1223017394368 38.211469142581336,257.35910083941417 41.25505188421812,255.95364452007925 45.36034953582566,255.41701426298823 54.63265974877868,255.74921404241468 55.057345712790266,255.72366022437927 55.59999999997672,254.88038318773033 55.22250136535149,250.2039920401876 54.58547241950873,248.79850714621716 54.63265974877868,246.5752741242759 54.160786455497146,243.22762089132448 53.75969415623695,242.48653304562322 53.80688148550689,238.039973193052 53.35860185697675,236.353332342027 52.438448935048655,235.35667712954455 42.67067176417913,231.5233615382458 34.88476242485922,235.1777899976296 33.091643910389394,235.5611194545636 29.411032222909853,235.20334530778928 26.626979792374186,233.51669085820322 24.149645002675243,232.5711386144685 20.58700163848698,232.29002799786394 13.060622610617429,233.87446672012447 12.54156198806595,234.4366851967061 12.400000000023283,238.44885460601654 12.824685963918455,239.72660595894558 12.635936646605842,242.48653304562322 13.013435281347483,245.88530239934335 12.612342981970869,248.15964852066827 13.084216275368817,250.28065469113062 12.966247951961122,252.12055330400472 14.499836155213416,257.76795980575844" stroke="#4dd2ff" stroke-linecap="round" stroke-linejoin="round" stroke-width="0.5"><title>2022-01-02 5.9km</title></polyline><polyline fill="none" points="81.43034257763065,250.28748220243142 83.5445350734517,249.75317797044409 90.6153344209306,253.18797667417675 91.83686786307953,255.2488397351117 91.88384991849307,259.77760733649484 92.16574225132354,260.1846847034467 96.6760195759125,260.26101165713044 99.87079934752546,259.85393437874154 106.37781402934343,256.2919880222762 109.26721044047736,255.4269384430081 121.05970636219718,255.3760531071457 121.48254486138467,254.689100349613 121.60000000009313,252.90810544718988 120.51941272430122,248.735453369678 120.49592169653624,246.49644884228474 119.50929853180423,242.5272692872386 119.81468189239968,239.98289976641536 119.65024469827767,237.61661952768918 119.18042414356023,236.36986329517094 116.5494290376082,234.41066596462042 108.65644371940289,231.40823840239318 102.59575856442098,234.58877526564174 99.28352365421597,235.40298805991188 95.80685154977255,235.07221434050007 91.97781402932014,232.9603439993807 88.47765089722816,232.0189037201635 82.36998368694913,232.2479029398819 81.35986949433573,232.80767818004824 79.41011419252027,232.4514576761576 78.82283849921077,233.08756546469522 78.40000000002328,235.27576743558166 78.84632952685934,242.90892312157666 79.19869494298473,243.62134249994415 78.9637846655678,249.2697591536271 80.60815660690423,250.16026698303176 84.5311582381837,250.28748220243142 90.6153344209306,253.18797667417675 91.7663947797846,255.07074093670235 92.0247960848501,260.0065884135547 93.1758564437041,260.540877011721 96.25318107672501,260.5917615975777 97.31027732475195,260.28645397129003 97.28678629698697,259.87937672255794 99.56541598704644,260.03203074628254 101.96150081569795,259.3450871159439 107.36443719419185,256.0121192744118 111.78075040783733,255.4269384430081 120.80130505713169,255.5795944062702 121.60000000009313,255.01985554906423 121.57650897221174,253.00987682832056 121.01272430666722,250.00760865872144 120.47243066888768,249.1171004413918 120.30799347476568,244.944403216301 119.67373572592624,242.5781564892095 119.95562805864029,241.86573498955113 119.74420880910475,237.43851176614407 119.25089722673874,236.21719896176364 118.19380097882822,235.14854676503455 108.91484502446838,231.48457162527484 101.37422512238845,235.0467701953021 99.23654159880243,235.6319850673608 95.17259380116593,235.17399090284016 92.04828711261507,233.21478688376374 89.15889070148114,232.40056900322088" stroke="#4dd2ff" stroke-linecap="round" stroke-linejoin="round" stroke-width="0.5"><title>2021-12-31 10.1km</title></polyline></svg>