<?xml version="1.0" encoding="utf-8" ?>
<svg baseProfile="full" height="300mm" version="1.1" viewBox="0,0,200,300" width="200mm" xmlns="http://www.w3.org/2000/svg" xmlns:ev="http://www.w3.org/2001/xml-events" xmlns:xlink="http://www.w3.org/1999/xlink"><defs /><rect fill="#222222" height="300" width="200" x="0" y="0" /><text fill="#FFFFFF" style="font-size:12px; font-family:Arial; font-weight:bold;" x="10" y="20">Over 5km Runs</text><text fill="#FFFFFF" style="font-size:4px; font-family:Arial" x="10" y="280">ATHLETE</text><text fill="#FFFFFF" style="font-size:9px; font-family:Arial" x="10" y="290">ufiv</text><text fill="#FFFFFF" style="font-size:4px; font-family:Arial" x="120" y="280">STATISTICS</text><text fill="#FFFFFF" style="font-size:3px; font-family:Arial" x="120" y="285">Number: 11</text><text fill="#FFFFFF" style="font-size:3px; font-family:Arial" x="120" y="290">Weekly: 1.4</text><text fill="#FFFFFF" style="font-size:3px; font-family:Arial" x="141" y="285">Total: 75.3 km</text><text fill="#FFFFFF" style="font-size:3px; font-family:Arial" x="141" y="290">Avg: 6.8 km</text><text fill="#FFFFFF" style="font-size:3px; font-family:Arial" x="167" y="285">Min: 5.3 km</text><text fill="#FFFFFF" style="font-size:3px; font-family:Arial" x="167" y="290">Max: 11.2 km</text><polyline fill="none" points="15.831239759689197,64.82376014639158 18.013653741101734,65.01541687815916 19.045876570162363,64.69598894551746 20.992353905108757,65.14318798630848 28.483342435676605,69.39155619996018 29.51556526485365,71.59558068856131 29.16166029497981,77.21739025172428 31.108137629693374,77.92011139608803 35.14855270343833,78.0798205905885 37.15401419985574,77.47292534314329 37.655379573930986,77.92011139608803 38.59912616049405,77.82428585161688 50.24849808844738,72.13859951938502 53.993992353905924,71.59558068856131 64.05079191690311,71.88306132957223 66.41015838331077,71.65946529168286 67.0,71.05256118750549 64.69961769517977,55.20887359321932 64.67012561438605,49.171511824417394 63.81485527032055,47.318759847810725 62.42872747126967,46.040995316318 50.92681594740134,41.9201794093824 48.361004915321246,42.622956946346676 41.312397597008385,46.040995316318 37.62588749313727,46.615989814919885 34.61769524833653,46.39238093257882 29.04369197168853,43.45351076935185 26.35991261608433,42.65490135317668 24.236482796259224,42.59101253724657 19.66521026752889,43.102122804906685 14.356635718140751,44.53961724793771 13.442381212371401,45.242390598898055 13.0,46.360436797258444 13.64882577827666,57.57268578422372 13.501365374075249,63.577989354525926 13.973238667356782,65.17513075747411 13.884762424859218,67.25140591233503 15.683779355487786,75.20504621978034" stroke="#4dd2ff" stroke-linecap="round" stroke-linejoin="round" stroke-width="0.5"><title>2022-03-09 5.9km</title></polyline><polyline fill="none" points="76.19386637455318,65.97405751908082 79.68346111720894,65.42954418910085 84.5925520262681,67.2232326187077 87.99342825845815,69.33721319001052 89.02847754652612,70.55434892338235 89.35377875133418,72.21989764273167 89.35377875133418,77.88912211541901 91.54216867464129,78.4015907937137 95.80065717408434,78.43362006629468 100.91675794089679,77.40868218889227 111.68127053661738,72.05974900076399 126.29025191674009,71.99568952756817 126.9704271631781,71.32306449834141 127.0,68.69661408668617 126.70427163189743,65.42954418910085 125.84665936464444,63.28351452003699 125.72836801747326,56.7492703369644 125.13691128138453,55.72428207384655 125.4326396494871,52.32899143768009 125.04819277103525,48.29304592424887 122.50492880609818,45.79458495366271 112.302300109528,41.47029212972848 107.89594742597546,42.81563221910619 102.21796276012901,45.826616594189545 98.87623220146634,46.69147000761586 95.88937568466645,46.33912252535811 87.75684556399938,42.36718597862637 83.32092004374135,42.0788988689892 74.77437020803336,44.09690467870678 73.65060240961611,45.025824884156464 73.0,47.23600647188141 73.44359255209565,56.10865295163239 73.88718510407489,57.4859791797935 73.35487404162996,60.65701623825589 73.56188389915042,64.56472751873662 75.04052573931403,65.33345353166806 80.36363636364695,65.17330238947761 86.75136911275331,68.31225417819223 88.64403066807427,69.75360210821964 89.02847754652612,70.55434892338235 89.41292442486156,73.02063998111407 89.1763417305192,77.40868218889227 89.97480832412839,77.85709280328592 93.40525739314035,78.17738582025049 92.01533406355884,78.52970787027152 89.88608981377911,78.20941510912962 89.1467688936973,77.02432987096836 88.91018619923852,70.90667706145905 88.05257393210195,69.75360210821964 82.43373493966646,66.51857017687871 79.32858707557898,65.42954418910085 78.3526834610384,65.62172544116038 77.14019715227187,65.17330238947761 74.03504928806797,65.4615744035691 73.62102957291063,66.67872083067778 75.15881708648521,73.05266964432667 76.69660460017622,77.12041798181599" stroke="#4dd2ff" stroke-linecap="round" stroke-linejoin="round" stroke-width="0.5"><title>2022-02-11 8.0km</title></polyline><polyline fill="none" points="135.8701369863702,65.8491153724899 136.2547945205588,65.43249475650373 138.14849315071478,65.6888767205819 139.95342465757858,65.30430371855618 148.26794520555995,69.53458830993623 149.39232876710594,72.03428287428687 149.36273972608615,77.83480161908665 155.66520547948312,77.99503586161882 158.7128767123213,77.45023919970845 162.2635616438929,76.39269081878592 164.18684931506868,74.79033995931968 168.68438356171828,72.54703898387379 171.85041095886845,71.58562078984687 186.3490410958184,71.64971540123224 187.0,70.59215312259039 186.7928767123958,64.88768258833443 185.9347945204936,62.99685866944492 185.4317808218766,57.356386648025364 184.7808219178114,55.33733652767842 184.7808219178114,48.70324965901091 183.98191780829802,47.19694550955319 182.26575342472643,45.97907882073196 171.05150684935506,42.00496413838118 161.4942465753993,46.42776693921769 158.83123287686612,47.004650992690586 156.37534246582072,47.036700084630866 154.83671232883353,46.55596346076345 147.61698630149476,43.030545547720976 143.74082191777416,42.54980455891928 139.74630136985797,43.19079242760199 138.32602739729919,44.02407526469324 135.89972602739,43.06259492831305 135.2487671233248,43.22284179663984 133.0,45.62653783604037 133.562191780773,56.90770964184776" stroke="#4dd2ff" stroke-linecap="round" stroke-linejoin="round" stroke-width="0.5"><title>2022-02-09 5.3km</title></polyline><polyline fill="none" points="22.08852459024638,126.18470728534157 28.66885245894082,130.24362832063343 29.613114753970876,133.91899696728797 29.93770491797477,137.9778466844291 34.59999999997672,138.13764315171284 40.70819672127254,137.27474153944058 47.43606557382736,133.5035220500431 53.10163934424054,131.87357820317266 66.29180327872746,132.03337688639294 67.0,131.01066431135405 66.32131147535983,124.8104184527183 65.61311475408729,123.18044241372263 65.2885245900834,118.1626351432642 64.60983606544323,115.8614559865382 64.78688524581958,112.18593654167489 64.28524590155575,108.38254062252236 61.71803278697189,105.9215022160497 50.85901639354415,101.86235684828716 41.209836065536365,106.40092636179179 38.46557377045974,106.94427309540333 34.21639344259165,106.46484954169136 29.229508196702227,103.7481062040024 26.396721311612055,102.9170990093262 23.534426229423843,102.82121346279746 17.396721311612055,103.7481062040024 13.531147541012615,105.02657574650948 13.0,109.597073984507 13.472131147631444,111.96220827996149 13.619672131142579,125.48158330243314" stroke="#4dd2ff" stroke-linecap="round" stroke-linejoin="round" stroke-width="0.5"><title>2022-02-05 5.3km</title></polyline><polyline fill="none" points="75.49093904451001,124.7539039979747 76.55848434928339,125.13932217101683 79.10873146634549,124.78602219186723 83.64579901157413,127.13064404815668 84.98023064248264,127.2591161194432 88.74629324558191,129.92490317934426 89.66556836909149,132.301615444856 89.57660626037978,137.69734723938745 90.5255354201654,138.05063690652605 93.96540362446103,137.9864024425624 94.82537067553494,138.46816069469787 95.77429983532056,137.9221679692273 99.18451400322374,137.44040912252967 101.64579901157413,136.44477250991622 105.29324546956923,134.10020002236706 111.81713344331365,131.85196815789095 126.02141680405475,132.04467419395223 127.0,131.17749637030647 126.34761120274197,124.88237675963319 125.54695222410373,123.34070115690702 125.90280065895058,121.70266494105454 125.5172981879441,117.33453870654921 124.68698517302983,115.47164821907063 124.68698517302983,109.04782773379702 124.03459637565538,107.24914127608645 122.96705107088201,106.34979530380224 110.83855024725199,101.53183930533123 108.55518945644144,102.23847613681573 101.11202635930385,105.99648031420656 96.84184514009394,106.67099050388788 94.38056013185997,106.28555623569991 89.3690280065639,103.45902800411568 86.75947281706613,102.5917941291118 82.51894563436508,102.5917941291118 75.8764415156329,104.06930267432472 73.56342668854631,105.19349065163988 73.0,106.02859987036209 73.26688632625155,124.1115396299574 73.74135090608615,125.20355850050692 73.80065897875465,129.25042845340795 74.9275123559637,131.7556151082972 74.89785831957124,133.5220843484858 75.49093904451001,135.1279593547224" stroke="#4dd2ff" stroke-linecap="round" stroke-linejoin="round" stroke-width="0.5"><title>2022-01-20 5.9km</title></polyline><polyline fill="none" points="136.2807881772751,123.28171247197315 135.54187192115933,123.9219683847914 137.9950738917105,124.37014697055565 147.0689655172173,128.3717212913034 148.7241379310144,130.70862389579997 149.37438423652202,137.5912102914299 157.88669950747862,138.45552750161733 168.11330049252138,132.72539289831184 170.71428571431898,131.95710103269084 174.1133004926378,131.6049668135238 186.40886699501425,132.02112540596863 187.0,131.06075883080484 186.37931034481153,126.1308441463334 185.19704433507286,123.34573810503935 185.61083743849304,121.74509448729805 185.49261083744932,118.671842449432 184.6945812808117,115.53454222745495 184.51724137924612,108.61959758598823 183.45320197043475,106.85883046453819 181.3251231526956,105.38618347040028 177.9261083744932,104.52180142136058 171.09852216753643,101.54447249838267 168.94088669947814,102.18475998588838 165.7192118227249,104.2016594914603 161.3448275863193,106.15452164647286 158.89162561588455,106.66674635311938 154.13300492602866,106.15452164647286 148.90147783246357,103.30526085072779 146.56650246307254,102.76101792935515 143.04926108382642,102.63296067365445 140.03448275860865,103.11317519051954 137.137931034551,104.16964528567041 133.67980295571033,104.58582977941842 133.0,106.44264811722678 133.2068965517683,115.75863584090257 133.67980295571033,117.32728794548893 133.05911330052186,120.8487315227685 133.2068965517683,124.6902742527891" stroke="#4dd2ff" stroke-linecap="round" stroke-linejoin="round" stroke-width="0.5"><title>2022-01-18 5.6km</title></polyline><polyline fill="none" points="17.7792768481886,184.71916376141598 20.37290879653301,184.52978269330924 23.695089044747874,186.20264593997854 26.347004856914282,186.6760966333386 28.24123043694999,188.001755831443 29.785752833122388,190.5268097865919 29.319481921149418,192.60996825803886 29.90232056111563,196.87094313112902 30.893146249232814,197.15500663773855 35.84727468970232,197.40750737668714 41.063680518069305,196.23969022958772 42.25849973014556,195.2296836806927 43.132757690153085,195.29280915873824 44.065299514331855,194.40905163186835 46.19266055035405,193.61998089330154 48.02860226656776,192.29433882827288 48.02860226656776,191.75776827175287 51.00107933068648,191.15807098365622 66.09660010784864,191.15807098365622 66.62115488387644,190.46368361642817 66.56287101993803,188.41207809722982 65.83432271995116,184.4666556523298 64.98920669185463,182.69909478147747 65.2223421477247,178.69049260008615 64.37722611962818,174.99749566681567 64.55207771167625,170.57848373780143 63.99838100373745,167.73766662727576 62.80356179154478,166.22255657514324 60.55963302741293,164.95996082978672 50.62223421479575,161.48780361464014 46.42579600645695,163.06606033348362 41.73394495411776,165.5596942662669 39.431732326047495,166.19099172623828 34.506745817605406,166.03316744722542 27.978953049052507,162.908234919596 24.481921208789572,162.40319320975686 13.815974096069112,164.51805145229446 13.349703183979727,166.50664011231856 13.90339989203494,173.35615362401586 13.670264436048456,176.07067749719135 14.136535348021425,177.0176004410896 13.786832163925283,177.80670131833176 13.961683755973354,184.1825838542718 14.83594171621371,184.94010823656572 16.147328656166792,184.4666556523298 17.604425256256945,184.94010823656572 19.323799244361,184.62447323766537 21.072315164492466,184.94010823656572 26.813275769003667,187.62299647307373 28.47436589305289,189.01177917353925 29.406907717115246,191.00025577031192 30.13545601721853,197.24969443204463 33.195358877419494,197.3443822057452 34.477603885461576,198.51219638535986 36.196977873682044,197.0918814300967 41.034538585925475,196.20812756047235 48.698866702616215,191.94714619085426 51.11764705879614,191.31588613969507 66.03831624379382,191.18963401939254 66.67943874793127,190.49524670265964 66.41716135980096,186.23420933552552 67.0,185.60294098811573 65.48461953585502,183.3303673461778 65.68861305981409,180.33181449832045 64.49379384773783,175.2184450837958 64.52293577976525,169.91562807298033 64.0858067998197,167.73766662727576 61.81273610354401,165.65438894371619 50.85536967078224,161.51936880522408 43.27846735017374,165.0230907042278 38.58661629795097,166.50664011231856 34.39017808949575,165.97003771955497 28.328656233032234,162.9713650920603 25.589314624783583,162.3716280834342 23.869940636795945,162.27693269064184 14.194819212076254,164.1708366261446 13.495412844000384,164.80213610376813 13.757690232014284,166.22255657514324 13.0,167.80079609813401 13.932541824062355,176.8282160173694 13.874257960007526,184.24571093654959" stroke="#4dd2ff" stroke-linecap="round" stroke-linejoin="round" stroke-width="0.5"><title>2022-01-15 11.2km</title></polyline><polyline fill="none" points="76.0247116968967,185.123263649788 80.02800658985507,185.05902725964552 83.17133443173952,186.85764265764738 83.8533772652736,186.7291703718074 85.72158154856879,187.59635757736396 87.88632619439159,189.3949626579415 88.80560131790116,190.8081472335034 89.3690280065639,193.15273895690916 89.48764415155165,197.7134160278074 90.82207578246016,198.35576113360003 93.46128500823397,198.3878783644468 101.73476112028584,196.97471800312633 103.03953871503472,196.52507512338343 103.6326194399735,195.72214027270093 108.11037891276646,193.12062134596636 113.06260296539403,191.83591499814065 126.49588138388935,192.0286211881612 127.0,190.67967609505286 126.16968698520213,184.83419982067426 125.36902800679673,183.4531144737848 125.42833607911598,179.50254420551937 125.1317957167048,176.3870289438637 124.74629324558191,175.84100854492863 124.83525535429362,170.50924451259198 124.03459637553897,167.7790994901734 121.72158154868521,165.75556936202338 117.89621087315027,164.72774098886293 110.89785831968766,161.6121216355823 101.37891268543899,166.26948265277315 99.51070840202738,166.783395346225 94.85502471169457,166.5906781561498 89.84349258651491,163.79626946203643 86.4332784183789,162.7684365346504 82.99341021419968,162.7684365346504 73.29654036241118,164.9204589908477 73.0,165.49861249275273 73.11861614498775,176.03372170391958 73.65238879725803,177.54330521039083 73.11861614498775,180.62669380876468 73.68204283365048,185.18750003064633" stroke="#4dd2ff" stroke-linecap="round" stroke-linejoin="round" stroke-width="0.5"><title>2022-01-11 5.6km</title></polyline><polyline fill="none" points="139.99133261106908,196.50721038720803 140.48862405202817,196.57057519457885 136.71505958831403,186.36872269492596 136.74431202595588,185.73505939246388 137.24160346691497,185.51327701919945 141.01516793074552,185.54496022229432 145.57854821230285,187.98455995091354 146.25135427957866,187.9211938966764 148.21126760565676,189.25187910191016 149.8494041170925,191.97660281253047 150.580715059652,197.8378694097919 155.96316359716002,197.8061870992242 156.60671722656116,197.23590511645307 161.75514626223594,196.91908147066715 166.46478873246815,194.0042931366479 171.23293607798405,192.07165100693237 186.32719393295702,192.03996827782248 187.0,191.08948533280636 186.76598049839959,187.8578278333007 185.74214517872315,183.73901397467125 185.15709642483853,176.70525733582326 184.6305525462376,175.46958567513502 184.9230769231217,170.68528546654852 184.39653304452077,168.34064236548147 183.16793066088576,167.00989337766077 180.79848320712335,165.71082497379393 170.9696641387418,162.1621305902372 162.2816901409533,166.53462489822414 159.3271939328406,167.20000062449253 155.78764897072688,167.00989337766077 149.43986998929176,163.87311184371356 145.28602383530233,163.14436138959718 140.4008667388698,163.58794876746833 133.58504875411745,165.64745568443323 133.58504875411745,168.4673801525787 133.20476706384216,168.27727345807943 133.0,168.87927770637907 133.14626218844205,170.8120225724124 133.70205850491766,171.98433905665297 133.76056338031776,182.09147754430887 134.31635969656054,184.53109658244648 135.5742145178374,185.291494533245 139.4355362947099,185.2281280879106 141.10292524390388,185.67169301159447 147.01191765989643,188.30139008373953" stroke="#4dd2ff" stroke-linecap="round" stroke-linejoin="round" stroke-width="0.5"><title>2022-01-08 6.4km</title></polyline><polyline fill="none" points="15.801747678895481,244.64807691203896 17.98416166030802,245.63830317975953 19.399781540269032,245.15916171568097 20.432004369213246,245.382761130546 25.740578918601386,247.65069163005683 28.424358274205588,249.3755886889412 29.51556526485365,251.67544091373566 29.987438558251597,255.1251967078133 29.722009830758907,256.46676110028056 30.400327689829282,257.8722051237419 35.53194975433871,258.0957980771782 40.899508465314284,257.16948367320583 42.69852539594285,256.40287717434694 45.264336428255774,254.19887604928226 49.06881485541817,252.44205565014272 54.20043691981118,251.7712678287935 65.79082468606066,252.18651755305473 66.32168214104604,252.15457528049592 67.0,251.10047898470657 66.52812670671847,245.25499005027814 65.73184052447323,243.49813393282238 65.79082468606066,240.71909265537397 65.20098306948785,236.53452611417742 64.69961769529618,235.6081663070654 64.75860185688362,230.04996649135137 64.19825232122093,227.94166542755556 63.048061168869026,226.69584641198162 50.838339705136605,221.90420192285092 41.10595303121954,226.47223749707337 38.86455488798674,226.9513993182627 34.26379027857911,226.50418163478025 30.783724740496837,224.39586357277585 27.687056253431365,223.21392326810746 23.233752048108727,222.8625349973736 13.825778263271786,224.84308340019197 13.176952485111542,225.54585649594082 13.0,230.56106825754978 13.53085745498538,232.15825744869653 13.294920808286406,235.6081663070654 13.766794101684354,239.85662799919373 13.26542872749269,242.69956065085717 13.855270344181918,245.35081836394966 13.707809939980507,247.65069163005683 15.62479519401677,254.70994975723443" stroke="#4dd2ff" stroke-linecap="round" stroke-linejoin="round" stroke-width="0.5"><title>2022-01-02 5.9km</title></polyline><polyline fill="none" points="76.78792822198011,245.3593527530902 79.43066884181462,244.69147246310604 88.26916802616324,248.98497084275004 89.79608482879121,251.56104966890416 89.85481239808723,257.2220091706549 90.20717781409621,257.73085587934474 95.84502446989063,257.8262645714567 99.83849918434862,257.31741797347786 107.97226753667928,252.86498502790346 111.58401305053849,251.78367305378197 126.32463295268826,251.7200663839758 126.85318107681815,250.8613754370599 127.0,248.63513180901646 125.64926590537652,243.4193167121266 125.6199021206703,240.62056105289957 124.38662316475529,235.65908660908462 124.76835236547049,232.4786247080774 124.56280587275978,229.52077440964058 123.97553017945029,227.96232911900734 120.68678629701026,225.51333245582646 110.8205546492245,221.76029800303513 103.24469820549712,225.735969082074 99.10440456774086,226.75373507494805 94.75856443715747,226.34026792566874 89.97226753667928,223.70042999926955 85.59706362162251,222.52362965024076 77.9624796085991,222.80987867488875 76.69983686797787,223.5095977250894 74.26264274073765,223.06432209524792 73.52854812401347,223.85945683089085 73.0,226.5947092944989 73.55791190860327,236.13615390201448 73.9983686786145,237.02667812496657 73.70473083201796,244.0871989420848 75.76019575854298,245.20033372880425 80.66394779772963,245.3593527530902 88.26916802616324,248.98497084275004 89.70799347467255,251.33842617089977 90.03099510609172,257.50823551698704 91.46982055460103,258.1760962646804 95.31647634587716,258.239701996994 96.63784665591083,257.85806746414164 96.60848287120461,257.349220903212 99.45676998374984,257.54003843289684 102.45187601959333,256.6813588949735 109.20554649271071,252.51514909305843 114.72593800979666,251.78367305378197 126.0016313213855,251.97449300787412 127.0,251.27481943639577 126.97063621529378,248.76234603542252 126.26590538339224,245.00951082343818 125.59053833596408,243.8963755517907 125.38499184336979,238.6805040204199 124.59216965734959,235.7226956115628 124.94453507335857,234.83216873696074 124.68026101146825,229.2981397077092 124.06362153345253,227.77149870226276 122.74225122353528,226.43568345636595 111.14355628052726,221.85571453161538 101.71778140298557,226.30846274417127 99.04567699844483,227.03998133423738 93.9657422513701,226.4674886286084 90.06035889068153,224.01848360474105 86.44861337682232,223.00071125404793" stroke="#4dd2ff" stroke-linecap="round" stroke-linejoin="round" stroke-width="0.5"><title>2021-12-31 10.1km</title></polyline></svg>