<?xml version="1.0" encoding="utf-8" ?>
<svg baseProfile="full" height="300mm" version="1.1" viewBox="0,0,200,300" width="200mm" xmlns="http://www.w3.org/2000/svg" xmlns:ev="http://www.w3.org/2001/xml-events" xmlns:xlink="http://www.w3.org/1999/xlink"><defs /><rect fill="#222222" height="300" width="200" x="0" y="0" /><text fill="#FFFFFF" style="font-size:12px; font-family:Arial; font-weight:bold;" x="10" y="20">gt 5km</text><text fill="#FFFFFF" style="font-size:4px; font-family:Arial" x="10" y="280">ATHLETE</text><text fill="#FFFFFF" style="font-size:9px; font-family:Arial" x="10" y="290">ufiv</text><text fill="#FFFFFF" style="font-size:4px; font-family:Arial" x="120" y="280">STATISTICS</text><text fill="#FFFFFF" style="font-size:3px; font-family:Arial" x="120" y="285">Number: 5</text><text fill="#FFFFFF" style="font-size:3px; font-family:Arial" x="120" y="290">Weekly: 1.2</text><text fill="#FFFFFF" style="font-size:3px; font-family:Arial" x="141" y="285">Total: 31.1 km</text><text fill="#FFFFFF" style="font-size:3px; font-family:Arial" x="141" y="290">Avg: 6.2 km</text><text fill="#FFFFFF" style="font-size:3px; font-family:Arial" x="167" y="285">Min: 4.3 km</text><text fill="#FFFFFF" style="font-size:3px; font-family:Arial" x="167" y="290">Max: 10.1 km</text><polyline fill="none" points="23.321776814758778,92.00961384960101 23.984832069370896,92.09410025947727 18.953412784496322,78.49163025990129 18.992416034685448,77.6467458565894 19.655471289297566,77.35103602567688 24.68689057417214,77.39328029635362 30.77139761648141,80.64607993455138 31.66847237269394,80.56159186229343 34.28169014095329,82.33583880259539 36.4658721559681,85.96880375006003 37.440953412791714,93.78382587971282 44.617551462724805,93.74158279897529 45.47562296874821,92.98120682191802 52.340195016236976,92.55877529422287 58.619718309957534,88.67239084889297 64.97724810405634,86.09553467590013 85.1029252440203,86.05329103706754 86.0,84.78598044379032 85.6879739977885,80.47710377778276 84.32286023837514,74.98535196622834 83.54279523296282,65.60700978108798 82.84073672816157,63.9594475668564 83.23076923075132,57.580380622064695 82.52871072595008,54.45418982065166 80.89057421451434,52.67985783686163 77.73131094267592,50.947766631725244 64.62621885165572,46.21617412028718 53.04225352127105,52.04616653098492 49.10292524378747,52.933334166009445 44.38353196089156,52.67985783686163 35.91982665238902,48.497482458275044 30.38136511365883,47.52581518611987 23.86782231857069,48.11726502334932 14.780065005412325,50.863274245901266 14.780065005412325,54.6231735367619 14.27302275178954,54.369697944115615 14.0,55.1723702752206 14.195016251178458,57.74936342990259 14.936078006401658,59.312452075537294 15.01408450701274,72.78863672577427 15.75514626223594,76.04146210997715 17.432286023860797,77.05532604429754 22.58071505976841,76.97083745055716 24.803900325205177,77.56225734879263 32.68255687970668,81.06852011167211" stroke="#4dd2ff" stroke-linecap="round" stroke-linejoin="round" stroke-width="0.5"><title>2022-01-08 6.4km</title></polyline><polyline fill="none" points="117.73566357162781,76.19743588281563 120.64554888033308,77.51773757307092 122.53304205345921,76.87888228759402 123.90933915879577,77.17701484076679 130.98743855790235,80.2009221734479 134.5658110321965,82.50078491866589 136.0207536863163,85.56725455168635 136.64991807751358,90.16692894377047 136.29601310752332,91.95568146707956 137.20043691969477,93.82960683165584 144.04259967221878,94.12773076957092 151.19934462034144,92.89264489762718 153.59803386125714,91.87050289916806 157.01911523751915,88.93183473241515 162.09175314032473,86.58940753364004 168.93391589308158,85.69502377178287 184.38776624784805,86.24869007081725 185.0955761880614,86.20610037405277 186.0,84.80063864629483 185.37083560880274,77.00665340042906 184.3091206990648,74.66417857713532 184.38776624784805,70.9587902071653 183.6013107590843,65.37936815235298 182.93282359372824,64.14422174287029 183.0114691425115,56.733288655173965 182.26433642813936,53.92222057009349 180.73074822500348,52.26112854934763 164.4511196068488,45.87226923048729 151.47460404154845,51.96298332948936 148.4860731838271,52.60186575772241 142.3517203712836,52.00557551305974 137.7116329872515,49.194484763778746 133.582741671009,47.618564357515424 127.64500273065642,47.150046663184185 115.10103768412955,49.79077786701964 114.23593664658256,50.72780866123503 114.0,57.41475767677184 114.70780993974768,59.54434326500632 114.39322774414904,64.14422174287029 115.02239213534631,69.80883733229712 114.35390496975742,73.5994142012205 115.140360458754,77.13442448526621 114.94374658656307,80.2009221734479 117.49972692527808,89.61326634307625" stroke="#4dd2ff" stroke-linecap="round" stroke-linejoin="round" stroke-width="0.5"><title>2022-01-02 5.9km</title></polyline><polyline fill="none" points="19.050570962484926,157.14580367083545 22.574225122341886,156.25529661745531 34.35889070155099,161.97996112363762 36.39477977156639,165.4147328918625 36.473083197372034,172.96267889416777 36.94290375197306,173.64114117244026 44.46003262652084,173.76835276189377 49.784665579209104,173.0898906312941 60.62969004898332,167.15331337053794 65.44535073405132,165.7115640717093 85.09951060358435,165.62675517861499 85.80424143560231,164.48183391607017 86.0,161.5135090786789 84.1990212071687,154.55908894952154 84.15986949414946,150.82741473717033 82.51549755292945,144.2121154787892 83.02446982054971,139.97149961072137 82.75040783034638,136.0276992128638 81.96737357252277,133.94977215872495 77.5823817292694,130.68444327442558 64.42740619904362,125.68039733733167 54.326264274073765,130.98129210947081 48.80587275698781,132.33831343325437 43.01141924969852,131.78702390089165 36.62969004898332,128.26723999902606 30.796084828674793,126.69817286700709 20.61663947813213,127.079838233185 18.933115823892877,128.01279696676647 15.683523654239252,127.41909612697782 14.704730832017958,128.47927577453083 14.0,132.12627905930276 14.743882544804364,144.84820520266658 15.331158238230273,146.03557083327905 14.939641109202057,155.4495985894173 17.680261011468247,156.93377830504323 24.2185970635619,157.14580367083545 34.35889070155099,161.97996112363762 36.27732463274151,165.11790156117058 36.707993474788964,173.34431402263 38.626427406212315,174.23479501955444 43.755301794502884,174.31960266263923 45.51712887454778,173.81075661885552 45.47797716152854,173.13229453758686 49.27569331158884,173.3867179105 53.26916802604683,172.2418118599744 62.274061990203336,166.68686545742094 69.63458401313983,165.7115640717093 84.66884176176973,165.9659906771558 86.0,165.03309258181253 85.96084828698076,161.68312804723973 85.0212071777787,156.67934776455513 84.12071778136306,155.1951674023876 83.84665579115972,148.24067202725564 82.78955954313278,144.29692748203524 83.25938009773381,143.10955831597676 82.90701468195766,135.73085294367047 82.08482871134765,133.69533160302672 80.32300163130276,131.91424460842973 64.85807504062541,125.80761937546777 52.290375204058364,131.74461699221865 48.72756933118217,132.719975112268 41.95432300190441,131.9566515047627 36.74714518757537,128.69131147296866 31.931484502274543,127.3342816720833" stroke="#4dd2ff" stroke-linecap="round" stroke-linejoin="round" stroke-width="0.5"><title>2021-12-31 10.1km</title></polyline><polyline fill="none" points="114.0,157.54733154573478 117.18279569898732,157.360992319067 128.83870967756957,162.485301329114 131.41935483878478,166.77105561603094 131.4623655914329,174.7368924190523 132.1075268816203,175.90148015669547 134.30107526876964,176.32073122478323 139.76344086043537,176.55364836653462 142.73118279571645,175.38906181248603 147.8494623657316,174.59714174846886 158.64516129042022,169.0536739322706 162.73118279594928,167.7493216030416 168.83870967756957,167.1437285488937 185.05376344081014,167.46981718752068 186.0,166.16546163836028 185.26881720451638,157.54733154573478 183.93548387102783,154.33297230122844 183.8924731183797,148.55640216480242 182.68817204330117,143.85125417786185 182.68817204330117,134.72037346981233 181.82795698940754,132.11152653582394 180.10752688185312,130.15488437155727 162.73118279594928,123.44635163352359 151.54838709672913,129.08338732359698 145.26881720451638,130.99344603001373 139.97849462367594,130.62075209483737 131.80645161308348,126.47451746062143 127.6774193549063,125.12349139660364 123.29032258060761,124.84396840730915" stroke="#4dd2ff" stroke-linecap="round" stroke-linejoin="round" stroke-width="0.5"><title>2021-12-28 4.4km</title></polyline><polyline fill="none" points="14.47745358129032,239.23140207276447 18.9655172417406,242.74786156666232 22.498673740308732,244.29923523537582 25.458885941887274,247.71224541135598 26.27055702940561,258.88198254589224 31.856763925869018,259.55422965518665 35.676392573164776,258.8302712034201 39.018567639403045,259.34738445846597 42.1220159153454,258.4165803290671 47.421750663314015,256.19298776314827 49.092838196549565,254.4347933778772 54.822281167143956,252.00434105168097 55.9681697615888,250.71154388214927 60.933687002863735,249.26360826630844 84.32891246699728,249.3670323365368 85.76127320970409,248.64306352997664 86.0,247.24683589593042 84.09018567646854,235.14608173904708 83.61273209564388,224.33796935511054 82.75331564992666,222.99340801598737 82.80106100812554,213.529692919401 81.60742705594748,210.21994866244495 79.60212201601826,208.04792063240893 60.360742705641314,200.44577034487156 44.127320955041796,207.7376303729252 40.02122015925124,208.56507076427806 32.47745358129032,207.47905505332164 25.649867374217138,203.54869863408385 21.066312997369096,201.9972361800028 14.0,202.0489516495727" stroke="#4dd2ff" stroke-linecap="round" stroke-linejoin="round" stroke-width="0.5"><title>2021-12-25 4.3km</title></polyline></svg>