<?xml version="1.0" encoding="utf-8" ?>
<svg baseProfile="full" height="300mm" version="1.1" viewBox="0,0,200,300" width="200mm" xmlns="http://www.w3.org/2000/svg" xmlns:ev="http://www.w3.org/2001/xml-events" xmlns:xlink="http://www.w3.org/1999/xlink"><defs /><rect fill="#222222" height="300" width="200" x="0" y="0" /><text fill="#FFFFFF" style="font-size:12px; font-family:Arial; font-weight:bold;" x="10" y="20">Over 5km Runs</text><text fill="#FFFFFF" style="font-size:4px; font-family:Arial" x="10" y="280">ATHLETE</text><text fill="#FFFFFF" style="font-size:9px; font-family:Arial" x="10" y="290">ufiv</text><text fill="#FFFFFF" style="font-size:4px; font-family:Arial" x="120" y="280">STATISTICS</text><text fill="#FFFFFF" style="font-size:3px; font-family:Arial" x="120" y="285">Number: 8</text><text fill="#FFFFFF" style="font-size:3px; font-family:Arial" x="120" y="290">Weekly: 1.3</text><text fill="#FFFFFF" style="font-size:3px; font-family:Arial" x="141" y="285">Total: 56.1 km</text><text fill="#FFFFFF" style="font-size:3px; font-family:Arial" x="141" y="290">Avg: 7.0 km</text><text fill="#FFFFFF" style="font-size:3px; font-family:Arial" x="167" y="285">Min: 5.3 km</text><text fill="#FFFFFF" style="font-size:3px; font-family:Arial" x="167" y="290">Max: 11.2 km</text><polyline fill="none" points="22.08852459024638,66.18470728534157 28.66885245894082,70.24362832063343 29.613114753970876,73.91899696728797 29.93770491797477,77.9778466844291 34.59999999997672,78.13764315171284 40.70819672127254,77.27474153944058 47.43606557382736,73.5035220500431 53.10163934424054,71.87357820317266 66.29180327872746,72.03337688639294 67.0,71.01066431135405 66.32131147535983,64.8104184527183 65.61311475408729,63.18044241372263 65.2885245900834,58.1626351432642 64.60983606544323,55.8614559865382 64.78688524581958,52.18593654167489 64.28524590155575,48.382540622522356 61.71803278697189,45.9215022160497 50.85901639354415,41.86235684828716 41.209836065536365,46.40092636179179 38.46557377045974,46.94427309540333 34.21639344259165,46.464849541691365 29.229508196702227,43.7481062040024 26.396721311612055,42.91709900932619 23.534426229423843,42.82121346279746 17.396721311612055,43.7481062040024 13.531147541012615,45.02657574650948 13.0,49.597073984507006 13.472131147631444,51.96220827996149 13.619672131142579,65.48158330243314" stroke="#4dd2ff" stroke-linecap="round" stroke-linejoin="round" stroke-width="0.5"><title>2022-02-05 5.3km</title></polyline><polyline fill="none" points="135.49093904451001,64.7539039979747 136.5584843492834,65.13932217101683 139.1087314663455,64.78602219186723 143.64579901157413,67.13064404815668 144.98023064248264,67.2591161194432 148.7462932455819,69.92490317934426 149.6655683690915,72.301615444856 149.57660626037978,77.69734723938745 150.5255354201654,78.05063690652605 153.96540362446103,77.9864024425624 154.82537067553494,78.46816069469787 155.77429983532056,77.9221679692273 159.18451400322374,77.44040912252967 161.64579901157413,76.44477250991622 165.29324546956923,74.10020002236706 171.81713344331365,71.85196815789095 186.02141680405475,72.04467419395223 187.0,71.17749637030647 186.34761120274197,64.88237675963319 185.54695222410373,63.340701156907016 185.90280065895058,61.702664941054536 185.5172981879441,57.33453870654921 184.68698517302983,55.47164821907063 184.68698517302983,49.04782773379702 184.03459637565538,47.24914127608645 182.967051070882,46.34979530380224 170.838550247252,41.53183930533123 168.55518945644144,42.238476136815734 161.11202635930385,45.996480314206565 156.84184514009394,46.67099050388788 154.38056013185997,46.285556235699914 149.3690280065639,43.45902800411568 146.75947281706613,42.591794129111804 142.51894563436508,42.591794129111804 135.8764415156329,44.06930267432472 133.56342668854631,45.19349065163988 133.0,46.028599870362086 133.26688632625155,64.1115396299574 133.74135090608615,65.20355850050692 133.80065897875465,69.25042845340795 134.9275123559637,71.7556151082972 134.89785831957124,73.5220843484858 135.49093904451001,75.1279593547224" stroke="#4dd2ff" stroke-linecap="round" stroke-linejoin="round" stroke-width="0.5"><title>2022-01-20 5.9km</title></polyline><polyline fill="none" points="16.2807881772751,123.28171247197315 15.541871921159327,123.9219683847914 17.99507389171049,124.37014697055565 27.068965517217293,128.3717212913034 28.72413793101441,130.70862389579997 29.37438423652202,137.5912102914299 37.886699507478625,138.45552750161733 48.113300492521375,132.72539289831184 50.714285714318976,131.95710103269084 54.11330049263779,131.6049668135238 66.40886699501425,132.02112540596863 67.0,131.06075883080484 66.37931034481153,126.1308441463334 65.19704433507286,123.34573810503935 65.61083743849304,121.74509448729805 65.49261083744932,118.671842449432 64.69458128081169,115.53454222745495 64.51724137924612,108.61959758598823 63.45320197043475,106.85883046453819 61.325123152695596,105.38618347040028 57.9261083744932,104.52180142136058 51.09852216753643,101.54447249838267 48.94088669947814,102.18475998588838 45.7192118227249,104.2016594914603 41.3448275863193,106.15452164647286 38.89162561588455,106.66674635311938 34.13300492602866,106.15452164647286 28.90147783246357,103.30526085072779 26.56650246307254,102.76101792935515 23.049261083826423,102.63296067365445 20.034482758608647,103.11317519051954 17.137931034551002,104.16964528567041 13.67980295571033,104.58582977941842 13.0,106.44264811722678 13.206896551768295,115.75863584090257 13.67980295571033,117.32728794548893 13.059113300521858,120.8487315227685 13.206896551768295,124.6902742527891" stroke="#4dd2ff" stroke-linecap="round" stroke-linejoin="round" stroke-width="0.5"><title>2022-01-18 5.6km</title></polyline><polyline fill="none" points="137.7792768481886,124.71916376141598 140.372908796533,124.52978269330924 143.69508904474787,126.20264593997854 146.34700485691428,126.6760966333386 148.24123043695,128.001755831443 149.7857528331224,130.5268097865919 149.31948192114942,132.60996825803886 149.90232056111563,136.87094313112902 150.8931462492328,137.15500663773855 155.84727468970232,137.40750737668714 161.0636805180693,136.23969022958772 162.25849973014556,135.2296836806927 163.13275769015308,135.29280915873824 164.06529951433185,134.40905163186835 166.19266055035405,133.61998089330154 168.02860226656776,132.29433882827288 168.02860226656776,131.75776827175287 171.00107933068648,131.15807098365622 186.09660010784864,131.15807098365622 186.62115488387644,130.46368361642817 186.56287101993803,128.41207809722982 185.83432271995116,124.46665565232979 184.98920669185463,122.69909478147747 185.2223421477247,118.69049260008615 184.37722611962818,114.99749566681567 184.55207771167625,110.57848373780143 183.99838100373745,107.73766662727576 182.80356179154478,106.22255657514324 180.55963302741293,104.95996082978672 170.62223421479575,101.48780361464014 166.42579600645695,103.06606033348362 161.73394495411776,105.55969426626689 159.4317323260475,106.19099172623828 154.5067458176054,106.03316744722542 147.9789530490525,102.908234919596 144.48192120878957,102.40319320975686 133.8159740960691,104.51805145229446 133.34970318397973,106.50664011231856 133.90339989203494,113.35615362401586 133.67026443604846,116.07067749719135 134.13653534802143,117.0176004410896 133.78683216392528,117.80670131833176 133.96168375597335,124.1825838542718 134.8359417162137,124.94010823656572 136.1473286561668,124.46665565232979 137.60442525625695,124.94010823656572 139.323799244361,124.62447323766537 141.07231516449247,124.94010823656572 146.81327576900367,127.62299647307373 148.4743658930529,129.01177917353925 149.40690771711525,131.00025577031192 150.13545601721853,137.24969443204463 153.1953588774195,137.3443822057452 154.47760388546158,138.51219638535986 156.19697787368204,137.0918814300967 161.03453858592547,136.20812756047235 168.69886670261621,131.94714619085426 171.11764705879614,131.31588613969507 186.03831624379382,131.18963401939254 186.67943874793127,130.49524670265964 186.41716135980096,126.23420933552552 187.0,125.60294098811573 185.48461953585502,123.33036734617781 185.6886130598141,120.33181449832045 184.49379384773783,115.21844508379581 184.52293577976525,109.91562807298033 184.0858067998197,107.73766662727576 181.812736103544,105.65438894371619 170.85536967078224,101.51936880522408 163.27846735017374,105.0230907042278 158.58661629795097,106.50664011231856 154.39017808949575,105.97003771955497 148.32865623303223,102.9713650920603 145.58931462478358,102.37162808343419 143.86994063679595,102.27693269064184 134.19481921207625,104.17083662614459 133.49541284400038,104.80213610376813 133.75769023201428,106.22255657514324 133.0,107.80079609813401 133.93254182406235,116.82821601736941 133.87425796000753,124.24571093654959" stroke="#4dd2ff" stroke-linecap="round" stroke-linejoin="round" stroke-width="0.5"><title>2022-01-15 11.2km</title></polyline><polyline fill="none" points="16.024711696896702,185.123263649788 20.028006589855067,185.05902725964552 23.171334431739524,186.85764265764738 23.853377265273593,186.7291703718074 25.721581548568793,187.59635757736396 27.886326194391586,189.3949626579415 28.805601317901164,190.8081472335034 29.369028006563894,193.15273895690916 29.48764415155165,197.7134160278074 30.82207578246016,198.35576113360003 33.46128500823397,198.3878783644468 41.73476112028584,196.97471800312633 43.03953871503472,196.52507512338343 43.632619439973496,195.72214027270093 48.110378912766464,193.12062134596636 53.062602965394035,191.83591499814065 66.49588138388935,192.0286211881612 67.0,190.67967609505286 66.16968698520213,184.83419982067426 65.36902800679673,183.4531144737848 65.42833607911598,179.50254420551937 65.1317957167048,176.3870289438637 64.74629324558191,175.84100854492863 64.83525535429362,170.50924451259198 64.03459637553897,167.7790994901734 61.72158154868521,165.75556936202338 57.89621087315027,164.72774098886293 50.89785831968766,161.6121216355823 41.37891268543899,166.26948265277315 39.510708402027376,166.783395346225 34.85502471169457,166.5906781561498 29.843492586514913,163.79626946203643 26.433278418378904,162.7684365346504 22.993410214199685,162.7684365346504 13.296540362411179,164.9204589908477 13.0,165.49861249275273 13.118616144987755,176.03372170391958 13.652388797258027,177.54330521039083 13.118616144987755,180.62669380876468 13.682042833650485,185.18750003064633" stroke="#4dd2ff" stroke-linecap="round" stroke-linejoin="round" stroke-width="0.5"><title>2022-01-11 5.6km</title></polyline><polyline fill="none" points="139.99133261106908,196.50721038720803 140.48862405202817,196.57057519457885 136.71505958831403,186.36872269492596 136.74431202595588,185.73505939246388 137.24160346691497,185.51327701919945 141.01516793074552,185.54496022229432 145.57854821230285,187.98455995091354 146.25135427957866,187.9211938966764 148.21126760565676,189.25187910191016 149.8494041170925,191.97660281253047 150.580715059652,197.8378694097919 155.96316359716002,197.8061870992242 156.60671722656116,197.23590511645307 161.75514626223594,196.91908147066715 166.46478873246815,194.0042931366479 171.23293607798405,192.07165100693237 186.32719393295702,192.03996827782248 187.0,191.08948533280636 186.76598049839959,187.8578278333007 185.74214517872315,183.73901397467125 185.15709642483853,176.70525733582326 184.6305525462376,175.46958567513502 184.9230769231217,170.68528546654852 184.39653304452077,168.34064236548147 183.16793066088576,167.00989337766077 180.79848320712335,165.71082497379393 170.9696641387418,162.1621305902372 162.2816901409533,166.53462489822414 159.3271939328406,167.20000062449253 155.78764897072688,167.00989337766077 149.43986998929176,163.87311184371356 145.28602383530233,163.14436138959718 140.4008667388698,163.58794876746833 133.58504875411745,165.64745568443323 133.58504875411745,168.4673801525787 133.20476706384216,168.27727345807943 133.0,168.87927770637907 133.14626218844205,170.8120225724124 133.70205850491766,171.98433905665297 133.76056338031776,182.09147754430887 134.31635969656054,184.53109658244648 135.5742145178374,185.291494533245 139.4355362947099,185.2281280879106 141.10292524390388,185.67169301159447 147.01191765989643,188.30139008373953" stroke="#4dd2ff" stroke-linecap="round" stroke-linejoin="round" stroke-width="0.5"><title>2022-01-08 6.4km</title></polyline><polyline fill="none" points="15.801747678895481,244.64807691203896 17.98416166030802,245.63830317975953 19.399781540269032,245.15916171568097 20.432004369213246,245.382761130546 25.740578918601386,247.65069163005683 28.424358274205588,249.3755886889412 29.51556526485365,251.67544091373566 29.987438558251597,255.1251967078133 29.722009830758907,256.46676110028056 30.400327689829282,257.8722051237419 35.53194975433871,258.0957980771782 40.899508465314284,257.16948367320583 42.69852539594285,256.40287717434694 45.264336428255774,254.19887604928226 49.06881485541817,252.44205565014272 54.20043691981118,251.7712678287935 65.79082468606066,252.18651755305473 66.32168214104604,252.15457528049592 67.0,251.10047898470657 66.52812670671847,245.25499005027814 65.73184052447323,243.49813393282238 65.79082468606066,240.71909265537397 65.20098306948785,236.53452611417742 64.69961769529618,235.6081663070654 64.75860185688362,230.04996649135137 64.19825232122093,227.94166542755556 63.048061168869026,226.69584641198162 50.838339705136605,221.90420192285092 41.10595303121954,226.47223749707337 38.86455488798674,226.9513993182627 34.26379027857911,226.50418163478025 30.783724740496837,224.39586357277585 27.687056253431365,223.21392326810746 23.233752048108727,222.8625349973736 13.825778263271786,224.84308340019197 13.176952485111542,225.54585649594082 13.0,230.56106825754978 13.53085745498538,232.15825744869653 13.294920808286406,235.6081663070654 13.766794101684354,239.85662799919373 13.26542872749269,242.69956065085717 13.855270344181918,245.35081836394966 13.707809939980507,247.65069163005683 15.62479519401677,254.70994975723443" stroke="#4dd2ff" stroke-linecap="round" stroke-linejoin="round" stroke-width="0.5"><title>2022-01-02 5.9km</title></polyline><polyline fill="none" points="136.7879282219801,245.3593527530902 139.43066884181462,244.69147246310604 148.26916802616324,248.98497084275004 149.7960848287912,251.56104966890416 149.85481239808723,257.2220091706549 150.2071778140962,257.73085587934474 155.84502446989063,257.8262645714567 159.83849918434862,257.31741797347786 167.97226753667928,252.86498502790346 171.5840130505385,251.78367305378197 186.32463295268826,251.7200663839758 186.85318107681815,250.8613754370599 187.0,248.63513180901646 185.64926590537652,243.4193167121266 185.6199021206703,240.62056105289957 184.3866231647553,235.65908660908462 184.7683523654705,232.4786247080774 184.56280587275978,229.52077440964058 183.9755301794503,227.96232911900734 180.68678629701026,225.51333245582646 170.8205546492245,221.76029800303513 163.24469820549712,225.735969082074 159.10440456774086,226.75373507494805 154.75856443715747,226.34026792566874 149.97226753667928,223.70042999926955 145.5970636216225,222.52362965024076 137.9624796085991,222.80987867488875 136.69983686797787,223.5095977250894 134.26264274073765,223.06432209524792 133.52854812401347,223.85945683089085 133.0,226.5947092944989 133.55791190860327,236.13615390201448 133.9983686786145,237.02667812496657 133.70473083201796,244.0871989420848 135.76019575854298,245.20033372880425 140.66394779772963,245.3593527530902 148.26916802616324,248.98497084275004 149.70799347467255,251.33842617089977 150.03099510609172,257.50823551698704 151.46982055460103,258.1760962646804 155.31647634587716,258.239701996994 156.63784665591083,257.85806746414164 156.60848287120461,257.349220903212 159.45676998374984,257.54003843289684 162.45187601959333,256.6813588949735 169.2055464927107,252.51514909305843 174.72593800979666,251.78367305378197 186.0016313213855,251.97449300787412 187.0,251.27481943639577 186.97063621529378,248.76234603542252 186.26590538339224,245.00951082343818 185.59053833596408,243.8963755517907 185.3849918433698,238.6805040204199 184.5921696573496,235.7226956115628 184.94453507335857,234.83216873696074 184.68026101146825,229.2981397077092 184.06362153345253,227.77149870226276 182.74225122353528,226.43568345636595 171.14355628052726,221.85571453161538 161.71778140298557,226.30846274417127 159.04567699844483,227.03998133423738 153.9657422513701,226.4674886286084 150.06035889068153,224.01848360474105 146.44861337682232,223.00071125404793" stroke="#4dd2ff" stroke-linecap="round" stroke-linejoin="round" stroke-width="0.5"><title>2021-12-31 10.1km</title></polyline></svg>