<?xml version="1.0" encoding="utf-8" ?>
<svg baseProfile="full" height="300mm" version="1.1" viewBox="0,0,200,300" width="200mm" xmlns="http://www.w3.org/2000/svg" xmlns:ev="http://www.w3.org/2001/xml-events" xmlns:xlink="http://www.w3.org/1999/xlink"><defs /><rect fill="#222222" height="300" width="200" x="0" y="0" /><text fill="#FFFFFF" style="font-size:12px; font-family:Arial; font-weight:bold;" x="10" y="20">Over 5km Runs</text><text fill="#FFFFFF" style="font-size:4px; font-family:Arial" x="10" y="280">ATHLETE</text><text fill="#FFFFFF" style="font-size:9px; font-family:Arial" x="10" y="290">ufiv</text><text fill="#FFFFFF" style="font-size:4px; font-family:Arial" x="120" y="280">STATISTICS</text><text fill="#FFFFFF" style="font-size:3px; font-family:Arial" x="120" y="285">Number: 3</text><text fill="#FFFFFF" style="font-size:3px; font-family:Arial" x="120" y="290">Weekly: 1.0</text><text fill="#FFFFFF" style="font-size:3px; font-family:Arial" x="141" y="285">Total: 22.4 km</text><text fill="#FFFFFF" style="font-size:3px; font-family:Arial" x="141" y="290">Avg: 7.5 km</text><text fill="#FFFFFF" style="font-size:3px; font-family:Arial" x="167" y="285">Min: 5.9 km</text><text fill="#FFFFFF" style="font-size:3px; font-family:Arial" x="167" y="290">Max: 10.1 km</text><polyline fill="none" points="24.986998916603625,99.76081558084115 25.73293607798405,99.85586279188283 20.07258938252926,84.55308404238895 20.11646803910844,83.60258908866672 20.862405200488865,83.26991552882828 26.522751896176487,83.31744033342693 33.36782231857069,86.97683992638486 34.3770314194262,86.88179084501462 37.31690140860155,88.87781865289435 39.774106175638735,92.96490421879571 40.87107258941978,101.75680411467329 48.944745395798236,101.70928064885084 49.91007583984174,100.85385767469415 57.63271939335391,100.37862220604438 64.69718309864402,96.00643970497185 71.84940411709249,93.10747651039856 94.49079089937732,93.05995241674827 95.5,91.6342279992532 95.14897074759938,86.78674174996559 93.61321776825935,80.60852096200688 92.73564463737421,70.05788600374945 91.9458288194146,68.20437851268798 92.38461538474075,61.027928199851885 91.59479956678115,57.510963548207656 89.75189599138685,55.51484006649116 86.19772481056862,53.56623746070545 71.45449620811269,48.24319588532671 58.42253521154635,54.80193734733621 53.990790899377316,55.800000936724246 48.681473456090316,55.51484006649116 39.159804983995855,50.80966776557034 32.9290357530117,49.71654208441032 25.601300108246505,50.3819231512025 15.37757313111797,53.47118352667894 15.37757313111797,57.7010702288826 14.80715059582144,57.41591018711915 14.5,58.318916559568606 14.719393282663077,61.218033858633135 15.553087757434696,62.976508584979456 15.640845070593059,78.13721631647786 16.474539544899017,81.79664487368427 18.3613217768725,82.93724179983838 24.153304442297667,82.84219213190954 26.654387865914032,83.50753951742081 35.51787648978643,87.4520851256093" stroke="#4dd2ff" stroke-linecap="round" stroke-linejoin="round" stroke-width="0.5"><title>2022-01-08 6.4km</title></polyline><polyline fill="none" points="108.7026215181686,81.97211536805844 111.97624249034561,83.4574547696393 114.0996723100543,82.738742573536 115.64800655376166,83.07414169580443 123.61086837761104,86.47603744507069 127.63653741125017,89.06338303344091 129.27334789698943,92.51316137058893 129.98115783720277,97.6877950617345 129.58301474596374,99.70014165039174 130.60049153468572,101.80830768559827 138.29792463127524,102.14369711576728 146.349262697855,100.7542255098233 149.04778809379786,99.60431576147676 152.89650464220904,96.29831407393795 158.6032222828362,93.66308347519953 166.30065537965856,92.6569017432048 183.68623702879995,93.27977632958209 184.48252321151085,93.23186292074388 185.5,91.65071847703075 184.7921900600195,82.8824850753881 183.59776078653522,80.24720089923358 183.68623702879995,76.0786389830755 182.80147460405715,69.80178917129524 182.04942654282786,68.41224946064176 182.1379027850926,60.07494973699795 181.29737848159857,56.912498141347896 179.57209175312892,55.04376961797243 161.25750955753028,47.856302884290926 146.65892954659648,54.708356245653704 143.2968323319219,55.4270989773795 136.39568541781045,54.75627245218493 131.17558711068705,51.593795359134674 126.53058438003063,49.820884902146645 119.85062807193026,49.29380249604583 105.73866739473306,52.26462510030251 104.76542872749269,53.318784743896686 104.5,60.841602386324666 105.29628618224524,63.2373861730448 104.94238121225499,68.41224946064176 105.6501911522355,74.78494199877605 104.8981430910062,79.04934097628575 105.78290551598184,83.02622754592448 105.56171490973793,86.47603744507069 108.43719279090874,97.06492463586619" stroke="#4dd2ff" stroke-linecap="round" stroke-linejoin="round" stroke-width="0.5"><title>2022-01-02 5.9km</title></polyline><polyline fill="none" points="20.18189233285375,233.0390291296062 24.146003262605518,232.0372086946154 37.40375203918666,238.4774562640814 39.69412724324502,242.3415745033417 39.78221859713085,250.83301375590963 40.31076672114432,251.59628381894436 48.767536704661325,251.73939685709774 54.75774877658114,250.97612696018768 66.95840130513534,244.29747754178243 72.37601957586594,242.67550958064385 94.48694942914881,242.58009957592003 95.27977161528543,241.29206315556075 95.5,237.95269771351013 93.47389885806479,230.1289750681608 93.42985318088904,225.9308415792766 91.57993474719115,218.48862991359783 92.15252854814753,213.717937062087 91.84420880908147,209.28116161440266 90.96329526929185,206.94349367846735 86.03017944539897,203.26999868365237 71.23083197395317,197.6404470045236 59.867047308245674,203.60395362309646 53.656606851611286,205.13060261233477 47.137846655910835,204.51040188845946 39.95840130513534,200.5506449988461 33.39559543225914,198.78544447530294 21.943719412898645,199.21481801226037 20.049755302025005,200.26439658756135 16.39396411110647,199.59648314281367 15.292822185903788,200.78918524627807 14.5,204.89206394169014 15.336867862846702,219.20423085294897 15.997553017921746,220.54001718742074 15.557096248026937,231.130798413069 18.64029363798909,232.80050059320638 25.995921696769074,233.0390291296062 37.40375203918666,238.4774562640814 39.561990211950615,242.007639256306 40.04649265902117,251.2623532754369 42.20473083201796,252.26414439699147 47.97471451875754,252.3595529954764 49.95676998398267,251.78710119618336 49.91272430680692,251.0238313548034 54.185154975624755,251.3100576492725 58.67781402938999,250.0220383424312 68.80831973906606,243.77272363955854 77.08890701481141,242.67550958064385 94.00244698207825,242.96173951175297 95.5,241.91222915455 95.45595432305709,238.14351905311923 94.39885807503015,232.5142662351136 93.38580750394613,230.8445633276133 93.07748776511289,223.02075603062985 91.88825448602438,218.58404341730056 92.41680261003785,217.2482531053829 92.02039151708595,208.9472095615347 91.09543230012059,206.6572480533505 89.11337683536112,204.65352518449072 71.7153344207909,197.78357179742306 57.57667210442014,204.4626941162278 53.56851549772546,205.55997200129787 45.94861337705515,204.70123294286896 40.090538335964084,201.02772540703882 34.672920065233484,199.50106688105734" stroke="#4dd2ff" stroke-linecap="round" stroke-linejoin="round" stroke-width="0.5"><title>2021-12-31 10.1km</title></polyline></svg>