<?xml version="1.0" encoding="utf-8" ?>
<svg baseProfile="full" height="300mm" version="1.1" viewBox="0,0,200,300" width="200mm" xmlns="http://www.w3.org/2000/svg" xmlns:ev="http://www.w3.org/2001/xml-events" xmlns:xlink="http://www.w3.org/1999/xlink"><defs /><rect fill="#222222" height="300" width="200" x="0" y="0" /><text fill="#FFFFFF" style="font-size:12px; font-family:Arial; font-weight:bold;" x="10" y="20">Over 5km Runs</text><text fill="#FFFFFF" style="font-size:4px; font-family:Arial" x="10" y="280">ATHLETE</text><text fill="#FFFFFF" style="font-size:9px; font-family:Arial" x="10" y="290">ufiv</text><text fill="#FFFFFF" style="font-size:4px; font-family:Arial" x="120" y="280">STATISTICS</text><text fill="#FFFFFF" style="font-size:3px; font-family:Arial" x="120" y="285">Number: 7</text><text fill="#FFFFFF" style="font-size:3px; font-family:Arial" x="120" y="290">Weekly: 1.4</text><text fill="#FFFFFF" style="font-size:3px; font-family:Arial" x="141" y="285">Total: 50.8 km</text><text fill="#FFFFFF" style="font-size:3px; font-family:Arial" x="141" y="290">Avg: 7.3 km</text><text fill="#FFFFFF" style="font-size:3px; font-family:Arial" x="167" y="285">Min: 5.6 km</text><text fill="#FFFFFF" style="font-size:3px; font-family:Arial" x="167" y="290">Max: 11.2 km</text><polyline fill="none" points="15.490939044510014,64.7539039979747 16.55848434928339,65.13932217101683 19.10873146634549,64.78602219186723 23.645799011574127,67.13064404815668 24.98023064248264,67.2591161194432 28.74629324558191,69.92490317934426 29.66556836909149,72.301615444856 29.576606260379776,77.69734723938745 30.525535420165397,78.05063690652605 33.96540362446103,77.9864024425624 34.82537067553494,78.46816069469787 35.77429983532056,77.9221679692273 39.18451400322374,77.44040912252967 41.64579901157413,76.44477250991622 45.29324546956923,74.10020002236706 51.81713344331365,71.85196815789095 66.02141680405475,72.04467419395223 67.0,71.17749637030647 66.34761120274197,64.88237675963319 65.54695222410373,63.340701156907016 65.90280065895058,61.702664941054536 65.5172981879441,57.33453870654921 64.68698517302983,55.47164821907063 64.68698517302983,49.04782773379702 64.03459637565538,47.24914127608645 62.96705107088201,46.34979530380224 50.83855024725199,41.53183930533123 48.55518945644144,42.238476136815734 41.112026359303854,45.996480314206565 36.84184514009394,46.67099050388788 34.380560131859966,46.285556235699914 29.369028006563894,43.45902800411568 26.759472817066126,42.591794129111804 22.518945634365082,42.591794129111804 15.876441515632905,44.06930267432472 13.563426688546315,45.19349065163988 13.0,46.028599870362086 13.266886326251552,64.1115396299574 13.741350906086154,65.20355850050692 13.800658978754655,69.25042845340795 14.9275123559637,71.7556151082972 14.897858319571242,73.5220843484858 15.490939044510014,75.1279593547224" stroke="#4dd2ff" stroke-linecap="round" stroke-linejoin="round" stroke-width="0.5"><title>2022-01-20 5.9km</title></polyline><polyline fill="none" points="136.2807881772751,63.28171247197315 135.54187192115933,63.9219683847914 137.9950738917105,64.37014697055565 147.0689655172173,68.3717212913034 148.7241379310144,70.70862389579997 149.37438423652202,77.59121029142989 157.88669950747862,78.45552750161733 168.11330049252138,72.72539289831184 170.71428571431898,71.95710103269084 174.1133004926378,71.60496681352379 186.40886699501425,72.02112540596863 187.0,71.06075883080484 186.37931034481153,66.1308441463334 185.19704433507286,63.345738105039345 185.61083743849304,61.74509448729805 185.49261083744932,58.671842449432006 184.6945812808117,55.53454222745495 184.51724137924612,48.61959758598823 183.45320197043475,46.85883046453819 181.3251231526956,45.38618347040028 177.9261083744932,44.52180142136058 171.09852216753643,41.544472498382675 168.94088669947814,42.18475998588838 165.7192118227249,44.201659491460305 161.3448275863193,46.15452164647286 158.89162561588455,46.66674635311938 154.13300492602866,46.15452164647286 148.90147783246357,43.30526085072779 146.56650246307254,42.76101792935515 143.04926108382642,42.63296067365445 140.03448275860865,43.11317519051954 137.137931034551,44.16964528567041 133.67980295571033,44.58582977941842 133.0,46.44264811722678 133.2068965517683,55.75863584090257 133.67980295571033,57.32728794548893 133.05911330052186,60.8487315227685 133.2068965517683,64.6902742527891" stroke="#4dd2ff" stroke-linecap="round" stroke-linejoin="round" stroke-width="0.5"><title>2022-01-18 5.6km</title></polyline><polyline fill="none" points="17.7792768481886,124.71916376141598 20.37290879653301,124.52978269330924 23.695089044747874,126.20264593997854 26.347004856914282,126.6760966333386 28.24123043694999,128.001755831443 29.785752833122388,130.5268097865919 29.319481921149418,132.60996825803886 29.90232056111563,136.87094313112902 30.893146249232814,137.15500663773855 35.84727468970232,137.40750737668714 41.063680518069305,136.23969022958772 42.25849973014556,135.2296836806927 43.132757690153085,135.29280915873824 44.065299514331855,134.40905163186835 46.19266055035405,133.61998089330154 48.02860226656776,132.29433882827288 48.02860226656776,131.75776827175287 51.00107933068648,131.15807098365622 66.09660010784864,131.15807098365622 66.62115488387644,130.46368361642817 66.56287101993803,128.41207809722982 65.83432271995116,124.46665565232979 64.98920669185463,122.69909478147747 65.2223421477247,118.69049260008615 64.37722611962818,114.99749566681567 64.55207771167625,110.57848373780143 63.99838100373745,107.73766662727576 62.80356179154478,106.22255657514324 60.55963302741293,104.95996082978672 50.62223421479575,101.48780361464014 46.42579600645695,103.06606033348362 41.73394495411776,105.55969426626689 39.431732326047495,106.19099172623828 34.506745817605406,106.03316744722542 27.978953049052507,102.908234919596 24.481921208789572,102.40319320975686 13.815974096069112,104.51805145229446 13.349703183979727,106.50664011231856 13.90339989203494,113.35615362401586 13.670264436048456,116.07067749719135 14.136535348021425,117.0176004410896 13.786832163925283,117.80670131833176 13.961683755973354,124.1825838542718 14.83594171621371,124.94010823656572 16.147328656166792,124.46665565232979 17.604425256256945,124.94010823656572 19.323799244361,124.62447323766537 21.072315164492466,124.94010823656572 26.813275769003667,127.62299647307373 28.47436589305289,129.01177917353925 29.406907717115246,131.00025577031192 30.13545601721853,137.24969443204463 33.195358877419494,137.3443822057452 34.477603885461576,138.51219638535986 36.196977873682044,137.0918814300967 41.034538585925475,136.20812756047235 48.698866702616215,131.94714619085426 51.11764705879614,131.31588613969507 66.03831624379382,131.18963401939254 66.67943874793127,130.49524670265964 66.41716135980096,126.23420933552552 67.0,125.60294098811573 65.48461953585502,123.33036734617781 65.68861305981409,120.33181449832045 64.49379384773783,115.21844508379581 64.52293577976525,109.91562807298033 64.0858067998197,107.73766662727576 61.81273610354401,105.65438894371619 50.85536967078224,101.51936880522408 43.27846735017374,105.0230907042278 38.58661629795097,106.50664011231856 34.39017808949575,105.97003771955497 28.328656233032234,102.9713650920603 25.589314624783583,102.37162808343419 23.869940636795945,102.27693269064184 14.194819212076254,104.17083662614459 13.495412844000384,104.80213610376813 13.757690232014284,106.22255657514324 13.0,107.80079609813401 13.932541824062355,116.82821601736941 13.874257960007526,124.24571093654959" stroke="#4dd2ff" stroke-linecap="round" stroke-linejoin="round" stroke-width="0.5"><title>2022-01-15 11.2km</title></polyline><polyline fill="none" points="136.0247116968967,125.12326364978799 140.02800658985507,125.05902725964552 143.17133443173952,126.85764265764738 143.8533772652736,126.72917037180741 145.7215815485688,127.59635757736396 147.8863261943916,129.3949626579415 148.80560131790116,130.8081472335034 149.3690280065639,133.15273895690916 149.48764415155165,137.7134160278074 150.82207578246016,138.35576113360003 153.46128500823397,138.3878783644468 161.73476112028584,136.97471800312633 163.03953871503472,136.52507512338343 163.6326194399735,135.72214027270093 168.11037891276646,133.12062134596636 173.06260296539403,131.83591499814065 186.49588138388935,132.0286211881612 187.0,130.67967609505286 186.16968698520213,124.83419982067426 185.36902800679673,123.45311447378481 185.42833607911598,119.50254420551937 185.1317957167048,116.3870289438637 184.7462932455819,115.84100854492863 184.83525535429362,110.50924451259198 184.03459637553897,107.7790994901734 181.7215815486852,105.75556936202338 177.89621087315027,104.72774098886293 170.89785831968766,101.6121216355823 161.378912685439,106.26948265277315 159.51070840202738,106.783395346225 154.85502471169457,106.5906781561498 149.8434925865149,103.79626946203643 146.4332784183789,102.76843653465039 142.99341021419968,102.76843653465039 133.29654036241118,104.92045899084769 133.0,105.49861249275273 133.11861614498775,116.03372170391958 133.65238879725803,117.54330521039083 133.11861614498775,120.62669380876468 133.68204283365048,125.18750003064633" stroke="#4dd2ff" stroke-linecap="round" stroke-linejoin="round" stroke-width="0.5"><title>2022-01-11 5.6km</title></polyline><polyline fill="none" points="19.991332611069083,196.50721038720803 20.48862405202817,196.57057519457885 16.715059588314034,186.36872269492596 16.744312025955878,185.73505939246388 17.241603466914967,185.51327701919945 21.01516793074552,185.54496022229432 25.57854821230285,187.98455995091354 26.251354279578663,187.9211938966764 28.211267605656758,189.25187910191016 29.84940411709249,191.97660281253047 30.580715059651993,197.8378694097919 35.96316359716002,197.8061870992242 36.60671722656116,197.23590511645307 41.75514626223594,196.91908147066715 46.46478873246815,194.0042931366479 51.23293607798405,192.07165100693237 66.32719393295702,192.03996827782248 67.0,191.08948533280636 66.76598049839959,187.8578278333007 65.74214517872315,183.73901397467125 65.15709642483853,176.70525733582326 64.6305525462376,175.46958567513502 64.9230769231217,170.68528546654852 64.39653304452077,168.34064236548147 63.16793066088576,167.00989337766077 60.798483207123354,165.71082497379393 50.96966413874179,162.1621305902372 42.28169014095329,166.53462489822414 39.3271939328406,167.20000062449253 35.78764897072688,167.00989337766077 29.439869989291765,163.87311184371356 25.28602383530233,163.14436138959718 20.40086673886981,163.58794876746833 13.585048754117452,165.64745568443323 13.585048754117452,168.4673801525787 13.204767063842155,168.27727345807943 13.0,168.87927770637907 13.146262188442051,170.8120225724124 13.702058504917659,171.98433905665297 13.760563380317762,182.09147754430887 14.31635969656054,184.53109658244648 15.57421451783739,185.291494533245 19.43553629470989,185.2281280879106 21.102925243903883,185.67169301159447 27.011917659896426,188.30139008373953" stroke="#4dd2ff" stroke-linecap="round" stroke-linejoin="round" stroke-width="0.5"><title>2022-01-08 6.4km</title></polyline><polyline fill="none" points="135.80174767889548,184.64807691203896 137.98416166030802,185.63830317975953 139.39978154026903,185.15916171568097 140.43200436921325,185.382761130546 145.7405789186014,187.65069163005683 148.4243582742056,189.3755886889412 149.51556526485365,191.67544091373566 149.9874385582516,195.1251967078133 149.7220098307589,196.46676110028056 150.40032768982928,197.87220512374188 155.5319497543387,198.0957980771782 160.89950846531428,197.16948367320583 162.69852539594285,196.40287717434694 165.26433642825577,194.19887604928226 169.06881485541817,192.44205565014272 174.20043691981118,191.7712678287935 185.79082468606066,192.18651755305473 186.32168214104604,192.15457528049592 187.0,191.10047898470657 186.52812670671847,185.25499005027814 185.73184052447323,183.49813393282238 185.79082468606066,180.71909265537397 185.20098306948785,176.53452611417742 184.69961769529618,175.6081663070654 184.75860185688362,170.04996649135137 184.19825232122093,167.94166542755556 183.04806116886903,166.69584641198162 170.8383397051366,161.90420192285092 161.10595303121954,166.47223749707337 158.86455488798674,166.9513993182627 154.2637902785791,166.50418163478025 150.78372474049684,164.39586357277585 147.68705625343136,163.21392326810746 143.23375204810873,162.8625349973736 133.8257782632718,164.84308340019197 133.17695248511154,165.54585649594082 133.0,170.56106825754978 133.53085745498538,172.15825744869653 133.2949208082864,175.6081663070654 133.76679410168435,179.85662799919373 133.2654287274927,182.69956065085717 133.85527034418192,185.35081836394966 133.7078099399805,187.65069163005683 135.62479519401677,194.70994975723443" stroke="#4dd2ff" stroke-linecap="round" stroke-linejoin="round" stroke-width="0.5"><title>2022-01-02 5.9km</title></polyline><polyline fill="none" points="16.78792822198011,245.3593527530902 19.430668841814622,244.69147246310604 28.269168026163243,248.98497084275004 29.79608482879121,251.56104966890416 29.854812398087233,257.2220091706549 30.207177814096212,257.73085587934474 35.84502446989063,257.8262645714567 39.83849918434862,257.31741797347786 47.97226753667928,252.86498502790346 51.58401305053849,251.78367305378197 66.32463295268826,251.7200663839758 66.85318107681815,250.8613754370599 67.0,248.63513180901646 65.64926590537652,243.4193167121266 65.6199021206703,240.62056105289957 64.38662316475529,235.65908660908462 64.76835236547049,232.4786247080774 64.56280587275978,229.52077440964058 63.97553017945029,227.96232911900734 60.68678629701026,225.51333245582646 50.820554649224505,221.76029800303513 43.244698205497116,225.735969082074 39.10440456774086,226.75373507494805 34.758564437157474,226.34026792566874 29.972267536679283,223.70042999926955 25.59706362162251,222.52362965024076 17.962479608599097,222.80987867488875 16.699836867977865,223.5095977250894 14.262642740737647,223.06432209524792 13.528548124013469,223.85945683089085 13.0,226.5947092944989 13.557911908603273,236.13615390201448 13.998368678614497,237.02667812496657 13.704730832017958,244.0871989420848 15.760195758542977,245.20033372880425 20.663947797729634,245.3593527530902 28.269168026163243,248.98497084275004 29.70799347467255,251.33842617089977 30.030995106091723,257.50823551698704 31.46982055460103,258.1760962646804 35.31647634587716,258.239701996994 36.637846655910835,257.85806746414164 36.608482871204615,257.349220903212 39.45676998374984,257.54003843289684 42.45187601959333,256.6813588949735 49.20554649271071,252.51514909305843 54.725938009796664,251.78367305378197 66.0016313213855,251.97449300787412 67.0,251.27481943639577 66.97063621529378,248.76234603542252 66.26590538339224,245.00951082343818 65.59053833596408,243.8963755517907 65.38499184336979,238.6805040204199 64.59216965734959,235.7226956115628 64.94453507335857,234.83216873696074 64.68026101146825,229.2981397077092 64.06362153345253,227.77149870226276 62.74225122353528,226.43568345636595 51.143556280527264,221.85571453161538 41.717781402985565,226.30846274417127 39.04567699844483,227.03998133423738 33.9657422513701,226.4674886286084 30.060358890681528,224.01848360474105 26.448613376822323,223.00071125404793" stroke="#4dd2ff" stroke-linecap="round" stroke-linejoin="round" stroke-width="0.5"><title>2021-12-31 10.1km</title></polyline></svg>