<?xml version="1.0" encoding="utf-8" ?>
<svg baseProfile="full" height="300mm" version="1.1" viewBox="0,0,200,300" width="200mm" xmlns="http://www.w3.org/2000/svg" xmlns:ev="http://www.w3.org/2001/xml-events" xmlns:xlink="http://www.w3.org/1999/xlink"><defs /><rect fill="#222222" height="300" width="200" x="0" y="0" /><text fill="#FFFFFF" style="font-size:12px; font-family:Arial; font-weight:bold;" x="10" y="20">Over 5km Runs</text><text fill="#FFFFFF" style="font-size:4px; font-family:Arial" x="10" y="280">ATHLETE</text><text fill="#FFFFFF" style="font-size:9px; font-family:Arial" x="10" y="290">ufiv</text><text fill="#FFFFFF" style="font-size:4px; font-family:Arial" x="120" y="280">STATISTICS</text><text fill="#FFFFFF" style="font-size:3px; font-family:Arial" x="120" y="285">Number: 13</text><text fill="#FFFFFF" style="font-size:3px; font-family:Arial" x="120" y="290">Weekly: 1.3</text><text fill="#FFFFFF" style="font-size:3px; font-family:Arial" x="141" y="285">Total: 87.0 km</text><text fill="#FFFFFF" style="font-size:3px; font-family:Arial" x="141" y="290">Avg: 6.7 km</text><text fill="#FFFFFF" style="font-size:3px; font-family:Arial" x="167" y="285">Min: 5.3 km</text><text fill="#FFFFFF" style="font-size:3px; font-family:Arial" x="167" y="290">Max: 11.2 km</text><polyline fill="none" points="15.328813559375703,58.5411622574029 15.352433023508638,57.92719025266706 15.919300164096057,58.38766935651074 17.005795516772196,58.10626553121256 20.31252050306648,60.10166962016956 22.461891744169407,60.53656388312811 24.705740842036903,62.122644293063786 25.367085839272477,63.40173619691632 25.74499726621434,63.45289977645734 25.343466375023127,67.13665798053262 25.532422088552266,68.28782452113228 26.83149261889048,68.59480163009721 31.366429743007757,68.59480163009721 35.52345544018317,67.7761954118323 39.49152542371303,65.21803872179589 44.286276653874665,63.478481563477544 54.46626571880188,63.70871756289853 55.10399125202093,63.60639047063887 55.59999999997672,63.06917274862644 55.24570803716779,58.899312099354574 54.60798250394873,57.262052706762915 54.5843630398158,55.036391017813 53.78130125743337,50.35478087831871 53.6868234006688,45.11028032787726 52.81290322577115,43.933454843237996 51.30125751765445,42.96129169460619 42.49119737546425,39.40519836987369 35.098305084742606,43.01245824302896 33.20874794968404,43.47295684416895 30.350792782963254,43.34504062650376 25.39070530340541,40.735539644549135 22.272936030640267,40.121536603721324 19.67479496996384,40.24945399220451 12.848769819596782,41.65654219881981 12.423619464272633,42.296125888911774 12.400000000023283,43.72878914020839 12.777911427081563,48.84539603960002 12.588955713552423,50.840852585213725 12.919628212112002,51.65949815447675 12.683433570316993,56.03410316890222 13.486495352699421,62.22497181632207" stroke="#4dd2ff" stroke-linecap="round" stroke-linejoin="round" stroke-width="0.5"><title>2022-04-16 5.8km</title></polyline><polyline fill="none" points="80.75550708838273,58.08231067206361 82.45147219195496,58.388459566340316 83.53500545269344,57.98026098133414 85.06608506001066,58.4139719621744 90.2010905125644,60.86315333514358 91.19040348974522,62.41939512864337 91.26106870232616,67.7768961355905 94.58233369677328,68.51673509384273 99.88222464558203,68.00650149624562 102.56750272621866,66.37374900528812 108.43271537625697,63.64397398920846 111.21221374045126,63.28680559570785 120.68135223549325,63.54192591379979 121.59999999997672,62.87861270151916 120.96401308616623,58.31192236780771 121.22311886586249,57.01078744116239 120.65779716463294,55.86272321027354 120.28091603051871,51.9337638974539 119.71559432928916,50.24991074061836 119.48004362045322,44.76457554489025 119.15027262805961,43.999173126212554 118.11384950927459,43.15722853926127 108.8331515812315,39.483264906157274 100.84798255178612,43.15722853926127 98.16270447114948,43.565444348583696 95.12410032714251,42.97863397351466 90.0126499455655,40.42727311933413 88.01046892045997,40.22316345042782 83.27589967299718,41.06511507029063 79.31864776462317,42.085659782605944 78.65910577983595,42.570417482202174 78.40000000002328,44.866629074706 79.01243184297346,51.90825103098177 78.87110141769517,57.87821126097697 79.43642311892472,61.22032419228344 80.44929116696585,64.28177378867986 80.47284623782616,65.88902414904442" stroke="#4dd2ff" stroke-linecap="round" stroke-linejoin="round" stroke-width="0.5"><title>2022-04-09 5.9km</title></polyline><polyline fill="none" points="146.66499180777464,57.85900811711326 148.41092299297452,58.01233350255643 149.2367012561299,57.75679115642561 150.79388312413357,58.11455038902932 156.78667394863442,61.51324495996232 157.6124522119062,63.27646455087233 157.3293282360537,67.7739122013736 158.88651010382455,68.33608911687043 162.11884216277394,68.46385647245916 163.72321135993116,67.97834027450881 164.12430365919136,68.33608911687043 164.8793009284418,68.25942868128186 174.1987984708976,63.71087961550802 177.19519388314802,63.27646455087233 185.24063353356905,63.50644906365778 187.12812670669518,63.32757223336375 187.59999999997672,62.84204894999857 185.75969415623695,50.16709887457546 185.73610049160197,45.337209459539736 185.05188421637286,43.85500787824276 183.94298197713215,42.83279625306022 174.74145275808405,39.53614352751174 172.6888039323967,40.09836555708898 167.04991807765327,42.83279625306022 164.10070999455638,43.29279185194173 161.69415619876236,43.113904746074695 157.2349535773974,40.7628086154873 155.0879300929373,40.12392108255881 153.3891862371238,40.07281002981472 149.7321682140464,40.48169824393699 145.48530857462902,41.63169379835017 144.75390496989712,42.193912479124265 144.40000000002328,43.088349437806755 144.91906062269118,52.05814862737316 144.80109229928348,56.862391483649844 145.1785909339087,58.14010460599093 145.1078099400038,59.80112472988549 146.54702348448336,66.16403697582427" stroke="#4dd2ff" stroke-linecap="round" stroke-linejoin="round" stroke-width="0.5"><title>2022-03-09 5.9km</title></polyline><polyline fill="none" points="14.955093099619262,106.77924601527047 17.74676889379043,106.34363535128068 21.67404162103776,107.77858609496616 24.394742606789805,109.46977055200841 25.222782037220895,110.44347913868842 25.483023001113907,111.7759181142028 25.483023001113907,116.3112976923585 27.23373493971303,116.7212726349535 30.64052573929075,116.7468960530532 34.733406352694146,115.92694575112546 43.345016429317184,111.64779920061119 55.03220153343864,111.59655162206036 55.576341730658896,111.05845159868477 55.59999999997672,108.95729126935476 55.36341730563436,106.34363535128068 54.67732749180868,104.62681161603541 54.58269441407174,99.39941626955988 54.10952902515419,98.57942565908888 54.34611171961296,95.86319315014407 54.03855421685148,92.63443673940492 52.00394304492511,90.63566796292434 43.84184008766897,87.17623370379442 40.316757940803654,88.25250577527913 35.774370208149776,90.66129327536328 33.1009857612662,91.35317600608687 30.711500547709875,91.07129802030977 24.205476451315917,87.89374878289527 20.656736035016365,87.663119095203 13.819496166543104,89.2775237429596 12.920481927809305,90.02065990734263 12.400000000023283,91.78880517749349 12.754874041653238,98.8869223613001 13.109748083283193,99.98878334384062 12.68389923335053,102.52561299060471 12.849507119390182,105.6517820149893 14.032420591451228,106.26676282534027 18.29090909101069,106.13864191158791 23.401095290319063,108.64980334255961 24.915224534575827,109.80288168656989 25.222782037220895,110.44347913868842 25.53033953998238,112.41651198492036 25.341073384392075,115.92694575112546 25.979846659349278,116.28567424265202 28.72420591453556,116.54190865618875 27.612267250893638,116.82376629620558 25.908871851162985,116.56753208729788 25.317415115074255,115.61946389678633 25.12814895948395,110.72534164917306 24.442059145658277,109.80288168656989 19.946987951756455,107.21485614150879 17.462869660463184,106.34363535128068 16.682146768900566,106.4973803529283 15.71215772186406,106.13864191158791 13.228039430570789,106.36925952287856 12.89682365837507,107.34297666457132 14.127053669304587,112.4421357154788 15.357283680117689,115.69633438545861" stroke="#4dd2ff" stroke-linecap="round" stroke-linejoin="round" stroke-width="0.5"><title>2022-02-11 8.0km</title></polyline><polyline fill="none" points="80.69610958907288,106.67929229800939 81.00383561651688,106.34599580519716 82.51879452064168,106.55110137647716 83.96273972606286,106.24344297483913 90.61435616447125,109.6276706479548 91.51386301370803,111.62742629944114 91.49019178084563,116.26784129525186 96.53216438356321,116.39602868928341 98.97030136990361,115.96019135977258 101.8108493151376,115.11415265503456 103.34947945200838,113.83227196746157 106.94750684942119,112.03763118709321 109.48032876709476,111.2684966318775 121.07923287665471,111.31977232100326 121.59999999997672,110.47372249807813 121.43430136993993,105.91014607064426 120.74783561646473,104.3974869355734 120.34542465757113,99.88510931842029 119.82465753436554,98.2698692221602 119.82465753436554,92.96259972720873 119.18553424661513,91.75755640765419 117.81260273978114,90.7832630565681 108.84120547957718,87.60397131068748 101.19539726024959,91.1422135513858 99.06498630146962,91.60372079416993 97.10027397272643,91.62936006771633 95.86936986306682,91.2447707686224 90.09358904114924,88.42443643818842 86.99265753431246,88.0398436471296 83.79704109590966,88.55263394207577 82.66082191781607,89.21926021174295 80.71978082193527,88.45007594264462 80.19901369872969,88.57827343730605 78.40000000002328,90.50123026882648 78.84975342464168,99.52616771348403" stroke="#4dd2ff" stroke-linecap="round" stroke-linejoin="round" stroke-width="0.5"><title>2022-02-09 5.3km</title></polyline><polyline fill="none" points="151.67081967217382,106.9477658282558 156.93508196715266,110.19490265651257 157.69049180322327,113.1351975738362 157.95016393437982,116.38227734752581 161.6799999999348,116.51011452137027 166.56655737699475,115.81979323155247 171.94885245896876,112.8028176400112 176.48131147539243,111.49886256252648 187.03344262298197,111.62670150911435 187.59999999997672,110.80853144905996 187.05704918026458,105.84833476215135 186.49049180326983,104.5443539309781 186.23081967199687,100.53010811461718 185.68786885240115,98.68916478921892 185.82950819667894,95.74874923331663 185.4281967212446,92.70603249801206 183.37442622950766,90.73720177283394 174.68721311481204,87.48988547862973 166.9678688524291,91.12074108942761 164.77245901629794,91.55541847631685 161.3731147539802,91.17187963335891 157.38360655738506,88.99848496320192 155.11737704917323,88.33367920745513 152.82754098356236,88.25697077024961 147.9173770492198,88.99848496320192 144.82491803274024,90.02126059719012 144.40000000002328,93.67765918758232 144.7777049180586,95.56976662395755 144.89573770482093,106.38526664194069" stroke="#4dd2ff" stroke-linecap="round" stroke-linejoin="round" stroke-width="0.5"><title>2022-02-05 5.3km</title></polyline><polyline fill="none" points="14.392751235631295,153.8031231983623 15.246787479496561,154.11145773678436 17.286985173122957,153.8288177534996 20.9166392092593,155.70451523852535 21.984184514032677,155.8072928955371 24.997034596512094,157.9399225434754 25.73245469527319,159.84129235587898 25.66128500830382,164.15787779149832 26.420428336248733,164.44050952521502 29.172322899568826,164.38912195403827 29.860296540427953,164.77452855574666 30.61943986825645,164.33773437538184 33.34761120262556,163.95232729800045 35.316639209282584,163.1558180079155 38.23459637572523,161.28016001786455 43.453706754604355,159.48157452631858 54.81713344331365,159.63573935514432 55.60000000009313,158.94199709623354 55.078088962240145,153.90590140770655 54.4375617793994,152.67256092553725 54.72224052727688,151.362131952832 54.413838550332,147.8676309652219 53.74958813842386,146.37731857525068 53.74958813842386,141.23826218702015 53.22767710057087,139.79931302086334 52.37364085682202,139.07983624303597 42.67084019782487,135.22547144425334 40.844151565106586,135.79078090944677 34.88962108746637,138.79718425136525 31.473476112121716,139.33679240310448 29.50444810546469,139.02844498853665 25.49522240529768,136.76722240328672 23.407578253769316,136.07343530326034 20.015156507492065,136.07343530326034 14.701153212576173,137.25544213945977 12.850741350906901,138.15479252129444 12.400000000023283,138.8228798962955 12.613509061047807,153.28923170396592 12.99308072484564,154.16284680037643 13.04052718298044,157.40034276270308 13.942009884747677,159.4044920866436 13.918286655680276,160.81766747878282 14.392751235631295,162.10236748377793" stroke="#4dd2ff" stroke-linecap="round" stroke-linejoin="round" stroke-width="0.5"><title>2022-01-20 5.9km</title></polyline><polyline fill="none" points="81.02463054191321,152.62536997758434 80.43349753704388,153.1375747078273 82.39605911332183,153.49611757643288 89.65517241379712,156.697377033066 90.97931034490466,158.5668991166458 91.49950738926418,164.0729682331439 98.30935960600618,164.76442200128804 106.49064039404038,160.1803143186553 108.57142857147846,159.56568082614103 111.29064039408695,159.28397345083067 121.12709359603468,159.61690032476326 121.59999999997672,158.84860706463223 121.10344827594236,154.90467531705508 120.15763546805829,152.676590484014 120.48866995086428,151.39607558984426 120.3940886700293,148.93747395955143 119.75566502462607,146.4276337819756 119.61379310349002,140.89567806877312 118.76256157632452,139.4870643716422 117.06009852222633,138.30894677632023 114.34088669961784,137.61744113708846 108.87881773407571,135.23557799871196 107.15270935965236,135.74780798872234 104.57536945817992,137.3613275931857 101.07586206903215,138.92361731716665 99.1133004927542,139.33339708248968 95.30640394089278,138.92361731716665 91.1211822660407,136.6442086805764 89.25320197048131,136.20881434346666 86.43940886703786,136.10636853892356 84.0275862069102,136.49054015241563 81.71034482761752,137.3357162285538 78.94384236459155,137.66866382354056 78.40000000002328,139.15411849378143 78.56551724148449,146.60690867272206 78.94384236459155,147.86183035638533 78.44729064044077,150.67898521822644 78.56551724148449,153.75221940223128" stroke="#4dd2ff" stroke-linecap="round" stroke-linejoin="round" stroke-width="0.5"><title>2022-01-18 5.6km</title></polyline><polyline fill="none" points="148.223421478644,153.77533100912115 150.2983270372497,153.62382615465322 152.95607123582158,154.96211675196537 155.0776038855547,155.3408773066767 156.59298434958328,156.40140466514276 157.8286022664979,158.42144782928517 157.45558553701267,160.0879746064311 157.92185644886922,163.49675450488576 158.7145169993164,163.72400531018502 162.67781975178514,163.92600590133225 166.8509444143856,162.991752183676 167.80679978406988,162.18374694455997 168.50620615214575,162.2342473269964 169.25223961146548,161.52724130550632 170.95412844023667,160.89598471464706 172.4228818132542,159.83547106262995 172.4228818132542,159.40621461739647 174.80086346459575,158.92645678692497 186.87728008627892,158.92645678692497 187.29692390712444,158.37094689314836 187.25029681588057,156.7296624777664 186.66745817591436,153.573324521858 185.99136535346042,152.15927582519362 186.17787371820305,148.95239408005727 185.5017808957491,145.99799653343507 185.64166216936428,142.46278699024697 185.19870480301324,140.19013330183225 184.24284943321254,138.97804526009713 182.44770642195363,137.96796866384102 174.49778737185989,135.19024289172376 171.14063680521213,136.45284826678107 167.38715596334077,138.4477554130135 165.545385860838,138.95279338100227 161.6053966541076,138.82653395779198 156.38316243921872,136.3265879356768 153.58553696703166,135.9225545678055 145.0527792768553,137.61444116182975 144.67976254713722,139.20531208984903 145.12271991360467,144.68492289920687 144.93621154886205,146.85654199775308 145.3092282784637,147.61408035288332 145.02946573111694,148.2453610546654 145.16934700473212,153.34606708341744 145.8687533729244,153.95208658924093 146.91786292498,153.573324521858 148.08354020502884,153.95208658924093 149.45903939555865,153.69957859013812 150.85785213159397,153.95208658924093 155.45062061515637,156.09839717845898 156.7794927144423,157.20942333881976 157.52552617364563,158.80020461624372 158.10836481372826,163.79975554562407 160.5562871019356,163.87550576459034 161.58208310836926,164.80975710827624 162.95758229889907,163.67350514407735 166.82763086876366,162.96650204836624 172.95909336209297,159.55771695269505 174.89411764708348,159.0527089117386 186.83065299503505,158.95170721551403 187.3435509983683,158.39619736210443 187.13372908788733,154.98736746842042 187.59999999997672,154.48235279048095 186.387695628684,152.66429387696553 186.55089044792112,150.26545159865054 185.59503507823683,146.1747560670192 185.61834862385876,141.9325024583668 185.26864543987904,140.19013330183225 183.45018888276536,138.5235111549846 174.6842957366025,135.2154950441618 168.622773880139,138.01847256338806 164.86929303826764,139.20531208984903 161.51214247161988,138.7760301756498 156.66292498644907,136.37709207364242 154.47145169985015,135.8973024667357 153.09595250943676,135.82154615252512 145.35585536970757,137.33666930091567 144.79633027524687,137.84170888303197 145.00615218561143,138.97804526009713 144.40000000002328,140.2406368785014 145.1460334592266,147.46257281387807 145.09940636798274,153.3965687492455" stroke="#4dd2ff" stroke-linecap="round" stroke-linejoin="round" stroke-width="0.5"><title>2022-01-15 11.2km</title></polyline><polyline fill="none" points="14.819769357563928,202.09861091984203 18.022405271884054,202.04722180770477 20.537067545345053,203.48611412613536 21.08270181226544,203.3833362974401 22.577265238855034,204.07708606187953 24.30906095553655,205.51597012634738 25.044481054414064,206.64651778680854 25.49522240529768,208.52219116553897 25.59011532133445,212.1707328222401 26.65766062599141,212.68460890685674 28.769028006587178,212.71030269155744 35.387808896251954,211.57977440248942 36.431630972074345,211.22006009868346 36.90609555202536,210.57771221816074 40.48830313025974,208.49649707676144 44.45008237240836,207.46873199852416 55.196705107111484,207.62289695051732 55.59999999997672,206.543740876019 54.93574958818499,201.86735985652194 54.29522240546066,200.76249157902203 54.34266886336263,197.60203536442714 54.105436573387124,195.10962315509096 53.797034596442245,194.67280683593708 53.868204283411615,190.40739561006194 53.22767710045446,188.22327959214454 51.377265239018016,186.60445548960706 48.31696869863663,185.78219279108453 42.71828665584326,183.28969730844256 35.103130148374476,187.01558612220106 33.60856672166847,187.42671627696836 29.884019769378938,187.2725425249082 25.874794069328345,185.03701556962915 23.146622734726407,184.2147492277145 20.394728171406314,184.2147492277145 12.637232289998792,185.93636719265487 12.400000000023283,186.39888999419054 12.494892915943637,194.8269773631182 12.92191103787627,196.03464416830684 12.494892915943637,198.50135504698846 12.94563426694367,202.1500000244996" stroke="#4dd2ff" stroke-linecap="round" stroke-linejoin="round" stroke-width="0.5"><title>2022-01-11 5.6km</title></polyline><polyline fill="none" points="83.99306608887855,211.20576830976643 84.39089924155269,211.25646015565144 81.37204767065123,203.0949781559466 81.39544962078799,202.5880475139711 81.79328277357854,202.41062161535956 84.81213434459642,202.43596817782964 88.46283856988885,204.38764796074247 89.00108342361636,204.33695511732367 90.5690140845254,205.4015032815223 91.87952329369728,207.5812822500302 92.46457204769831,212.27029552782187 96.77053087763488,212.24494967938517 97.28537378122564,211.788724093145 101.4041170097189,211.5352651765279 105.17183098592795,209.2034345093125 108.98634886241052,207.65732080553425 121.06175514636561,207.63197462225799 121.59999999997672,206.8715882662509 121.41278439876623,204.2862622666289 120.59371614304837,200.99121117973118 120.12567713984754,195.3642058686528 119.70444203692023,194.3756685401022 119.93846153852064,190.54822837322718 119.51722643559333,188.67251389237936 118.53434452868532,187.6079147021228 116.63878656562883,186.56865997903515 108.77573131094687,183.72970447217813 101.82535211276263,187.22769991858513 99.46175514627248,187.76000049957656 96.6301191765815,187.6079147021228 91.55189599143341,185.09848947497085 88.22881906828843,184.51548911168356 84.32069339114241,184.87035901396303 78.86803900322411,186.51796454755822 78.86803900322411,188.77390412206296 78.563813651097,188.62181876646355 78.40000000002328,189.10342216509162 78.51700975082349,190.64961805791245 78.96164680388756,191.58747124532238 79.0084507042775,199.6731820354471 79.45308775734156,201.62487726594554 80.45937161426991,202.23319562658435 83.54842903581448,202.18250247032847 84.8823401951231,202.5373544092581 89.60953412787057,204.64111206697999" stroke="#4dd2ff" stroke-linecap="round" stroke-linejoin="round" stroke-width="0.5"><title>2022-01-08 6.4km</title></polyline><polyline fill="none" points="146.64139814313967,201.7184615295846 148.38732932822313,202.51064254378434 149.51982523221523,202.12732937253895 150.3456034953706,202.30620890442515 154.5924631349044,204.12055330400472 156.73948661936447,205.50047095114132 157.6124522117898,207.34035273097106 157.98995084653143,210.10015736622154 157.77760786458384,211.17340888018953 158.3202621518867,212.29776409897022 162.42555980337784,212.4766384617251 166.719606772298,211.73558693853556 168.15882031677756,211.1223017394368 170.21146914258134,209.35910083941417 173.25505188421812,207.95364452007925 177.36034953582566,207.41701426298823 186.63265974877868,207.74921404241468 187.05734571279027,207.72366022437927 187.59999999997672,206.88038318773033 187.2225013653515,202.2039920401876 186.58547241950873,200.79850714621716 186.63265974877868,198.5752741242759 186.16078645549715,195.22762089132448 185.75969415623695,194.48653304562322 185.8068814855069,190.039973193052 185.35860185697675,188.353332342027 184.43844893504865,187.35667712954455 174.67067176417913,183.5233615382458 166.88476242485922,187.1777899976296 165.0916439103894,187.5611194545636 161.41103222290985,187.20334530778928 158.6269797923742,185.51669085820322 156.14964500267524,184.5711386144685 152.58700163848698,184.29002799786394 145.06062261061743,185.87446672012447 144.54156198806595,186.4366851967061 144.40000000002328,190.44885460601654 144.82468596391845,191.72660595894558 144.63593664660584,194.48653304562322 145.01343528134748,197.88530239934335 144.61234298197087,200.15964852066827 145.08421627536882,202.28065469113062 144.96624795196112,204.12055330400472 146.49983615521342,209.76795980575844" stroke="#4dd2ff" stroke-linecap="round" stroke-linejoin="round" stroke-width="0.5"><title>2022-01-02 5.9km</title></polyline><polyline fill="none" points="15.430342577630654,250.28748220243142 17.544535073451698,249.75317797044409 24.615334420930594,253.18797667417675 25.836867863079533,255.2488397351117 25.88384991849307,259.77760733649484 26.165742251323536,260.1846847034467 30.676019575912505,260.26101165713044 33.87079934752546,259.85393437874154 40.377814029343426,256.2919880222762 43.267210440477356,255.4269384430081 55.059706362197176,255.3760531071457 55.48254486138467,254.689100349613 55.60000000009313,252.90810544718988 54.51941272430122,248.735453369678 54.49592169653624,246.49644884228474 53.509298531804234,242.5272692872386 53.814681892399676,239.98289976641536 53.650244698277675,237.61661952768918 53.18042414356023,236.36986329517094 50.549429037608206,234.41066596462042 42.65644371940289,231.40823840239318 36.595758564420976,234.58877526564174 33.28352365421597,235.40298805991188 29.806851549772546,235.07221434050007 25.977814029320143,232.9603439993807 22.47765089722816,232.0189037201635 16.369983686949126,232.2479029398819 15.359869494335726,232.80767818004824 13.410114192520268,232.4514576761576 12.822838499210775,233.08756546469522 12.400000000023283,235.27576743558166 12.846329526859336,242.90892312157666 13.19869494298473,243.62134249994415 12.9637846655678,249.2697591536271 14.608156606904231,250.16026698303176 18.531158238183707,250.28748220243142 24.615334420930594,253.18797667417675 25.766394779784605,255.07074093670235 26.024796084850095,260.0065884135547 27.175856443704106,260.540877011721 30.253181076725014,260.5917615975777 31.31027732475195,260.28645397129003 31.286786296986975,259.87937672255794 33.565415987046435,260.03203074628254 35.961500815697946,259.3450871159439 41.36443719419185,256.0121192744118 45.78075040783733,255.4269384430081 54.801305057131685,255.5795944062702 55.60000000009313,255.01985554906423 55.57650897221174,253.00987682832056 55.012724306667224,250.00760865872144 54.47243066888768,249.1171004413918 54.30799347476568,244.944403216301 53.673735725926235,242.5781564892095 53.955628058640286,241.86573498955113 53.74420880910475,237.43851176614407 53.25089722673874,236.21719896176364 52.19380097882822,235.14854676503455 42.91484502446838,231.48457162527484 35.37422512238845,235.0467701953021 33.23654159880243,235.6319850673608 29.17259380116593,235.17399090284016 26.04828711261507,233.21478688376374 23.15889070148114,232.40056900322088" stroke="#4dd2ff" stroke-linecap="round" stroke-linejoin="round" stroke-width="0.5"><title>2021-12-31 10.1km</title></polyline></svg>