<?xml version="1.0" encoding="utf-8" ?>
<svg baseProfile="full" height="300mm" version="1.1" viewBox="0,0,200,300" width="200mm" xmlns="http://www.w3.org/2000/svg" xmlns:ev="http://www.w3.org/2001/xml-events" xmlns:xlink="http://www.w3.org/1999/xlink"><defs /><rect fill="#222222" height="300" width="200" x="0" y="0" /><text fill="#FFFFFF" style="font-size:12px; font-family:Arial; font-weight:bold;" x="10" y="20">Over 5km Runs</text><text fill="#FFFFFF" style="font-size:4px; font-family:Arial" x="10" y="280">ATHLETE</text><text fill="#FFFFFF" style="font-size:9px; font-family:Arial" x="10" y="290">ufiv</text><text fill="#FFFFFF" style="font-size:4px; font-family:Arial" x="120" y="280">STATISTICS</text><text fill="#FFFFFF" style="font-size:3px; font-family:Arial" x="120" y="285">Number: 17</text><text fill="#FFFFFF" style="font-size:3px; font-family:Arial" x="120" y="290">Weekly: 1.3</text><text fill="#FFFFFF" style="font-size:3px; font-family:Arial" x="141" y="285">Total: 110.3 km</text><text fill="#FFFFFF" style="font-size:3px; font-family:Arial" x="141" y="290">Avg: 6.5 km</text><text fill="#FFFFFF" style="font-size:3px; font-family:Arial" x="167" y="285">Min: 5.3 km</text><text fill="#FFFFFF" style="font-size:3px; font-family:Arial" x="167" y="290">Max: 11.2 km</text><polyline fill="none" points="14.113088718499057,56.40398677808116 16.863362541073002,56.04364644642919 23.605969331925735,59.14256047227536 24.537513691117056,61.13642004184658 24.47097480832599,65.50845559162553 26.02354874042794,66.03693949154695 30.015881708590314,66.08498344063992 33.52026286965702,65.26823535800213 38.24452354875393,62.265467722550966 41.43838992342353,61.40066558911349 49.37869660463184,61.44871021131985 52.57256297918502,61.13642004184658 52.75,58.013502134301234 51.90717415115796,51.02286365753389 51.30832420592196,49.02894313170691 51.397042716271244,45.257277459371835 50.90909090905916,43.167227643571096 49.17907995614223,41.701782539865235 46.51752464391757,41.12521219457267 41.19441401970107,38.91501655936008 39.59748083248269,39.29939946995 34.58488499454688,41.67775879552937 30.148959474172443,42.5426124916994 28.396768893813714,42.23030447342899 24.60405257390812,40.16425938543398 22.519167579477653,39.563662461878266 19.72453450167086,39.53963856221526 17.262595837935805,40.06816395098576 16.375410733860917,39.68378193382523 14.978094194899313,40.50059318621061 12.848849945235997,40.86095045035472 12.405257393256761,42.32639927967102 12.272179627558216,45.64165299918386 12.649233296862803,49.821708153613145 12.95974808325991,50.23010151434573 12.25,51.863669915124774 12.627053669304587,52.80056579908705 12.471796276047826,55.346987358963815 13.09282584884204,57.84534417983377" stroke="#4dd2ff" stroke-linecap="round" stroke-linejoin="round" stroke-width="0.5"><title>2022-09-11 5.7km</title></polyline><polyline fill="none" points="63.34939759026747,57.54507053751149 61.08707557502203,57.20875405467814 62.196056955028325,56.29589330632007 63.5711938663153,56.680256033694604 68.96084337343927,59.683074469154235 69.64841182914097,61.700953146559186 69.47097480832599,65.7366735812393 69.95892661553808,66.28917909559095 74.37267250823788,65.71265158138704 74.97152245335747,65.95287150106742 77.25602409627754,65.71265158138704 79.87322015338577,64.67970393947326 80.93784227815922,63.67077522270847 84.1317086527124,62.10933185770409 86.59364731656387,61.41268551762914 97.0624315442983,61.43670782961999 97.75,60.98028360315948 97.55038335151039,57.88138667852036 96.72973713022657,55.527166511892574 96.97371303383261,52.88465453183744 96.1530668126652,49.18510229646927 96.0643483021995,44.740780291263945 95.73165388824418,43.3714366122731 94.71139101858716,42.21830069596763 85.8173603505129,38.71082090440905 78.83077765605412,41.978063540678704 76.01396495068911,42.62670345947845 72.53176341729704,41.88196862975019 69.16046002181247,40.00811228528619 67.03121577214915,39.45556287479121 64.23658269434236,39.45556287479121 59.8671960568754,40.680779886839446 58.536418400821276,40.65675606750301 57.56051478639711,40.993089379684534 57.25,41.449541184905684 57.871029572794214,59.22664782349602 58.580777656054124,62.82999894180102 59.002190580475144,63.21435407816898 58.93565169768408,64.00708513677819" stroke="#4dd2ff" stroke-linecap="round" stroke-linejoin="round" stroke-width="0.5"><title>2022-05-08 6.0km</title></polyline><polyline fill="none" points="105.11273972596973,56.983001723652706 105.86726027389523,57.07914503000211 106.88808219181374,56.55035649955971 107.90890410961583,56.79071502722218 112.16972602752503,58.737612668890506 114.01164383557625,60.05957367600058 114.6552054794738,61.477671432628995 115.01027397264261,66.09245598010602 115.38753424666356,66.26070211798651 118.62753424665425,66.33280757948523 120.82452054799069,66.04438563931035 121.00205479457509,65.70789305819198 123.46534246578813,65.65982266154606 128.30315068503842,62.79962149739731 131.4987671233248,61.766097351530334 141.13000000000466,61.718026382499374 142.75,61.33345837891102 142.37273972609546,56.67053578514606 141.75136986305006,55.5168128417281 141.7735616439022,52.079656069458 141.21876712329686,49.339519505854696 141.1521917808568,45.301382165780524 140.68616438354366,43.522663181764074 139.26589041086845,42.20063612170634 132.63054794515483,39.82097410413553 130.3891780822305,38.667192420514766 123.62068493152037,41.88815622677794 121.97849315067288,42.34485751221655 118.38342465751339,42.080451581656234 115.16561643837485,40.325752325734356 111.48178082192317,39.29215799848316 109.15164383570664,39.36426933540497 103.07109589048196,41.143010671046795 102.53849315072875,40.95071477134479 102.6050684931688,40.710344739607535 102.25,43.25825819224701 102.82698630145751,50.70959062338807 102.56068493158091,56.11771070995019 102.89356164378114,56.43017717023031 102.693835616461,57.58389693018398 103.0045205479255,59.266397705243435" stroke="#4dd2ff" stroke-linecap="round" stroke-linejoin="round" stroke-width="0.5"><title>2022-04-30 5.7km</title></polyline><polyline fill="none" points="149.469178082305,56.4662356559129 150.2680821918184,57.06713182234671 152.06561643839814,56.562379115843214 157.87986301374622,59.158241978351725 159.49986301374156,61.39355202004663 159.27794520556927,61.65794253212516 159.6552054794738,62.859714925609296 159.49986301374156,64.4220125148131 160.03246575349476,66.41693564155139 163.6941095890943,66.44097078664345 167.13383561652154,65.98430273131817 169.30863013700582,65.23921139386948 170.37383561651222,64.25376543641323 172.7261643835809,62.955856528598815 176.65410958905704,61.58583604978048 184.8206849314738,61.80215544975363 187.26178082206752,61.633907039795304 187.75,61.1531968259078 187.19520547939464,57.06713182234671 186.6404109589057,55.86533839860931 186.75136986305006,53.654027097916696 186.35191780829336,50.12070555309765 185.9746575342724,49.42365126972436 185.8858904109802,44.5682669118396 185.48643835622352,43.5106489895843 184.57657534244936,42.645322720869444 175.45575342467055,38.55902921335655 168.3543835617602,41.97228961420478 166.93410958908498,42.35688012850005 163.5609589042142,42.09247419793974 158.76753424666822,39.78492256393656 156.74808219179977,39.304180614766665 155.01712328766007,39.304180614766665 152.1765753425425,39.881070869916584 150.6231506849872,40.79447838375927 147.25,41.082922338013304 147.7382191780489,53.846315623639384 147.49410958902445,55.889374309859704 147.71602739731316,58.50927817123011 148.3152054795064,59.99948946436052 148.20424657536205,60.74459259523428 148.8478082192596,63.4365641248296" stroke="#4dd2ff" stroke-linecap="round" stroke-linejoin="round" stroke-width="0.5"><title>2022-04-28 5.9km</title></polyline><polyline fill="none" points="14.99576271197293,105.50733961633523 15.017905959510244,104.93174086190993 15.549343903898261,105.3634400217561 16.56793329701759,105.09962393552996 19.667987971683033,106.97031526893261 21.683023510267958,107.37802864043624 23.786632039467804,108.86497902477277 24.406642974470742,110.06412768462906 24.760934937163256,110.1120935404615 24.384499726700597,113.5656168567948 24.561645708046854,114.6448354885797 25.779524330282584,114.93262652822887 30.03102788410615,114.93262652822887 33.928239475237206,114.16518319860916 37.64830508478917,111.76691130173276 42.14338436315302,110.13607646577293 51.6871241114568,110.35192271525739 52.284991798806004,110.25599106625305 52.75,109.75234945185366 52.4178512848448,105.84310509316856 51.81998359749559,104.30817441261024 51.79784034984186,102.2216165792197 51.044969928916544,97.83260707344743 50.95639693818521,92.91588780740858 50.13709677418228,91.81261391556473 48.719928922946565,90.90121096372604 40.46049753960688,87.56737347177113 33.5296610170044,90.9491796028451 31.75820120284334,91.38089704143931 29.07886823406443,91.26097558735637 24.428786222008057,88.81456841679756 21.505877528805286,88.23894056602148 19.070120284333825,88.35886311769718 12.670721705886535,89.67800831139903 12.272143247770146,90.27761802086025 12.25,91.6207398189872 12.604291962925345,96.41755878715776 12.427145981462672,98.2882992986415 12.737151448964141,99.05577951984014 12.515718972194009,103.1569717208622 13.268589393235743,108.96091107782559" stroke="#4dd2ff" stroke-linecap="round" stroke-linejoin="round" stroke-width="0.5"><title>2022-04-16 5.8km</title></polyline><polyline fill="none" points="59.45828789542429,105.07716625506873 61.04825518000871,105.36418084346224 62.06406761193648,104.98149467003532 63.49945474381093,105.38809871455305 68.313522355631,107.68420625169529 69.24100327165797,109.14318293312681 69.30725190846715,114.16584012712701 72.42093784082681,114.85943915048847 77.38958560535684,114.38109515275573 79.90703380585182,112.8503896924667 85.40567066520452,110.2912256148993 88.01145038171671,109.95638024597429 96.88876772089861,110.1955555441964 97.75,109.57369940768695 97.15376226836815,105.29242721982882 97.39667393674608,104.0726132261043 96.86668484192342,102.99630300962599 96.5133587786695,99.3129036538594 95.98336968373042,97.7342913193279 95.76254089421127,92.5917895733437 95.45338058879133,91.87422480582609 94.48173391504679,91.08490175555926 85.78107960743364,87.64056084951153 78.29498364240862,91.08490175555926 75.77753544168081,91.46760407680995 72.9288440567907,90.91746935018455 68.13685932394583,88.52556854937575 66.25981461291667,88.33421573479427 61.821155943442136,89.12354537841748 58.11123227933422,90.0803060462058 57.49291166861076,90.53476638958091 57.25,92.68746475753142 57.82415485288948,99.28898534155451 57.69165757915471,104.88582305717864 58.22164667409379,108.01905393027118 59.17121046909597,110.88916292690556 59.19329334795475,112.39596013972186" stroke="#4dd2ff" stroke-linecap="round" stroke-linejoin="round" stroke-width="0.5"><title>2022-04-09 5.9km</title></polyline><polyline fill="none" points="104.3734298198251,104.86782010982279 106.01024030591361,105.01156265864847 106.78440742765088,104.77199170915992 108.24426542886067,105.10739098975318 113.86250682687387,108.29366714999196 114.63667394872755,109.94668551645009 114.37124522123486,114.16304268882959 115.83110322232824,114.69008354708785 118.86141452763695,114.80986544294865 120.36551064997911,114.35469400737202 120.74153468047734,114.69008354708785 121.44934462045785,114.61821438872721 130.18637356639374,110.35394963953877 132.99549426545855,109.94668551645009 140.53809393779375,110.162295997201 142.3076187876286,109.99459896879853 142.75,109.53942089065094 141.02471327153035,97.65665519493632 141.00259421090595,93.1286338683276 140.36114145279862,91.73906988586532 139.32154560356867,90.78074648726033 130.69511196063831,87.69013455708046 128.77075368654914,88.21721770978183 123.48429819778539,90.78074648726033 120.71941561996937,91.21199236120447 118.46327143639792,91.04428569946322 114.28276897885371,88.84013307702844 112.26993446215056,88.24117601491162 110.67736209731083,88.19325940296403 107.24890770076308,88.57659210369457 103.26747678872198,89.65471293596784 102.58178590936586,90.18179294918082 102.25,91.02032759797294 102.7366193337366,99.42951433817507 102.62602403061464,103.93349201593082 102.9799290006049,105.13134806812741 102.91357181873173,106.68855443428038 104.26283451670315,112.65378466484253" stroke="#4dd2ff" stroke-linecap="round" stroke-linejoin="round" stroke-width="0.5"><title>2022-03-09 5.9km</title></polyline><polyline fill="none" points="149.645399780944,105.73054313933244 152.2625958379358,105.32215814184747 155.94441401970107,106.66742446404533 158.49507119390182,108.25290989250061 159.2713581599528,109.16576169253676 159.51533406355884,110.41492323207785 159.51533406355884,114.66684158658609 161.15662650601007,115.051193095278 164.35049288056325,115.07521504972829 168.1875684557017,114.30651164168376 176.26095290249214,110.29481175058754 187.21768893755507,110.24676714569796 187.72782037244178,109.74229837374878 187.75,107.77246056502918 187.52820372395217,105.32215814184747 186.88499452348333,103.71263589005684 186.79627601313405,98.81195275273058 186.3526834611548,98.04321155539947 186.57447973708622,95.49674357826007 186.28614457824733,92.46978444320848 184.37869660463184,90.59593871526886 176.726725082146,87.35271909731091 173.4219605695689,88.36172416433692 169.16347207012586,90.61996244563488 166.65717415115796,91.26860250573372 164.41703176347073,91.00434189403313 158.31763417308684,88.02538948398433 154.99069003283512,87.809174151771 148.58077765605412,89.32267850905191 147.7379518073285,90.01936866313918 147.25,91.67700485393289 147.58269441407174,98.33148971371702 147.91538882802706,99.36448438485968 147.51615553128067,101.74276217870647 147.67141292442102,104.67354563905974 148.78039430454373,105.2500901487656 152.77272727282252,105.12997679211549 157.5635268345941,107.484190633666 158.9830230011139,108.56520158116473 159.2713581599528,109.16576169253676 159.55969331867527,111.01547998585738 159.3822562978603,114.30651164168376 159.9811062430963,114.642819602479 162.55394304497167,114.88303936520242 161.51150054764003,115.1472809027182 159.91456736042164,114.90706133184722 159.36007667030208,114.01824740323354 159.1826396494871,109.43000779612339 158.53943044913467,108.56520158116473 154.32530120480806,106.13892763268086 151.99644030665513,105.32215814184747 151.264512595837,105.46629408089211 150.3551478642039,105.12997679211549 148.02628696605098,105.34618080270593 147.71577217965387,106.25904062303016 148.86911281489301,111.03950223326683 150.02245345013216,114.09031348637654" stroke="#4dd2ff" stroke-linecap="round" stroke-linejoin="round" stroke-width="0.5"><title>2022-02-11 8.0km</title></polyline><polyline fill="none" points="14.402602739748545,154.38683652938926 14.691095890360884,154.07437106739962 16.11136986303609,154.26665754045825 17.46506849315483,153.9782277889317 23.700958904111758,157.15094123248127 24.544246575329453,159.02571215573698 24.5220547944773,163.37610121432226 29.248904109583236,163.4962768962141 31.534657534211874,163.0876793997886 34.19767123286147,162.29451811409672 35.64013698627241,161.09275496951886 39.013287671259604,159.41027923792717 41.38780821906403,158.6892155923997 52.26178082183469,158.73728655095329 52.75,157.94411484195734 52.59465753426775,153.6657619412581 51.9510958903702,152.2476440021128 51.57383561634924,148.01728998601902 51.085616438416764,146.5030023957952 51.085616438416764,141.52743724428 50.486438356223516,140.39770913220127 49.19931506854482,139.48430911556352 40.788630136987194,136.5037231037859 33.62068493152037,139.82082520442782 31.62342465762049,140.25348824454704 29.781506849336438,140.2775250634877 28.627534246537834,139.91697259558714 23.212739726062864,137.27290916081984 20.30561643827241,136.912353419204 17.309726027422585,137.39309432072332 16.24452054791618,138.01805644854903 14.424794520484284,137.2969461962639 13.93657534243539,137.41713134749443 12.25,139.21990337703028 12.671643835492432,147.68078223138582" stroke="#4dd2ff" stroke-linecap="round" stroke-linejoin="round" stroke-width="0.5"><title>2022-02-09 5.3km</title></polyline><polyline fill="none" points="64.06639344268478,154.638530464028 69.00163934426382,157.68272124050418 69.70983606553636,160.43924772550236 69.95327868848108,163.4833850133291 73.44999999995343,163.6032323637919 78.03114754101261,162.956056154595 83.07704918028321,160.12764153754688 87.3262295081513,158.90518365241587 97.2188524591038,159.0250326648238 97.75,158.25799823351554 97.24098360654898,153.60781383956783 96.70983606553636,152.38533181030652 96.46639344259165,148.62197635747725 95.95737704914063,146.89609198991093 96.09016393439379,144.13945240626344 95.71393442619592,141.28690546692815 93.78852459019981,139.44112666207366 85.6442622950999,136.3967676362372 78.40737704921048,139.80069477137295 76.3491803278448,140.20820482156705 73.16229508188553,139.8486371563049 69.42213114758488,137.81107965300907 67.29754098365083,137.1878242570092 65.1508196721552,137.11591009711265 60.54754098365083,137.81107965300907 57.64836065575946,138.76993180988939 57.25,142.1978054883948 57.60409836063627,143.97165620999294 57.71475409832783,154.1111874768394" stroke="#4dd2ff" stroke-linecap="round" stroke-linejoin="round" stroke-width="0.5"><title>2022-02-05 5.3km</title></polyline><polyline fill="none" points="104.11820428341161,153.5654279984592 104.91886326193344,153.8544916282408 106.83154859975912,153.58951664390042 110.2343492587097,155.34798303610296 111.23517298186198,155.44433708957513 114.05971993412822,157.44367738449364 114.74917627684772,159.22621158364927 114.68245469522662,163.27301042951876 115.39415156515315,163.53797767989454 117.97405271825846,163.4898018318927 118.61902800668031,163.8511205210234 119.33072487649042,163.44162597690593 121.88838550250512,163.08030684187543 123.7343492587097,162.3335793824226 126.46993410214782,160.57515001675347 131.36285008245613,158.88897611841094 142.01606260309927,159.03350564543507 142.75,158.38312227770803 142.26070840202738,153.66178256971762 141.660214168136,152.50552586768754 141.92710049427114,151.27699870578363 141.63797364092898,148.00090402990463 141.01523887971416,146.60373616428114 141.01523887971416,141.78587080031866 140.52594728174154,140.43685595705756 139.7252883032197,139.76234647782985 130.628912685439,136.1488794789766 128.91639209236018,136.6788571025827 123.33401976944879,139.4973602356331 120.13138385501225,140.00324287789408 118.28542009880766,139.71416717674583 114.52677100489382,137.59427100306493 112.5696046128869,136.94384559680475 109.38920922577381,136.94384559680475 104.40733113675378,138.051977005729 102.67257001646794,138.89511798872263 102.25,139.5214499027643 102.45016474463046,153.08365472246078 102.80601317959372,153.90266887535108 102.85049423400778,156.93782134004869 103.69563426694367,158.8167113312229 103.67339373973664,160.14156326136435 104.11820428341161,161.34596951602725" stroke="#4dd2ff" stroke-linecap="round" stroke-linejoin="round" stroke-width="0.5"><title>2022-01-20 5.9km</title></polyline><polyline fill="none" points="149.71059113298543,152.46128435397986 149.1564039408695,152.94147628857172 150.99630541866645,153.2776102279022 157.80172413785476,156.27879096847028 159.0431034482317,158.03146792185726 159.5307881773915,163.19340771855786 165.91502463060897,163.84164562620572 173.58497536939103,159.54404467373388 175.53571428568102,158.96782577451086 178.08497536939103,158.7037251101574 187.3066502462607,159.01584405446192 187.75,158.29556912308908 187.28448275860865,154.59813310974278 186.39778325124644,152.50930357875768 186.70812807884067,151.30882086546626 186.61945812799968,149.00388183706673 186.02093596057966,146.65090667057666 185.8879310344346,141.46469818949117 185.08990147779696,140.14412284840364 183.4938423645217,139.0396376028075 180.9445812808117,138.39135106600588 175.82389162562322,136.15835437379428 174.2056650245795,136.63856998941628 171.78940886701457,138.15124461860978 168.50862068973947,139.61589123486192 166.6687192118261,140.00005976483226 163.0997536944924,139.61589123486192 159.17610837426037,137.47894563802402 157.424876847188,137.0707634470018 154.7869458127534,136.97472050524084 152.52586206886917,137.33488139288966 150.35344827582594,138.12723396424553 147.75985221669544,138.4393723345711 147.25,139.83198608789826 147.40517241379712,146.81897688066238 147.75985221669544,147.99546595910215 147.29433497530408,150.6365486420691 147.40517241379712,153.51770568959182" stroke="#4dd2ff" stroke-linecap="round" stroke-linejoin="round" stroke-width="0.5"><title>2022-01-18 5.6km</title></polyline><polyline fill="none" points="15.834457636228763,202.28937282104744 17.779681597370654,202.14733701996738 20.271316783619113,203.40198445494752 22.26025364268571,203.75707247498212 23.680922827799805,204.75131687356043 24.8393146249,206.6451073399221 24.48961144092027,208.20747619349277 24.926740420865826,211.4032073483104 25.669859686982818,211.61625497826026 29.385456017334945,211.8056305324717 33.29776038858108,210.92976767217624 34.19387479766738,210.1722627604904 34.849568267702125,210.21960686903913 35.548974635777995,209.5567887238867 37.144495412823744,208.96498566993978 38.521451699896716,207.97075412116828 38.521451699896716,207.56832620379282 40.75080949801486,207.1185532377276 52.07245008088648,207.1185532377276 52.46586616290733,206.59776271230658 52.422153264982626,205.05905857289326 51.875742039992474,202.0999917392328 51.24190501892008,200.77432108609355 51.416756610851735,197.7678694500355 50.78291958977934,194.99812175007537 50.91405828378629,191.68386280332925 50.49878575280309,189.55324997042771 49.60267134371679,188.41691743131378 47.9197247705888,187.46997062233277 40.46667566115502,184.86585271096556 37.319347004871815,186.04954525007633 33.80045871564653,187.9197706996638 32.07379924459383,188.3932437946496 28.380059363204055,188.27487558539724 23.48421478678938,185.93117618968245 20.861440906650387,185.55239490728127 12.861980572110042,187.1385385892063 12.5122773880139,188.62998008419527 12.927549919113517,193.7671152179828 12.752698327065445,195.8030081228644 13.102401511045173,196.51320033078082 12.840124123031273,197.10502598871244 12.971262817038223,201.88693789069657 13.626956287189387,202.45508117738063 14.61049649224151,202.0999917392328 15.703318942221813,202.45508117738063 16.992849433328956,202.21835492821992 18.304236373398453,202.45508117738063 22.609956826781854,204.46724735476892 23.855774419847876,205.5088343801326 24.55518078780733,207.00019182771211 25.101592012913898,211.68727082401165 27.396519158035517,211.7582866542798 28.358202914125286,212.63414728900534 29.64773340523243,211.56891107253614 33.275903939502314,210.90609567033243 39.02415002696216,207.71035964312614 40.8382352940971,207.23691460472764 52.02873718284536,207.1422255145153 52.509579060948454,206.62143502695835 52.31287101993803,203.42565700161504 52.75,202.95220574105042 51.61346465186216,201.24777550960425 51.76645979494788,198.9988608737185 50.87034538586158,195.16383381281048 50.892201834823936,191.1867210546916 50.56435509992298,189.55324997042771 48.859552077716216,187.9907917077653 40.64152725308668,184.88952660388895 34.958850512630306,187.51731802814174 31.43996222340502,188.62998008419527 28.29263356712181,188.22752828962984 23.74649217480328,185.97852381900884 21.69198596861679,185.5287210625538 20.402455477626063,185.45769951795228 13.146114409086294,186.8781274695648 12.621559633058496,187.35160207780427 12.81826767406892,188.41691743131378 12.25,189.60059707355686 12.94940636807587,196.37116201300523 12.905693470034748,201.93428320239764" stroke="#4dd2ff" stroke-linecap="round" stroke-linejoin="round" stroke-width="0.5"><title>2022-01-15 11.2km</title></polyline><polyline fill="none" points="59.51853377267253,202.59244773734827 62.5210049423622,202.5442704447196 64.87850082374644,203.89323199325008 65.39003294892609,203.79687777883373 66.7911861614557,204.44726818302297 68.4147446458228,205.79622199345613 69.10420098842587,206.8561104251421 69.52677100489382,208.61455421766732 69.61573311360553,212.03506202084827 70.61655683687422,212.51682085017092 72.59596375620458,212.54090877334238 78.80107084021438,211.4810385023302 79.77965403627604,211.1438063425303 80.22446457995102,210.54160520451842 83.58278418460395,208.59046600945294 87.29695222398732,207.62693624859094 97.3719110378297,207.77146589112817 97.75,206.7597570712678 97.1272652389016,202.37564986548387 96.52677100501023,201.33983585532405 96.57125205930788,198.37690815413953 96.34884678747039,196.04027170789777 96.05971993412822,195.63075640870375 96.1264415156329,191.63193338442943 95.52594728162512,189.58432461763732 93.7911861614557,188.06667702150298 90.9221581548918,187.29580574165448 85.67339373973664,184.95909122665762 78.53418451396283,188.45211198955076 77.13303130143322,188.83754650966148 73.64126853377093,188.69300861709053 69.88261943985708,186.59720209651277 67.32495881384239,185.82632740098052 64.74505766062066,185.82632740098052 57.47240527183749,187.44034424310667 57.25,187.87395936955 57.33896210871171,195.7752912779397 57.739291597972624,196.90747890778584 57.33896210871171,199.22002035655896 57.761532125179656,202.64062502296292" stroke="#4dd2ff" stroke-linecap="round" stroke-linejoin="round" stroke-width="0.5"><title>2022-01-11 5.6km</title></polyline><polyline fill="none" points="107.49349945830181,211.13040779042058 107.86646803899202,211.1779313959414 105.03629469126463,203.52654202119447 105.05823401955422,203.05129454433336 105.43120260024443,202.88495776441414 108.26137594808824,202.90872016671347 111.68391115928534,204.73841996319243 112.1885157097131,204.6908954225073 113.65845070430078,205.68890932644717 114.88705308781937,207.73245210939785 115.43553629470989,212.12840205733664 119.47237269789912,212.10464032442542 119.95503791992087,211.67692883734708 123.81635969667695,211.4393111030222 127.34859154932201,209.25321985248593 130.92470205854625,207.80373825519928 142.24539544968866,207.77997620837414 142.75,207.0671139996266 142.5744853737997,204.6433708749828 141.80660888412967,201.55426048100344 141.3678223186871,196.27894300187472 140.9729144097073,195.352189256344 141.19230769237038,191.76396409992594 140.79739978339057,190.00548177410383 139.87594799569342,189.00742003324558 138.0988624052843,188.03311873035273 130.72724810405634,185.37159794266336 124.21126760577317,188.6509686736681 121.99539544968866,189.15000046836212 119.34073672804516,189.00742003324558 114.57990249199793,186.65483388278517 111.46451787650585,186.10827104220516 107.80065005412325,186.44096157560125 102.68878656555898,187.98559176333947 102.68878656555898,190.1005351144413 102.40357529791072,189.95795509355958 102.25,190.4094582797843 102.35969664133154,191.85901692931657 102.77654387871735,192.73825429248973 102.82042253529653,200.31860815823893 103.23726977244951,202.14832243684214 104.18066088843625,202.7186208999192 107.07665222114883,202.67109606595477 108.32719393295702,203.0037697587104 112.75893824489322,204.97604256280465" stroke="#4dd2ff" stroke-linecap="round" stroke-linejoin="round" stroke-width="0.5"><title>2022-01-08 6.4km</title></polyline><polyline fill="none" points="149.3513107590843,202.23605768402922 150.9881212451728,202.97872738481965 152.04983615502715,202.619371286768 152.82400327688083,202.7870708479022 156.80543418880552,204.48801872253534 158.8182687056251,205.78169151672046 159.63667394849472,207.50658068529447 159.9905789186014,210.09389753086725 159.79150737298187,211.10007082519587 160.30024576734286,212.15415384279913 164.14896231563762,212.32184855788364 168.1746313489275,211.62711275491165 169.52389404689893,211.05215788073838 171.44825232110452,209.39915703696897 174.3016111414181,208.08154173759976 178.15032768982928,207.5784508716024 186.84311851439998,207.88988816479105 187.24126160575543,207.86593146037194 187.75,207.07535923851538 187.39609503000975,202.69124253769405 186.7988803932676,201.3736004496168 186.84311851439998,199.28931949153775 186.40073730202857,196.15089458564762 186.02471327141393,195.45612473032088 186.0689513925463,191.28747486849898 185.64868924079929,189.70624907067395 184.78604587656446,188.77188480898621 175.62875477876514,185.17815144214546 168.32946477329824,188.60417812282685 166.64841616596095,188.96354948868975 163.19784270890523,188.62813622609247 160.58779355534352,187.04689767956734 158.26529219001532,186.16044245107332 154.92531403596513,185.8969012480229 147.86933369736653,187.38231255015125 147.38271436374635,187.90939237194834 147.25,191.67080119316233 147.64814309112262,192.8686930865224 147.4711906061275,195.45612473032088 147.82509557611775,198.64247099938802 147.4490715455031,200.77467048814287 147.89145275799092,202.76311377296224 147.78085745486896,204.48801872253534 149.21859639545437,209.7824623179331" stroke="#4dd2ff" stroke-linecap="round" stroke-linejoin="round" stroke-width="0.5"><title>2022-01-02 5.9km</title></polyline><polyline fill="none" points="15.090946166426875,251.5195145648031 17.07300163130276,251.0186043473077 23.70187601959333,254.2387281320407 24.84706362162251,256.17078725167084 24.891109298565425,260.4165068779548 25.15538336057216,260.7981419094722 29.383768352330662,260.8696984285489 32.37887438829057,260.48806348009384 38.47920065256767,257.1487387708912 41.18800978793297,256.3377547903219 52.243474714574404,256.29004978796 52.63988580764271,255.64603157778038 52.75,253.97634885675507 51.73694942903239,250.0644875340804 51.71492659044452,247.9654207896383 50.78996737359557,244.24431495679892 51.076264274073765,241.8589685310435 50.92210440454073,239.64058080720133 50.481647634645924,238.47174683923367 48.015089722699486,236.6349993418262 40.615415986976586,233.8202235022618 34.93352365412284,236.80197681154823 31.828303425805643,237.56530130616738 28.568923327955417,237.25520094422973 24.97920065256767,235.27532249942305 21.69779771612957,234.39272223765147 15.971859706449322,234.60740900613018 15.024877651012503,235.13219829378068 13.196982055553235,234.79824157140683 12.646411092951894,235.39459262313903 12.25,237.44603197084507 12.668433931423351,244.60211542647448 12.998776508960873,245.27000859371037 12.778548124013469,250.5653992065345 14.320146818994544,251.4002502966032 17.997960848384537,251.5195145648031 23.70187601959333,254.2387281320407 24.780995105975308,256.003819628153 25.023246329510584,260.63117663771845 26.10236541600898,261.13207219849573 28.98735725937877,261.1797764977382 29.978384991991334,260.8935505980917 29.95636215340346,260.5119156774017 32.09257748781238,260.65502882463625 34.338907014694996,260.0110191712156 39.40415986953303,256.88636181977927 43.544453507405706,256.3377547903219 52.00122349103913,256.4808697558765 52.75,255.956114577275 52.72797716152854,254.07175952655962 52.199429037515074,251.2571331175568 51.69290375197306,250.42228166380664 51.538743882556446,246.51037801531493 50.94412724301219,244.29202170865028 51.208401305018924,243.62412655269145 51.01019575854298,239.47360478076735 50.547716150060296,238.32862402667524 49.55668841768056,237.32676259224536 40.85766721039545,233.89178589871153 33.78833605221007,237.2313470581139 31.78425774886273,237.77998600064893 27.974306688527577,237.35061647143448 25.045269167982042,235.5138627035194 22.336460032616742,234.75053344052867" stroke="#4dd2ff" stroke-linecap="round" stroke-linejoin="round" stroke-width="0.5"><title>2021-12-31 10.1km</title></polyline></svg>