<?xml version="1.0" encoding="utf-8" ?>
<svg baseProfile="full" height="300mm" version="1.1" viewBox="0,0,200,300" width="200mm" xmlns="http://www.w3.org/2000/svg" xmlns:ev="http://www.w3.org/2001/xml-events" xmlns:xlink="http://www.w3.org/1999/xlink"><defs /><rect fill="#222222" height="300" width="200" x="0" y="0" /><text fill="#FFFFFF" style="font-size:12px; font-family:Arial; font-weight:bold;" x="10" y="20">Over 5km Runs</text><text fill="#FFFFFF" style="font-size:4px; font-family:Arial" x="10" y="280">ATHLETE</text><text fill="#FFFFFF" style="font-size:9px; font-family:Arial" x="10" y="290">ufiv</text><text fill="#FFFFFF" style="font-size:4px; font-family:Arial" x="120" y="280">STATISTICS</text><text fill="#FFFFFF" style="font-size:3px; font-family:Arial" x="120" y="285">Number: 5</text><text fill="#FFFFFF" style="font-size:3px; font-family:Arial" x="120" y="290">Weekly: 1.2</text><text fill="#FFFFFF" style="font-size:3px; font-family:Arial" x="141" y="285">Total: 39.2 km</text><text fill="#FFFFFF" style="font-size:3px; font-family:Arial" x="141" y="290">Avg: 7.8 km</text><text fill="#FFFFFF" style="font-size:3px; font-family:Arial" x="167" y="285">Min: 5.6 km</text><text fill="#FFFFFF" style="font-size:3px; font-family:Arial" x="167" y="290">Max: 11.2 km</text><polyline fill="none" points="20.372369130840525,76.29221834853524 23.830545061966404,76.03971025772626 28.26011872617528,78.27019458659925 31.7960064758081,78.9014621777751 34.32164058252238,80.66900777522824 36.38100377749652,84.03574638211285 35.759309228276834,86.81329101067968 36.53642741474323,92.49459084146656 37.8575283321552,92.8733421836223 44.46303291944787,93.21000983554404 51.41824069060385,91.65292030607816 53.01133297337219,90.30624490758055 54.177010253537446,90.39041221162188 55.42039935220964,89.21206884249114 58.25688073365018,88.15997452437296 60.704803021857515,86.39245177101111 60.704803021857515,85.67702436231775 64.66810577409342,84.87742797817918 84.79546681046486,84.87742797817918 85.49487317842431,83.95157815521816 85.41716135991737,81.21610412959126 84.44576362636872,75.95554086976335 83.31894225557335,73.59879304195056 83.6297895302996,68.25399013340939 82.50296815950423,63.32999422238208 82.73610361549072,57.43797831705888 81.99784133816138,53.650222169671906 80.40474905539304,51.63007543349522 77.41284403647296,49.94661443971563 64.1629789529834,45.317071486177156 58.567728008609265,47.421413777949056 52.31192660541274,50.74625902166008 49.24230976798572,51.587988968298305 42.67566109006293,51.377556596300565 33.971937398659065,47.21097989278496 29.309228278230876,46.537590946332784 15.087965461192653,49.35740193637321 14.46627091197297,52.00885348304291 15.20453318930231,61.141538165305974 14.893685914808884,64.76090332958847 15.515380464028567,66.02346725476673 15.049109551822767,67.07560175773688 15.282245007809252,75.576778472343 16.447922288207337,76.58681098205852 18.19643820822239,75.95554086976335 20.13923367485404,76.58681098205852 22.431732325814664,76.16596431686776 24.763086885912344,76.58681098205852 32.41770102526061,80.16399529739283 34.632487857481465,82.0157055646705 35.87587695615366,84.66700769372983 36.84727468946949,92.99959257603041 40.92714516981505,93.1258429409645 42.636805180693045,94.68292851379374 44.92930383142084,92.78917524009012 51.379384781233966,91.61083674724796 61.5984889366664,85.92952825446264 64.82352941157296,85.08784818623099 84.71775499172509,84.91951202583732 85.57258499716409,83.99366227016435 85.22288181306794,78.31227911400492 86.0,77.47058798413491 83.97949271439575,74.44048979488434 84.25148407975212,70.44241933108424 82.65839179698378,63.62459344501258 82.69724770635366,56.55417076393496 82.11440906627104,53.650222169671906 79.08364813798107,50.87251859161188 64.47382622747682,45.35915840693633 54.371289800154045,50.03078760561766 48.11548839719035,52.00885348304291 42.52023745258339,51.29338362606359 34.438208310632035,47.29515345604159 30.785752833122388,46.49550411122618 28.493254182394594,46.369243587512756 15.593092282768339,48.89444883482065 14.660550458589569,49.73618147167144 15.01025364245288,51.63007543349522 14.0,53.734394797473215 15.243389098672196,65.77095468979678 15.165677279932424,75.66094791537034" stroke="#4dd2ff" stroke-linecap="round" stroke-linejoin="round" stroke-width="0.5"><title>2022-01-15 11.2km</title></polyline><polyline fill="none" points="118.03294892935082,76.83101819973672 123.37067545298487,76.74536967952736 127.56177924224176,79.14352354354924 128.47116968710907,78.97222716239048 130.96210873150267,80.12847676983802 133.84843492601067,82.52661687723594 135.0741350906901,84.41086297802394 135.82537067541853,87.53698527585948 135.98352553555742,93.61788803711534 137.7627677100245,94.47434817813337 141.28171334438957,94.51717115257634 152.31301482697017,92.63295733754057 154.05271828686818,92.03343349782517 154.84349258663133,90.96285369695397 160.81383855035529,87.4941617946024 167.41680395393632,85.78121999755967 185.3278418451082,86.03816158423433 186.0,84.23956812673714 184.8929159801919,76.4455997608602 183.82537067565136,74.60415263171308 183.90444810548797,69.33672560739797 183.5090609556064,65.18270525848493 182.99505766062066,64.45467805990484 183.11367380572483,57.34565935010323 182.04612850071862,53.70546598691726 178.9621087317355,51.00742581603117 173.8616144976113,49.63698798516998 164.53047775966115,45.48282884742366 151.838550247252,51.69264353701146 149.34761120262556,52.377860461652745 143.1400329489261,52.120904208219144 136.45799011550844,48.395025949401315 131.91103789117187,47.02458204620052 127.32454695226625,47.02458204620052 114.39538714988157,49.89394532109145 114.0,50.66481665696483 114.15815485990606,64.71162893855944 114.86985172983259,66.72440694714896 114.15815485990606,70.83559174498077 114.90939044486731,76.91666670754785" stroke="#4dd2ff" stroke-linecap="round" stroke-linejoin="round" stroke-width="0.5"><title>2022-01-11 5.6km</title></polyline><polyline fill="none" points="23.321776814758778,172.009613849601 23.984832069370896,172.09410025944817 18.953412784496322,158.49163025990129 18.992416034685448,157.6467458565894 19.655471289297566,157.35103602558956 24.68689057417214,157.39328029635362 30.77139761648141,160.64607993455138 31.66847237269394,160.56159186220611 34.28169014095329,162.3358388025663 36.4658721559681,165.96880375003093 37.440953412791714,173.78382587971282 44.617551462724805,173.7415827989753 45.47562296874821,172.98120682191802 52.340195016236976,172.55877529422287 58.619718309957534,168.67239084886387 64.97724810405634,166.09553467590013 85.1029252440203,166.05329103706754 86.0,164.78598044373211 85.6879739977885,160.47710377772455 84.32286023837514,154.98535196622834 83.54279523296282,145.60700978108798 82.84073672816157,143.9594475668273 83.23076923075132,137.5803806220647 82.52871072595008,134.45418982062256 80.89057421451434,132.67985783686163 77.73131094267592,130.94776663172524 64.62621885165572,126.21617412028718 53.04225352127105,132.04616653098492 49.10292524378747,132.93333416598034 44.38353196089156,132.67985783686163 35.91982665238902,128.49748245827504 30.38136511365883,127.52581518611987 23.86782231857069,128.1172650232911 14.780065005412325,130.86327424590127 14.780065005412325,134.6231735367619 14.27302275178954,134.36969794411561 14.0,135.1723702751624 14.195016251178458,137.74936342987348 14.936078006401658,139.3124520755373 15.01408450701274,152.78863672574516 15.75514626223594,156.04146210991894 17.432286023860797,157.05532604429754 22.58071505976841,156.97083745055716 24.803900325205177,157.56225734879263 32.68255687970668,161.068520111643" stroke="#4dd2ff" stroke-linecap="round" stroke-linejoin="round" stroke-width="0.5"><title>2022-01-08 6.4km</title></polyline><polyline fill="none" points="117.73566357162781,156.1974358826992 120.64554888033308,157.51773757307092 122.53304205345921,156.87888228759402 123.90933915879577,157.1770148407668 130.98743855790235,160.2009221733897 134.5658110321965,162.50078491860768 136.0207536863163,165.56725455168635 136.64991807751358,170.16692894377047 136.29601310752332,171.95568146707956 137.20043691969477,173.82960683165584 144.04259967221878,174.12773076957092 151.19934462034144,172.89264489762718 153.59803386125714,171.87050289910985 157.01911523751915,168.93183473241515 162.09175314032473,166.58940753352363 168.93391589308158,165.69502377172466 184.38776624784805,166.24869007075904 185.0955761880614,166.20610037399456 186.0,164.80063864629483 185.37083560880274,157.00665340037085 184.3091206990648,154.6641785770771 184.38776624784805,150.9587902071653 183.6013107590843,145.37936815223657 182.93282359372824,144.14422174281208 183.0114691425115,136.73328865517396 182.26433642813936,133.9222205700935 180.73074822500348,132.26112854928942 164.4511196068488,125.87226923048729 151.47460404154845,131.96298332948936 148.4860731838271,132.6018657576642 142.3517203712836,132.00557551305974 137.7116329872515,129.19448476372054 133.582741671009,127.61856435751542 127.64500273065642,127.15004666318418 115.10103768412955,129.79077786690323 114.23593664658256,130.72780866123503 114.0,137.41475767677184 114.70780993974768,139.5443432649481 114.39322774414904,144.14422174281208 115.02239213534631,149.80883733229712 114.35390496975742,153.5994142011623 115.140360458754,157.1344244852662 114.94374658656307,160.2009221733897 117.49972692527808,169.61326634301804" stroke="#4dd2ff" stroke-linecap="round" stroke-linejoin="round" stroke-width="0.5"><title>2022-01-02 5.9km</title></polyline><polyline fill="none" points="19.050570962484926,237.14580367074814 22.574225122341886,236.25529661745531 34.35889070155099,241.97996112363762 36.39477977156639,245.4147328918625 36.473083197372034,252.96267889416777 36.94290375197306,253.64114117244026 44.46003262652084,253.76835276189377 49.784665579209104,253.0898906312941 60.62969004898332,247.15331337050884 65.44535073405132,245.7115640716802 85.09951060358435,245.62675517861499 85.80424143560231,244.48183391607017 86.0,241.5135090786789 84.1990212071687,234.55908894946333 84.15986949414946,230.82741473717033 82.51549755292945,224.2121154787601 83.02446982054971,219.97149961072137 82.75040783034638,216.0276992128347 81.96737357252277,213.94977215863764 77.5823817292694,210.68444327439647 64.42740619904362,205.68039733733167 54.326264274073765,210.9812921094126 48.80587275698781,212.33831343322527 43.01141924969852,211.78702390086255 36.62969004898332,208.26723999896785 30.796084828674793,206.69817286694888 20.61663947813213,207.0798382331559 18.933115823892877,208.01279696676647 15.683523654239252,207.41909612697782 14.704730832017958,208.47927577450173 14.0,212.12627905930276 14.743882544804364,224.84820520266658 15.331158238230273,226.03557083327905 14.939641109202057,235.4495985894173 17.680261011468247,236.93377830504323 24.2185970635619,237.14580367074814 34.35889070155099,241.97996112363762 36.27732463274151,245.11790156117058 36.707993474788964,253.34431402263 38.626427406212315,254.23479501955444 43.755301794502884,254.31960266263923 45.51712887454778,253.81075661885552 45.47797716152854,253.13229453758686 49.27569331158884,253.3867179105 53.26916802604683,252.2418118599453 62.274061990203336,246.68686545739183 69.63458401313983,245.7115640716802 84.66884176176973,245.96599067712668 86.0,245.03309258181253 85.96084828698076,241.68312804721063 85.0212071777787,236.67934776455513 84.12071778136306,235.1951674023585 83.84665579115972,228.24067202719743 82.78955954313278,224.29692748203524 83.25938009773381,223.10955831591855 82.90701468195766,215.73085294358316 82.08482871134765,213.6953316029685 80.32300163130276,211.91424460842973 64.85807504062541,205.80761937546777 52.290375204058364,211.74461699221865 48.72756933118217,212.719975112268 41.95432300190441,211.9566515047627 36.74714518757537,208.69131147296866 31.931484502274543,207.3342816720251" stroke="#4dd2ff" stroke-linecap="round" stroke-linejoin="round" stroke-width="0.5"><title>2021-12-31 10.1km</title></polyline></svg>